<?xml version="1.0" standalone="no"?>
<!DOCTYPE svg PUBLIC "-//W3C//DTD SVG 1.1//EN" "http://www.w3.org/Graphics/SVG/1.1/DTD/svg11.dtd" >
<svg>
<metadata>
Created by FontForge 20110222 at Sat May 24 00:36:30 2014
 By Orthosie Webhosting
Copyright (c) 1997, 2001, Berthold LLC. All rights reserved. Akzidenz-Grotesk is a trademark of Berthold Types Limited.
</metadata>
<defs>
<font id="AkzidenzGroteskBQ-XBoldAlt" horiz-adv-x="521" >
  <font-face 
    font-family="Akzidenz-Grotesk BQ"
    font-weight="700"
    font-stretch="normal"
    units-per-em="1000"
    panose-1="0 0 0 0 0 0 0 0 0 0"
    ascent="800"
    descent="-200"
    x-height="533"
    cap-height="706"
    bbox="-80 -241.124 1163.37 928"
    underline-thickness="127"
    underline-position="-113"
    stemh="20"
    stemv="189"
    unicode-range="U+0020-2122"
  />
<missing-glyph horiz-adv-x="500" 
 />
    <glyph glyph-name=".notdef" horiz-adv-x="500" 
 />
    <glyph glyph-name="space" unicode=" " horiz-adv-x="271" 
 />
    <glyph glyph-name="exclam" unicode="!" horiz-adv-x="292" 
d="M253 532l-27 -305h-123l-26 305v174h176v-174zM253 0h-176v153h176v-153z" />
    <glyph glyph-name="quotedbl" unicode="&#x22;" horiz-adv-x="323" 
d="M315 741l-49 -288h-40l-49 288h138zM145 741l-49 -288h-40l-49 288h138z" />
    <glyph glyph-name="numbersign" unicode="#" horiz-adv-x="583" 
d="M576 406h-105l-8 -96h102v-124h-113l-16 -186h-126l17 186h-99l-17 -186h-123l15 186h-96v124h107l8 96h-103v124h113l16 176h124l-15 -176h99l15 176h124l-14 -176h95v-124zM345 406h-98l-9 -96h99z" />
    <glyph glyph-name="dollar" unicode="$" 
d="M504 196c0 -57 -6 -81 -18 -107c-15 -30 -43 -66 -115 -87c-12 -3 -28 -6 -55 -10v-145h-108v145c-54 7 -110 15 -151 56c-42 42 -45 96 -45 151v29h198v-46c0 -18 1 -41 19 -52c8 -5 18 -7 27 -7c30 0 41 17 45 29c2 8 3 14 3 29c0 38 -11 47 -59 82
c-22 16 -44 31 -66 46c-58 41 -89 63 -111 89c-33 39 -37 75 -37 124c0 18 2 42 3 45c3 26 14 79 72 115c33 20 65 25 102 32v122h108v-122c18 -2 130 -15 166 -103c12 -30 13 -60 13 -92v-36h-186v46c0 1 0 15 -2 23c-6 20 -24 29 -44 29c-15 0 -44 -4 -44 -44
c0 -15 6 -25 8 -29c9 -13 33 -30 62 -51c27 -19 55 -38 82 -58c36 -26 57 -43 71 -57c18 -16 33 -34 44 -55s18 -43 18 -91z" />
    <glyph glyph-name="percent" unicode="%" horiz-adv-x="833" 
d="M805 124c0 -36 0 -68 -28 -94c-24 -21 -60 -37 -127 -37c-87 0 -129 25 -143 67c-8 23 -7 56 -7 80v187c0 6 -1 34 6 54c16 43 62 68 150 68c9 0 18 -1 26 -1c15 -1 90 -5 115 -67c8 -20 8 -37 8 -58v-199zM566 706l-214 -706h-87l214 706h87zM331 393
c0 -36 0 -67 -28 -93c-23 -22 -60 -38 -127 -38c-87 0 -128 26 -142 68c-8 22 -8 55 -8 79v188c0 5 -2 33 6 54c15 42 62 67 150 67c9 0 18 0 26 -1c15 -1 90 -4 115 -66c8 -21 8 -37 8 -59v-199zM687 107v232c0 14 -1 36 -35 36c-25 0 -32 -13 -32 -35v-233
c0 -11 -3 -40 33 -40s34 28 34 40zM212 376v233c0 13 -1 35 -35 35c-23 0 -32 -14 -32 -35v-233c0 -11 -2 -40 33 -40c37 1 34 29 34 40z" />
    <glyph glyph-name="ampersand" unicode="&#x26;" horiz-adv-x="604" 
d="M599 0h-133c-46 0 -58 4 -81 16c-30 -13 -60 -26 -128 -26c-122 0 -183 34 -216 84c-12 17 -29 50 -29 100c0 16 1 46 19 82c30 62 89 100 144 135c-7 14 -15 27 -22 40c-23 41 -45 69 -44 118c0 15 3 32 8 47c17 47 64 106 178 106c20 0 108 1 163 -56
c16 -16 40 -45 40 -100c0 -34 -12 -85 -71 -139c-17 -16 -36 -30 -56 -44l51 -87c8 36 9 41 12 79l138 -1c-1 -31 -3 -105 -39 -184c-7 -16 -16 -32 -25 -47c13 -16 19 -23 40 -23h51v-100zM365 552c0 27 -21 44 -47 44c-28 0 -46 -17 -46 -45c0 -13 3 -22 5 -27
c4 -10 13 -27 31 -47c41 27 57 50 57 75zM319 134l-73 130c-3 -1 -7 -4 -7 -4c-6 -3 -50 -30 -49 -70c0 -15 5 -27 7 -31c17 -37 48 -47 65 -47s30 5 57 22z" />
    <glyph glyph-name="quoteright" unicode="&#x2019;" horiz-adv-x="250" 
d="M212 541l-87 -155h-63l46 155h-71v165h175v-165z" />
    <glyph glyph-name="parenleft" unicode="(" horiz-adv-x="333" 
d="M328 -201h-71c-129 0 -210 52 -210 188v507c0 28 0 59 8 86c31 107 136 127 233 127h40v-68c-90 0 -107 -24 -107 -111v-543c0 -39 -2 -88 34 -112c21 -14 49 -12 73 -12v-62z" />
    <glyph glyph-name="parenright" unicode=")" horiz-adv-x="333" 
d="M286 12c0 -28 0 -60 -8 -87c-31 -106 -136 -126 -233 -126h-40v68c91 0 107 24 107 111v543c0 87 -10 125 -107 124v61h71c22 0 44 0 65 -4c103 -18 145 -86 145 -185v-505z" />
    <glyph glyph-name="asterisk" unicode="*" horiz-adv-x="437" 
d="M423 516l-100 -34l61 -78l-97 -77l-68 86l-64 -87l-101 74l59 80l-100 29l35 119l105 -30v107h124v-107l106 36z" />
    <glyph glyph-name="plus" unicode="+" horiz-adv-x="558" 
d="M478 227h-106v-136h-184v136h-108v147h108v137h184v-137h106v-147z" />
    <glyph glyph-name="comma" unicode="," horiz-adv-x="250" 
d="M210 0l-90 -152h-65l53 152h-70v164h172v-164z" />
    <glyph glyph-name="hyphen" unicode="-" horiz-adv-x="361" 
d="M331 232h-302v137h302v-137z" />
    <glyph glyph-name="period" unicode="." horiz-adv-x="250" 
d="M211 0h-174v164h174v-164z" />
    <glyph glyph-name="slash" unicode="/" horiz-adv-x="333" 
d="M331 706l-178 -706h-152l180 706h150z" />
    <glyph glyph-name="zero" unicode="0" 
d="M489 187c0 -54 -2 -103 -44 -144c-32 -31 -83 -54 -179 -54c-29 0 -57 4 -67 5c-17 3 -118 13 -155 90c-16 34 -17 67 -17 103v343c0 32 1 63 15 93c24 53 87 95 210 95c62 0 135 -10 185 -51c19 -15 28 -28 33 -37c21 -36 19 -79 19 -91v-352zM309 151v400
c0 10 0 17 -3 27c-10 28 -40 28 -48 28c-39 0 -50 -24 -50 -57v-399c0 -19 3 -51 50 -51c7 0 38 0 48 28c3 7 3 10 3 24z" />
    <glyph glyph-name="one" unicode="1" 
d="M368 0h-179v520c-49 -33 -76 -39 -104 -45v127c16 0 35 11 47 21c35 29 51 71 57 83h179v-706z" />
    <glyph glyph-name="two" unicode="2" 
d="M493 0h-462v66c0 51 3 87 30 132c28 47 65 78 104 115c22 21 45 42 67 62c35 33 61 54 69 73c6 13 6 29 6 44v57c0 38 -10 55 -50 54c-39 0 -49 -18 -49 -53v-113h-177v96c0 10 0 20 1 29c1 22 5 64 48 103c49 44 112 54 176 54c93 0 145 -20 178 -47c6 -5 27 -24 38 -48
s17 -55 17 -112c0 -58 -4 -98 -42 -144c-28 -35 -97 -95 -130 -125c-19 -17 -50 -45 -64 -67c-11 -18 -12 -29 -13 -39h253v-137z" />
    <glyph glyph-name="three" unicode="3" 
d="M487 196c0 -49 -1 -75 -8 -97c-18 -52 -69 -77 -82 -83c-56 -27 -124 -27 -141 -27c-19 0 -39 1 -59 3c-16 2 -122 11 -158 92c-9 19 -12 37 -12 79v70h180v-73c0 -18 1 -52 49 -52c51 0 50 37 50 55v87c0 38 -14 47 -50 47h-73v136h77c34 0 46 9 46 44v70
c0 13 0 15 -3 23c-4 13 -17 26 -47 26c-47 0 -49 -29 -49 -48v-53h-173v44c0 22 -4 76 40 121c47 48 117 57 181 57c18 0 118 2 181 -51c24 -20 34 -39 39 -51c10 -24 12 -49 12 -101c0 -11 2 -55 -20 -90c-19 -29 -54 -50 -61 -55c23 -8 44 -16 60 -35
c20 -26 21 -58 21 -89v-49z" />
    <glyph glyph-name="four" unicode="4" 
d="M500 150h-72v-150h-182v150h-226v134l204 422h204v-422h72v-134zM255 284v255l-118 -255h118z" />
    <glyph glyph-name="five" unicode="5" 
d="M488 188c0 -53 -4 -106 -46 -143c-33 -29 -87 -55 -184 -55c-61 0 -144 9 -189 57c-35 38 -39 85 -39 134v43h178v-74c0 -18 -1 -51 47 -51c51 1 52 28 52 51v156c0 19 1 54 -49 54c-43 0 -48 -28 -50 -45h-169l8 391h417v-135h-256l-5 -159c2 3 14 17 25 26
c17 14 50 37 103 37c20 0 71 -1 113 -41c16 -14 27 -33 34 -52c8 -23 10 -41 10 -86v-108z" />
    <glyph glyph-name="six" unicode="6" 
d="M493 194c0 -66 -8 -123 -70 -163c-65 -42 -138 -40 -163 -40c-80 0 -178 26 -214 107c-19 43 -17 100 -17 110v301c0 67 4 120 62 163c49 37 112 46 172 46c84 0 134 -22 163 -43c27 -19 40 -40 46 -52c14 -30 15 -60 15 -92v-38h-177v49c0 18 -1 52 -50 52
c-46 0 -47 -32 -47 -49v-162c3 3 8 12 17 20c29 28 69 36 108 36c90 0 129 -42 144 -79c10 -25 11 -48 11 -74v-92zM310 158v122c0 16 0 52 -47 52c-50 0 -50 -34 -50 -53v-124c0 -17 -1 -53 47 -53c52 0 50 38 50 56z" />
    <glyph glyph-name="seven" unicode="7" 
d="M498 568c-18 -25 -34 -43 -62 -97c-9 -17 -17 -34 -25 -51c-12 -26 -77 -181 -100 -310c-5 -30 -8 -53 -10 -110h-189c0 34 0 56 6 90c12 74 48 184 128 338c25 48 51 94 78 141h-148v-87h-147v224h469v-138z" />
    <glyph glyph-name="eight" unicode="8" 
d="M493 141c0 -65 -31 -93 -54 -110c-49 -34 -118 -42 -176 -42c-115 0 -186 33 -215 77c-22 33 -23 74 -23 111v72c0 26 3 40 6 51c18 58 73 74 89 80c-15 7 -23 11 -30 15c-49 31 -55 75 -55 130c0 61 0 108 54 148c17 13 27 18 36 22c26 12 66 23 131 23
c22 0 110 1 175 -47c8 -6 27 -20 40 -45c9 -17 16 -42 16 -85c0 -65 -10 -98 -31 -122c-19 -20 -40 -28 -65 -39c29 -8 41 -14 53 -22c53 -35 49 -91 49 -112v-105zM310 484v78c0 32 -19 44 -50 44c-45 0 -50 -23 -50 -45v-78c0 -21 0 -49 49 -49c50 0 51 27 51 50zM310 151
v117c0 19 -1 52 -52 52c-36 0 -48 -21 -48 -52v-119c0 -38 15 -48 53 -48c48 0 47 31 47 50z" />
    <glyph glyph-name="nine" unicode="9" 
d="M486 189c0 -13 0 -27 -1 -40c-2 -20 -7 -66 -50 -103c-29 -25 -86 -56 -178 -56c-130 0 -196 53 -221 107c-9 21 -13 38 -13 82v36h185v-64c0 -18 1 -48 47 -48c50 0 52 28 52 49l-1 156c-20 -16 -50 -43 -113 -43c-65 1 -130 29 -151 96c-6 18 -8 33 -8 70v92
c0 31 0 63 12 92c21 54 83 101 206 101c80 0 184 -21 221 -101c9 -20 13 -37 13 -80v-346zM307 421v120c0 39 -12 55 -54 54c-47 -1 -45 -35 -45 -52v-121c0 -20 0 -51 49 -51s50 29 50 50z" />
    <glyph glyph-name="colon" unicode=":" horiz-adv-x="292" 
d="M253 384h-174v164h174v-164zM253 0h-174v162h174v-162z" />
    <glyph glyph-name="semicolon" unicode=";" horiz-adv-x="292" 
d="M253 383h-175v166h175v-166zM253 0l-97 -153h-61l55 153h-72v161h175v-161z" />
    <glyph glyph-name="less" unicode="&#x3c;" horiz-adv-x="559" 
d="M444 75l-358 194v155l358 195v-165l-200 -103l200 -95v-181z" />
    <glyph glyph-name="equal" unicode="=" horiz-adv-x="559" 
d="M474 359h-389v142h389v-142zM474 130h-389v142h389v-142z" />
    <glyph glyph-name="greater" unicode="&#x3e;" horiz-adv-x="559" 
d="M473 271l-358 -195v164l200 103l-200 95v181l358 -193v-155z" />
    <glyph glyph-name="question" unicode="?" horiz-adv-x="479" 
d="M471 557c0 -40 -8 -70 -33 -101c-14 -17 -38 -40 -77 -74c-9 -8 -19 -17 -27 -26c-17 -17 -26 -26 -31 -36c-7 -13 -6 -29 -6 -33v-60h-174v37c0 1 0 32 3 49c8 48 38 80 71 111l84 81c18 17 30 31 30 58c0 34 -27 42 -39 42c-3 0 -12 -1 -20 -6c-20 -11 -19 -31 -19 -38
v-36h-155v32c0 28 2 55 16 80c21 39 76 75 175 75c110 0 168 -36 190 -84c13 -28 12 -63 12 -71zM297 0h-174v150h174v-150z" />
    <glyph glyph-name="at" unicode="@" horiz-adv-x="786" 
d="M752 36c-50 -48 -72 -65 -118 -92c-78 -44 -155 -66 -238 -66c-77 0 -146 19 -208 57c-106 66 -159 169 -159 311c0 260 192 467 434 467c175 0 287 -116 287 -296c0 -190 -106 -351 -229 -351c-43 0 -75 26 -83 68c-35 -45 -72 -67 -115 -67c-81 0 -136 69 -136 170
c0 152 97 286 207 286c16 0 31 -3 45 -9c22 -10 34 -21 53 -51l10 40h96l-39 -196c-10 -48 -16 -91 -16 -110c0 -16 6 -25 16 -25c11 0 25 15 40 40s27 54 37 91c10 39 14 66 14 105c0 59 -8 95 -29 129c-34 55 -95 85 -171 85c-174 0 -317 -168 -317 -371
c0 -170 107 -281 270 -281c101 0 199 47 293 140zM460 344v4c0 49 -24 81 -59 81c-54 0 -103 -89 -103 -185c0 -51 21 -82 55 -82c24 0 50 18 70 50c21 33 37 90 37 132z" />
    <glyph glyph-name="A" unicode="A" horiz-adv-x="562" 
d="M560 0h-197l-22 159h-121l-24 -159h-198l164 706h238zM323 285l-42 283l-43 -283h85z" />
    <glyph glyph-name="B" unicode="B" horiz-adv-x="542" 
d="M530 198c0 -58 -5 -116 -52 -157c-47 -40 -112 -41 -171 -41h-273v706h303c17 0 98 -5 144 -58c38 -44 36 -99 36 -117c0 -54 -10 -83 -25 -104c-30 -42 -84 -55 -96 -58c22 -4 44 -8 64 -18c62 -30 70 -91 70 -153zM325 477v45c0 39 -15 48 -52 48h-44v-146h44
c38 0 52 13 52 53zM330 189v48c0 41 -13 54 -55 54h-46v-156h44c43 0 57 10 57 54z" />
    <glyph glyph-name="C" unicode="C" horiz-adv-x="542" 
d="M526 212c0 -54 0 -102 -27 -143c-32 -49 -97 -82 -218 -82c-18 0 -36 1 -55 3c-21 2 -141 8 -182 105c-12 28 -15 52 -15 109v294c0 17 0 34 2 51c3 34 10 99 88 139c46 24 108 31 158 31c126 0 199 -46 226 -95c20 -36 21 -72 21 -111v-67h-195v84c0 31 -15 49 -49 49
c-35 0 -53 -16 -53 -49v-359c0 -32 18 -46 51 -46c35 0 51 15 51 51v85h197v-49z" />
    <glyph glyph-name="D" unicode="D" horiz-adv-x="562" 
d="M533 243c0 -19 0 -38 -1 -56c-5 -78 -26 -113 -54 -139c-53 -50 -124 -48 -192 -48h-252v706h274c16 0 97 -2 155 -39c67 -43 70 -110 70 -180v-244zM334 190v318c0 46 -8 62 -54 62h-46v-438h46c46 0 54 17 54 58z" />
    <glyph glyph-name="E" unicode="E" horiz-adv-x="437" 
d="M420 0h-386v706h386v-137h-187v-143h173v-135h-173v-155h187v-136z" />
    <glyph glyph-name="F" unicode="F" horiz-adv-x="417" 
d="M415 570h-182v-143h168v-135h-168v-292h-198v706h380v-136z" />
    <glyph glyph-name="G" unicode="G" horiz-adv-x="562" 
d="M532 0h-191v77c-33 -62 -72 -88 -143 -88c-48 0 -79 12 -96 21c-8 5 -22 13 -36 31c-9 10 -24 31 -32 63c-5 22 -7 43 -7 88v306c0 64 3 120 55 165c54 47 131 55 200 55c104 0 162 -22 198 -54c22 -19 34 -42 38 -51c10 -23 14 -45 14 -93v-58h-191v64
c0 28 -5 51 -59 51c-50 0 -54 -25 -54 -49v-361c0 -20 1 -57 54 -57c41 0 59 15 59 54v80h-61v125h252v-369z" />
    <glyph glyph-name="H" unicode="H" horiz-adv-x="562" 
d="M526 0h-198v282h-93v-282h-200v706h200v-278h93v278h198v-706z" />
    <glyph glyph-name="I" unicode="I" horiz-adv-x="271" 
d="M235 0h-200v706h200v-706z" />
    <glyph glyph-name="J" unicode="J" horiz-adv-x="354" 
d="M319 187c0 -57 0 -124 -54 -161c-35 -25 -79 -26 -120 -26h-133v135h54c1 0 17 0 26 3c21 6 29 21 29 57v511h198v-519z" />
    <glyph glyph-name="K" unicode="K" horiz-adv-x="562" 
d="M570 0h-212l-126 327v-327h-196v706h196v-324l120 324h200l-142 -338z" />
    <glyph glyph-name="L" unicode="L" horiz-adv-x="417" 
d="M416 0h-380v706h197v-572h183v-134z" />
    <glyph glyph-name="M" unicode="M" horiz-adv-x="750" 
d="M713 0h-166v484l-109 -484h-127l-110 475v-475h-166v706h251l90 -466l88 466h249v-706z" />
    <glyph glyph-name="N" unicode="N" horiz-adv-x="562" 
d="M525 0h-187l-136 414v-414h-166v706h183l141 -423l-1 423h166v-706z" />
    <glyph glyph-name="O" unicode="O" horiz-adv-x="562" 
d="M531 217c0 -61 -1 -120 -49 -165c-51 -49 -128 -62 -196 -62c-129 0 -204 39 -234 92c-24 42 -25 89 -25 135v266c0 74 1 141 68 188c34 24 89 45 183 45c9 0 185 6 235 -102c19 -40 18 -84 18 -127v-270zM331 179v351c0 23 -1 52 -53 52c-50 0 -51 -32 -51 -53v-351
c0 -20 0 -53 52 -53c53 0 52 33 52 54z" />
    <glyph glyph-name="P" unicode="P" horiz-adv-x="542" 
d="M525 457c0 -79 -10 -115 -36 -147c-45 -55 -113 -55 -179 -55h-77v-255h-198v706h302c63 0 125 -6 161 -64c24 -38 27 -91 27 -185zM333 447v73c0 37 -13 51 -50 51h-50v-181h50c43 0 50 17 50 57z" />
    <glyph glyph-name="Q" unicode="Q" horiz-adv-x="562" 
d="M531 217c0 -66 -2 -126 -56 -172c-31 -26 -72 -39 -83 -42c-10 -2 -21 -4 -31 -6v-26c0 -37 13 -44 48 -44h53v-111h-156c-29 0 -37 1 -52 5c-56 16 -62 61 -62 110v68c-18 4 -71 12 -113 50c-49 43 -52 108 -52 168v266c0 74 1 141 68 188c34 24 89 45 183 45
c9 0 185 6 235 -102c19 -40 18 -84 18 -127v-270zM331 179v351c0 23 -1 52 -53 52c-50 0 -51 -32 -51 -53v-351c0 -20 0 -53 52 -53c53 0 52 33 52 54z" />
    <glyph glyph-name="R" unicode="R" horiz-adv-x="562" 
d="M556 0h-200c-16 29 -24 46 -24 103v142c0 35 -9 48 -46 48h-51v-293h-201v706h216c37 0 73 0 109 -3c11 -1 93 -4 135 -53c29 -34 33 -78 33 -121c0 -46 -3 -88 -39 -123c-7 -7 -22 -20 -46 -29c-15 -5 -29 -8 -34 -9c9 -1 56 -5 87 -31c36 -29 35 -70 35 -111v-149
c0 -46 10 -57 26 -77zM333 482v40c0 32 -12 44 -45 44h-53v-139h51c38 0 47 10 47 55z" />
    <glyph glyph-name="S" unicode="S" 
d="M502 186c0 -36 -4 -75 -23 -108c-41 -73 -141 -89 -216 -89c-17 0 -54 0 -98 8c-20 3 -94 15 -129 78c-21 38 -21 81 -21 125v27h193v-47c0 -32 12 -57 50 -57c9 0 18 2 26 7c15 9 20 22 20 52c0 36 -12 46 -59 80l-124 89c-86 62 -92 107 -92 168c0 50 7 77 17 98
c39 84 138 101 219 101c20 0 114 1 177 -53c7 -6 26 -24 37 -49c12 -27 15 -53 15 -99v-34h-185v47c0 14 0 15 -3 23c-6 20 -23 29 -43 29c-40 0 -44 -33 -44 -46c0 -11 2 -18 8 -27c9 -15 34 -29 67 -54l97 -73c17 -13 34 -27 50 -41c32 -30 61 -65 61 -155z" />
    <glyph glyph-name="T" unicode="T" horiz-adv-x="500" 
d="M498 571h-150v-571h-199v571h-150v135h499v-135z" />
    <glyph glyph-name="U" unicode="U" horiz-adv-x="562" 
d="M529 191c0 -73 -5 -126 -78 -168c-35 -20 -83 -33 -171 -33c-80 0 -190 12 -231 91c-13 24 -18 45 -18 98v527h198v-519c0 -16 0 -57 51 -57s50 40 50 57v519h199v-515z" />
    <glyph glyph-name="V" unicode="V" horiz-adv-x="542" 
d="M540 706l-137 -706h-271l-133 706h195l74 -542l75 542h197z" />
    <glyph glyph-name="W" unicode="W" horiz-adv-x="833" 
d="M827 706l-88 -706h-245l-80 526l-81 -526h-242l-90 706h175l54 -501l70 501h228l72 -501l53 501h174z" />
    <glyph glyph-name="X" unicode="X" 
d="M517 0h-197l-60 244l-63 -244h-197l122 369l-122 337h201l59 -242l60 242h197l-117 -337z" />
    <glyph glyph-name="Y" unicode="Y" horiz-adv-x="562" 
d="M558 706l-176 -479v-227h-197v227l-185 479h197l85 -306l83 306h193z" />
    <glyph glyph-name="Z" unicode="Z" horiz-adv-x="479" 
d="M460 0h-444v137l229 435h-203v134h418v-139l-231 -430h231v-137z" />
    <glyph glyph-name="bracketleft" unicode="[" horiz-adv-x="333" 
d="M327 -201h-281v907h281v-65h-107v-778h107v-64z" />
    <glyph glyph-name="backslash" unicode="\" horiz-adv-x="333" 
d="M331 0h-150l-180 706h152z" />
    <glyph glyph-name="bracketright" unicode="]" horiz-adv-x="333" 
d="M286 -202h-282v66h108v778h-108v64h282v-908z" />
    <glyph glyph-name="asciicircum" unicode="^" horiz-adv-x="559" 
d="M527 359h-178l-66 193l-72 -193h-179l169 347h159z" />
    <glyph glyph-name="underscore" unicode="_" horiz-adv-x="500" 
d="M510 -239h-520v127h520v-127z" />
    <glyph glyph-name="quoteleft" unicode="&#x2018;" horiz-adv-x="250" 
d="M210 392h-172v162l90 152h64l-52 -152h70v-162z" />
    <glyph glyph-name="a" unicode="a" 
d="M513 0h-213v47c-24 -20 -68 -60 -150 -60c-75 0 -110 38 -121 68c-8 20 -8 41 -8 83c0 79 17 123 95 152c48 17 98 24 147 39c12 4 25 8 37 14v35c0 14 0 45 -42 45c-40 0 -40 -35 -40 -47v-28h-175v39c0 37 4 50 12 69c35 80 145 89 219 89c108 -1 168 -30 195 -74
c13 -22 20 -43 20 -91v-312c0 -42 7 -51 24 -68zM300 140v116c-15 -6 -36 -14 -36 -14c-3 -1 -34 -12 -45 -27c-8 -11 -9 -19 -9 -36v-39c0 -13 -2 -50 43 -50c46 0 47 31 47 50z" />
    <glyph glyph-name="b" unicode="b" 
d="M497 167c0 -59 0 -119 -57 -156c-34 -21 -69 -22 -84 -22c-18 0 -71 2 -111 41c-8 8 -13 14 -26 33v-63h-188v706h188v-236c18 31 47 77 132 77c14 0 56 0 92 -25c55 -39 54 -103 54 -162v-193zM307 146v248c0 15 1 49 -44 49s-44 -34 -44 -49v-251c0 -14 -1 -51 43 -51
c4 0 17 0 29 7c16 10 16 30 16 47z" />
    <glyph glyph-name="c" unicode="c" horiz-adv-x="500" 
d="M479 154c0 -39 -3 -68 -28 -100c-28 -35 -77 -54 -120 -61c-28 -5 -55 -5 -64 -5c-18 0 -36 1 -53 2c-15 1 -135 5 -177 89c-13 26 -14 51 -14 79v207c0 59 6 104 58 140c49 35 104 40 163 40c12 0 24 0 37 -1c18 -1 87 -4 139 -44c6 -4 25 -19 37 -40
c10 -19 15 -36 15 -76v-56h-180v53c0 16 0 43 -41 43c-6 0 -29 0 -37 -23c-2 -4 -3 -10 -3 -20v-223c0 -14 -2 -48 40 -48c45 0 41 36 41 50v32h187v-38z" />
    <glyph glyph-name="d" unicode="d" 
d="M489 0h-189v61c-13 -23 -23 -38 -46 -52c-16 -10 -40 -20 -83 -20c-12 0 -70 -1 -108 34c-18 16 -26 34 -29 42c-8 22 -10 46 -10 93v225c0 12 0 24 1 36c2 19 7 91 75 116c26 10 56 9 64 9c47 0 94 -11 124 -50c6 -8 7 -9 12 -18v230h189v-706zM300 142v243
c0 17 -3 43 -45 43c-6 0 -32 0 -40 -24c-2 -7 -2 -12 -2 -19v-245c0 -19 3 -43 45 -43s42 31 42 45z" />
    <glyph glyph-name="e" unicode="e" horiz-adv-x="500" 
d="M480 156c0 -46 -4 -85 -40 -119c-35 -34 -87 -50 -187 -50c-24 0 -48 1 -72 4c-13 2 -103 10 -138 72c-20 34 -20 71 -20 108v184c0 8 -1 44 5 75c15 69 63 97 128 109c14 2 49 7 89 7c19 0 37 -1 56 -3c58 -5 130 -20 162 -77c16 -29 17 -59 17 -92v-136h-267v-79
c0 -14 -3 -52 44 -52c43 0 42 35 42 48v30h181v-29zM302 323v65c0 15 -2 46 -44 46c-43 0 -45 -29 -45 -47v-64h89z" />
    <glyph glyph-name="f" unicode="f" horiz-adv-x="354" 
d="M360 605h-38c-39 0 -53 -7 -53 -49v-23h85v-102h-85v-431h-188v430h-81v103h81v42c0 36 3 75 32 102c30 28 67 29 105 29h142v-101z" />
    <glyph glyph-name="g" unicode="g" 
d="M489 -49c0 -31 0 -67 -12 -96c-8 -19 -27 -49 -72 -70c-31 -15 -69 -26 -142 -26c-6 0 -164 -7 -214 84c-18 32 -18 64 -18 100h180v-17c0 -31 11 -47 46 -47c46 0 45 31 45 48v130c-10 -15 -16 -23 -22 -28c-39 -39 -92 -40 -109 -40c-11 0 -59 0 -94 25
c-55 40 -53 118 -53 177v180c0 59 1 120 60 153c33 19 70 20 82 20c42 0 89 -14 118 -47c7 -8 12 -17 18 -26v62h187v-582zM302 155v227c0 20 -1 47 -47 47c-3 0 -15 0 -25 -5c-21 -10 -19 -39 -19 -43v-227c0 -18 1 -47 46 -47c46 0 45 29 45 48z" />
    <glyph glyph-name="h" unicode="h" 
d="M488 0h-188v398c0 17 -1 43 -40 43c-41 0 -42 -32 -42 -45v-396h-188v706h188v-225c11 14 10 13 18 22c40 40 91 41 110 41c40 0 65 -13 79 -21c58 -35 63 -87 63 -149v-374z" />
    <glyph glyph-name="i" unicode="i" horiz-adv-x="250" 
d="M219 580h-189v126h189v-126zM219 0h-189v533h189v-533z" />
    <glyph glyph-name="j" unicode="j" horiz-adv-x="250" 
d="M218 580h-188v126h188v-126zM219 -44c0 -37 2 -82 -23 -111c-28 -33 -71 -34 -110 -34h-114v97c8 0 17 0 25 1c29 2 33 18 33 44v580h189v-577z" />
    <glyph glyph-name="k" unicode="k" 
d="M522 0h-198l-112 254v-254h-182v706h182v-393l102 220h184l-127 -242z" />
    <glyph glyph-name="l" unicode="l" horiz-adv-x="250" 
d="M219 0h-188v706h188v-706z" />
    <glyph glyph-name="m" unicode="m" horiz-adv-x="792" 
d="M758 0h-188v380c0 25 -9 44 -38 44c-42 0 -42 -33 -42 -46v-378h-189v381c0 12 -1 46 -42 46c-7 0 -32 -1 -39 -26c-2 -7 -2 -13 -2 -20v-381h-188v533h188v-63c29 48 70 64 91 69c8 2 21 4 40 4c16 0 65 0 102 -35c19 -18 26 -34 31 -44c17 26 50 78 131 78
c89 0 126 -47 138 -83c7 -19 7 -39 7 -59v-400z" />
    <glyph glyph-name="n" unicode="n" 
d="M489 0h-190v381c0 11 3 50 -40 50c-41 0 -40 -40 -40 -50v-381h-189v533h189v-53c8 10 18 25 44 41c14 9 40 23 82 23c15 0 49 -1 83 -22c60 -37 61 -96 61 -158v-364z" />
    <glyph glyph-name="o" unicode="o" 
d="M495 170c0 -5 1 -41 -4 -66c-23 -104 -133 -116 -218 -116c-71 0 -177 3 -223 66c-28 39 -25 97 -25 107v215c0 45 2 84 36 118c8 8 22 20 46 31c54 23 137 22 146 22c17 0 45 0 85 -6c11 -2 99 -11 136 -67c20 -30 21 -65 21 -100v-204zM308 167v204c0 18 -1 52 -49 52
c-35 0 -47 -18 -47 -49v-209c0 -16 -2 -56 49 -56s47 43 47 58z" />
    <glyph glyph-name="p" unicode="p" 
d="M496 154c0 -43 -1 -86 -31 -122c-38 -46 -94 -45 -112 -45c-17 0 -59 -1 -97 27c-4 3 -13 9 -21 19c-7 8 -16 24 -17 25v-227h-188v702h188v-66c4 8 11 21 16 28c15 21 51 49 114 49c88 0 126 -43 139 -80c6 -18 9 -32 9 -67v-243zM307 152v226c0 16 0 49 -46 49
c-44 0 -43 -37 -43 -51v-226c0 -14 1 -48 44 -48c46 0 45 33 45 50z" />
    <glyph glyph-name="q" unicode="q" 
d="M490 -168h-188v232c-16 -29 -50 -75 -132 -75c-19 0 -88 0 -124 58c-22 35 -22 63 -22 137v180c0 15 0 29 1 44c6 83 43 113 81 126c13 5 33 10 64 10c18 0 78 0 116 -47c7 -8 11 -16 16 -25v61h188v-701zM302 154v225c0 19 0 49 -46 49c-11 0 -16 -1 -21 -3
c-20 -8 -22 -28 -22 -45v-229c0 -16 -1 -47 42 -47c46 0 47 33 47 50z" />
    <glyph glyph-name="r" unicode="r" horiz-adv-x="333" 
d="M333 367c-16 0 -52 1 -70 -3c-39 -9 -44 -42 -44 -76v-288h-189v533h189v-83c7 11 13 22 21 32c33 45 72 54 93 58v-173z" />
    <glyph glyph-name="s" unicode="s" horiz-adv-x="479" 
d="M471 150c0 -145 -134 -164 -228 -164c-61 0 -195 0 -227 101c-7 20 -7 45 -7 65v7h189v-27c0 -12 -1 -47 42 -47c17 0 40 5 40 42c0 14 -4 19 -10 26c-10 11 -62 31 -105 51c-96 44 -148 74 -148 177c0 29 3 67 24 96c35 47 109 66 205 66c102 0 176 -25 203 -81
c10 -20 11 -40 11 -60v-31h-180v24c0 13 1 49 -43 49c-34 0 -39 -27 -39 -38c0 -36 23 -42 71 -63c97 -43 162 -73 188 -122c8 -14 14 -37 14 -71z" />
    <glyph glyph-name="t" unicode="t" horiz-adv-x="354" 
d="M353 0h-138c-41 0 -80 2 -109 36c-25 29 -26 60 -26 96v298h-80v103h80v173h184v-173h84v-103h-84v-275c0 -30 9 -45 47 -46l42 -1v-108z" />
    <glyph glyph-name="u" unicode="u" 
d="M489 0h-189v54c-11 -13 -16 -20 -28 -30c-30 -26 -68 -36 -106 -36c-88 0 -117 57 -127 90c-6 19 -8 38 -8 79v376h188v-388c0 -27 5 -38 16 -46c5 -3 12 -6 24 -6s20 3 24 6c16 10 17 30 17 47v387h189v-533z" />
    <glyph glyph-name="v" unicode="v" horiz-adv-x="479" 
d="M479 533l-124 -533h-226l-130 533h187l54 -381l54 381h185z" />
    <glyph glyph-name="w" unicode="w" horiz-adv-x="750" 
d="M750 533l-106 -533h-210l-62 345l-64 -345h-210l-99 533h188l36 -372l61 372h183l54 -372l44 372h185z" />
    <glyph glyph-name="x" unicode="x" horiz-adv-x="500" 
d="M495 0h-186l-61 185l-57 -185h-189l123 272l-112 261h185l50 -173l61 173h186l-123 -261z" />
    <glyph glyph-name="y" unicode="y" horiz-adv-x="500" 
d="M499 533l-148 -527c-27 -96 -42 -136 -83 -169c-47 -39 -94 -41 -151 -41h-83l5 117h41c11 0 47 -2 69 30c5 7 7 11 12 26l-161 564h187l65 -324l62 324h185z" />
    <glyph glyph-name="z" unicode="z" horiz-adv-x="458" 
d="M434 0h-419v108l193 318h-157v107h375v-107l-200 -318h208v-108z" />
    <glyph glyph-name="braceleft" unicode="{" horiz-adv-x="354" 
d="M339 -145h-17c-62 0 -93 2 -119 10c-70 21 -97 68 -97 169v93c0 36 -1 64 -5 84c-3 19 -17 42 -31 53c-11 10 -24 15 -42 16v74l5 1c58 12 75 47 74 158l-1 86c-1 71 10 107 38 136c12 12 25 21 39 26c38 15 66 18 156 18v-70c-26 -3 -35 -6 -47 -17
c-16 -15 -21 -34 -21 -75v-95v-40c0 -58 -10 -99 -31 -123c-18 -21 -38 -30 -79 -39v-6c33 -8 45 -12 61 -23c37 -27 50 -68 50 -162v-100c0 -49 3 -66 16 -82c12 -14 29 -22 51 -22v-70z" />
    <glyph glyph-name="bar" unicode="|" horiz-adv-x="247" 
d="M203 -144h-159v923h159v-923z" />
    <glyph glyph-name="braceright" unicode="}" horiz-adv-x="354" 
d="M325 281l-5 -1c-57 -11 -73 -47 -73 -158v-86c0 -71 -10 -107 -38 -136c-11 -12 -25 -21 -39 -26c-38 -15 -65 -18 -155 -19v71c26 2 35 6 47 17c15 15 21 33 21 75v94v41c0 58 10 99 31 123c18 20 37 30 79 39v6c-34 8 -46 12 -61 23c-38 27 -50 68 -50 162v100
c0 49 -4 66 -17 82c-12 14 -28 21 -50 22v70h16c62 0 94 -2 120 -10c69 -20 96 -68 96 -169v-93c0 -37 2 -65 6 -84c3 -19 16 -42 30 -54c12 -9 25 -14 42 -16v-73z" />
    <glyph glyph-name="asciitilde" unicode="~" horiz-adv-x="559" 
d="M502 267c-49 -50 -87 -70 -130 -70c-24 0 -45 6 -87 27l-24 12c-32 16 -52 21 -71 21c-32 0 -50 -11 -83 -50l-50 142c23 24 31 32 47 44c25 19 50 27 79 27c11 0 21 -1 30 -4c12 -3 34 -12 52 -20l44 -20c33 -15 44 -18 59 -18c25 0 51 15 84 48z" />
    <glyph glyph-name="exclamdown" unicode="&#xa1;" horiz-adv-x="292" 
d="M213 555h-176v151h176v-151zM213 0h-176v174l27 306h123l26 -300v-180z" />
    <glyph glyph-name="cent" unicode="&#xa2;" horiz-adv-x="500" 
d="M479 155c0 -23 -1 -46 -9 -68c-37 -94 -166 -97 -168 -97v-142h-111v144c-7 2 -34 5 -57 12c-116 37 -111 123 -111 154v207c0 6 -2 49 10 80c28 72 109 93 158 98v118h111v-119c84 -8 139 -46 160 -92c10 -23 10 -44 10 -66v-56h-180v53c0 13 2 43 -39 43
c-40 0 -42 -28 -42 -43v-223c0 -10 -3 -48 40 -48c32 0 41 16 41 44v38h187v-37z" />
    <glyph glyph-name="sterling" unicode="&#xa3;" horiz-adv-x="625" 
d="M610 155c0 -9 -1 -18 -2 -27c-1 -14 -3 -81 -50 -117c-13 -10 -39 -23 -79 -23c-58 0 -111 27 -162 53c-7 -6 -17 -15 -25 -20c-19 -13 -64 -36 -127 -36c-68 0 -102 23 -122 46c-10 12 -23 31 -23 68c0 67 43 115 112 114c26 0 46 -7 71 -15c-6 31 -13 50 -40 100h-131
v108h74c-9 21 -34 72 -34 138c0 75 31 110 56 130c32 24 84 44 173 44c111 0 178 -35 206 -76c22 -32 24 -65 24 -101v-72h-178v73c0 17 -1 55 -51 55c-7 0 -40 -1 -52 -29c-2 -4 -4 -13 -4 -26c0 -56 43 -130 46 -136h194v-108h-142c16 -41 28 -74 28 -120
c0 -12 -1 -26 -6 -53c17 -4 23 -5 32 -5c41 1 44 38 44 68v48h168v-81zM195 108c-14 8 -28 17 -46 17c-15 0 -33 -10 -33 -27c0 -18 20 -26 35 -26c31 1 41 27 44 36z" />
    <glyph glyph-name="yen" unicode="&#xa5;" horiz-adv-x="562" 
d="M558 706l-106 -285h82v-100h-118l-22 -59h140v-100h-152v-162h-197v162h-156v100h142l-21 59h-121v100h83l-112 285h197l86 -309l82 309h193z" />
    <glyph glyph-name="florin" unicode="&#x192;" horiz-adv-x="437" 
d="M435 706l-13 -101h-37c-38 0 -54 -6 -60 -49l-4 -29h86l-12 -98h-86l-55 -442c-8 -63 -25 -114 -101 -129c-23 -5 -44 -3 -51 -3h-143l12 101h38c38 0 55 6 60 49l53 424h-82l13 98h81l6 48c3 22 5 109 100 128c23 5 45 3 52 3h143z" />
    <glyph glyph-name="section" unicode="&#xa7;" horiz-adv-x="458" 
d="M439 352c0 -43 -21 -80 -58 -102c-10 -6 -23 -10 -35 -13c46 -26 80 -55 80 -113c0 -104 -102 -135 -189 -135c-86 0 -154 23 -228 63l62 105c32 -17 106 -62 142 -62c19 0 37 10 37 31c0 24 -38 42 -56 52c-26 15 -53 30 -79 45c-48 28 -100 57 -100 119
c0 61 42 102 98 118c-47 28 -83 50 -83 110c0 103 98 145 188 145c77 0 131 -25 197 -58l-61 -103c-26 13 -97 52 -125 52c-17 0 -33 -10 -33 -28c0 -27 42 -45 62 -56c26 -15 51 -29 77 -44c50 -29 104 -60 104 -126zM322 315c0 11 -4 19 -11 27c-8 10 -120 73 -138 84
c-17 -10 -34 -23 -34 -45c0 -31 41 -48 64 -61l84 -49c18 8 35 22 35 44z" />
    <glyph glyph-name="currency" unicode="&#xa4;" horiz-adv-x="679" 
d="M670 115l-119 -116l-80 85c-49 -25 -85 -34 -132 -34c-50 0 -87 10 -131 34l-82 -84l-117 118l82 84c-24 44 -33 84 -33 136s10 95 34 137l-83 83l116 118l83 -82c38 23 81 34 132 34c49 0 84 -9 131 -33l83 83l116 -119l-82 -82c23 -48 33 -90 33 -137
c0 -48 -10 -89 -34 -138zM451 338c0 71 -49 126 -111 126c-63 0 -112 -55 -112 -125s49 -124 112 -124c62 0 111 55 111 123z" />
    <glyph glyph-name="quotesingle" unicode="'" horiz-adv-x="153" 
d="M145 741l-49 -288h-40l-49 288h138z" />
    <glyph glyph-name="quotedblleft" unicode="&#x201c;" horiz-adv-x="458" 
d="M421 389h-176v162l95 155h66l-56 -155h71v-162zM210 389h-176v162l93 155h64l-53 -155h72v-162z" />
    <glyph glyph-name="guillemotleft" unicode="&#xab;" horiz-adv-x="375" 
d="M354 89l-160 132v145l160 132v-155l-62 -50l62 -50v-154zM171 91l-158 129v147l158 129v-155l-61 -48l61 -50v-152z" />
    <glyph glyph-name="guilsinglleft" unicode="&#x2039;" horiz-adv-x="187" 
d="M169 91l-158 129v147l158 129v-155l-61 -48l61 -50v-152z" />
    <glyph glyph-name="guilsinglright" unicode="&#x203a;" horiz-adv-x="187" 
d="M175 218l-160 -131v153l62 50l-62 51v154l160 -132v-145z" />
    <glyph glyph-name="endash" unicode="&#x2013;" horiz-adv-x="546" 
d="M516 232h-487v137h487v-137z" />
    <glyph glyph-name="dagger" unicode="&#x2020;" 
d="M512 383h-156v-383h-193v383h-156v150h156v173h193v-173h156v-150z" />
    <glyph glyph-name="daggerdbl" unicode="&#x2021;" horiz-adv-x="542" 
d="M522 132h-153v-132h-195v132h-156v151h156v144h-156v151h156v128h195v-128h153v-151h-153v-144h153v-151z" />
    <glyph glyph-name="periodcentered" unicode="&#xb7;" horiz-adv-x="250" 
d="M211 268h-174v164h174v-164z" />
    <glyph glyph-name="paragraph" unicode="&#xb6;" horiz-adv-x="580" 
d="M525 612h-36v-780h-103v780h-77v-779h-103v468c-105 27 -159 94 -159 196c0 56 18 105 53 141c47 49 104 68 209 68h216v-94z" />
    <glyph glyph-name="bullet" unicode="&#x2022;" horiz-adv-x="333" 
d="M295 218h-257v257h257v-257z" />
    <glyph glyph-name="quotesinglbase" unicode="&#x201a;" horiz-adv-x="250" 
d="M212 0l-87 -155h-63l46 155h-71v165h175v-165z" />
    <glyph glyph-name="quotedblbase" unicode="&#x201e;" horiz-adv-x="458" 
d="M421 0l-92 -154h-65l54 154h-73v164h176v-164zM210 0l-95 -154h-66l56 154h-71v164h176v-164z" />
    <glyph glyph-name="quotedblright" unicode="&#x201d;" horiz-adv-x="458" 
d="M421 544l-89 -154h-66l53 154h-74v162h176v-162zM211 544l-86 -154h-67l52 154h-76v162h177v-162z" />
    <glyph glyph-name="guillemotright" unicode="&#xbb;" horiz-adv-x="375" 
d="M360 217l-158 -130v154l60 49l-60 51v152l158 -129v-147zM179 218l-160 -131v153l61 50l-61 51v154l160 -132v-145z" />
    <glyph glyph-name="ellipsis" unicode="&#x2026;" horiz-adv-x="1000" 
d="M901 0h-136v145h136v-145zM569 0h-135v145h135v-145zM234 0h-135v145h135v-145z" />
    <glyph glyph-name="perthousand" unicode="&#x2030;" horiz-adv-x="1188" 
d="M1163 127c0 -32 0 -45 -5 -61c-17 -53 -65 -75 -146 -74c-70 1 -115 17 -139 55c-16 26 -14 65 -14 68v206s-1 34 5 53c24 71 101 74 148 74c74 0 123 -20 143 -62c11 -22 8 -56 8 -58v-201zM808 127c0 -32 0 -45 -5 -61c-17 -53 -65 -75 -146 -74c-70 1 -115 17 -139 55
c-16 26 -14 65 -14 68v206s-1 34 5 53c24 71 101 73 148 73c74 0 123 -19 143 -61c11 -22 8 -56 8 -58v-201zM572 706l-215 -706h-96l216 706h95zM330 392c0 -32 0 -45 -5 -61c-17 -53 -66 -75 -147 -74c-70 1 -114 17 -138 55c-16 26 -15 65 -15 68v206s-1 34 5 53
c24 71 101 74 148 74c74 0 123 -20 143 -62c11 -22 9 -56 9 -58v-201zM1045 96v245c0 31 -23 35 -34 34c-29 -1 -34 -17 -34 -40v-238c0 -13 5 -30 34 -31c8 0 34 -1 34 30zM690 96v245c0 31 -23 35 -34 34c-29 -1 -34 -17 -34 -40v-238c0 -13 5 -30 34 -31c8 0 34 -1 34 30
zM212 361v247c0 31 -24 33 -35 32c-29 -1 -33 -17 -33 -40v-238c0 -13 6 -32 33 -32c10 0 35 0 35 31z" />
    <glyph glyph-name="questiondown" unicode="&#xbf;" horiz-adv-x="479" 
d="M355 552h-174v154h174v-154zM400 146c0 -28 -2 -55 -16 -80c-21 -40 -76 -75 -175 -75c-110 0 -168 36 -190 84c-13 28 -12 63 -12 71c0 32 5 51 11 64c13 32 31 52 81 96c17 16 36 31 52 48c1 1 18 16 25 30c6 12 5 29 5 32v60h174v-37c0 -2 0 -32 -3 -50
c-8 -47 -38 -78 -71 -111c-10 -10 -20 -19 -30 -29c-18 -17 -36 -34 -54 -52c-17 -17 -30 -31 -30 -57c0 -34 27 -42 39 -42c3 0 12 2 20 6c20 11 19 31 19 38v35h155v-31z" />
    <glyph glyph-name="grave" unicode="`" horiz-adv-x="271" 
d="M276 572h-151l-130 124h203z" />
    <glyph glyph-name="acute" unicode="&#xb4;" horiz-adv-x="271" 
d="M276 696l-131 -124h-150l77 124h204z" />
    <glyph glyph-name="circumflex" unicode="&#x2c6;" horiz-adv-x="271" 
d="M320 574h-146l-37 53l-39 -53h-147l89 122h190z" />
    <glyph glyph-name="tilde" unicode="&#x2dc;" horiz-adv-x="271" 
d="M310 693c0 -3 0 -21 -2 -33c-6 -35 -23 -53 -34 -63c-29 -24 -58 -24 -72 -24c-40 0 -78 14 -89 18c-27 9 -43 14 -59 14c-25 0 -30 -20 -33 -28l-59 1c0 18 0 25 2 35c13 52 57 82 109 82c22 0 48 -4 92 -18c17 -5 38 -12 56 -12c27 1 31 18 33 28h56z" />
    <glyph glyph-name="macron" unicode="&#xaf;" horiz-adv-x="271" 
d="M302 574h-333v85h333v-85z" />
    <glyph glyph-name="dieresis" unicode="&#xa8;" horiz-adv-x="271" 
d="M341 574h-172v122h172v-122zM102 574h-172v122h172v-122z" />
    <glyph glyph-name="cedilla" unicode="&#xb8;" horiz-adv-x="271" 
d="M248 -103c0 -30 -13 -52 -35 -70s-57 -37 -122 -37c-12 0 -24 1 -37 3l-18 52c7 -2 17 -6 34 -6c36 0 49 18 48 36c0 28 -24 33 -32 33c-14 0 -29 -8 -40 -15l-23 44l102 105h97l-67 -76c4 0 24 2 40 -2c33 -7 53 -34 53 -67z" />
    <glyph glyph-name="emdash" unicode="&#x2014;" horiz-adv-x="729" 
d="M700 232h-671v137h671v-137z" />
    <glyph glyph-name="AE" unicode="&#xc6;" horiz-adv-x="792" 
d="M777 0h-379v189h-138l-61 -189h-200l257 706h521v-135h-187v-147h175v-134h-175v-157h187v-133zM398 315v285l-95 -285h95z" />
    <glyph glyph-name="ordfeminine" unicode="&#xaa;" horiz-adv-x="354" 
d="M346 357h-149v29c-18 -19 -45 -36 -89 -36c-73 0 -85 41 -85 101c0 73 36 89 100 106c49 13 39 8 74 23v20c0 7 1 27 -23 27s-24 -20 -24 -27v-20h-113v20c0 7 -5 51 31 81c20 16 62 28 113 28c80 0 127 -21 140 -74c4 -14 3 -24 3 -50v-175c0 -28 7 -42 22 -53zM197 448
v70c-34 -15 -50 -14 -50 -42c0 -32 -4 -56 22 -56c27 0 28 17 28 28z" />
    <glyph glyph-name="Oslash" unicode="&#xd8;" horiz-adv-x="562" 
d="M551 681l-40 -58c2 -7 6 -13 8 -19c9 -24 9 -52 9 -105v-277c0 -63 3 -134 -50 -179c-36 -31 -88 -53 -189 -53c-76 0 -120 10 -152 24c-12 5 -23 11 -34 18l-34 -47l-56 39l40 59c-2 3 -7 14 -11 27c-8 31 -10 72 -10 141v263c0 36 1 69 16 103c28 61 100 101 235 101
c65 0 114 -13 137 -22c14 -6 29 -15 42 -22l32 46zM335 490v35c0 19 0 56 -53 56c-55 0 -53 -42 -53 -61v-184zM335 181v187l-106 -153v-40c0 -20 1 -54 52 -54c56 0 54 41 54 60z" />
    <glyph glyph-name="OE" unicode="&#x152;" horiz-adv-x="729" 
d="M711 0h-382l-1 29c-7 -6 -14 -14 -22 -18c-16 -9 -50 -21 -96 -21c-92 0 -135 35 -156 71c-23 38 -26 75 -26 159v292c0 31 0 75 9 105c14 46 57 101 165 101c49 0 84 -12 101 -21c11 -5 25 -17 26 -17v26h382v-139h-184v-140h170v-136h-170v-155h184v-136zM331 165v373
c0 20 2 61 -53 61c-52 0 -49 -45 -49 -60v-379c0 -18 1 -37 17 -48c6 -4 16 -8 32 -8c55 0 53 42 53 61z" />
    <glyph glyph-name="ordmasculine" unicode="&#xba;" horiz-adv-x="354" 
d="M330 461c0 -74 -32 -113 -147 -113c-87 0 -140 13 -156 74c-4 17 -3 45 -3 46v126c0 25 2 41 6 52c19 49 68 64 145 65c71 0 122 -16 144 -53c10 -16 11 -35 11 -50v-147zM203 468v121c0 17 1 36 -26 36s-28 -18 -28 -36v-121c0 -21 2 -36 28 -36c27 0 26 18 26 36z" />
    <glyph glyph-name="ae" unicode="&#xe6;" horiz-adv-x="771" 
d="M750 150c0 -8 0 -15 -1 -23c-1 -14 -2 -41 -24 -70c-31 -40 -90 -69 -198 -69c-11 0 -84 1 -136 19c-18 6 -33 13 -48 24c-16 12 -23 22 -29 29c-28 -25 -75 -74 -169 -74c-130 0 -126 100 -126 143c0 19 0 39 2 58c3 37 10 79 86 104c42 13 86 21 129 31
c20 5 41 11 61 18v41c0 14 -1 46 -43 46c-41 0 -41 -37 -41 -48v-31h-175v40c0 36 4 50 11 67c22 51 77 89 189 89c65 0 105 -16 128 -32c6 -5 12 -10 23 -21c14 13 16 14 25 21c25 17 65 32 132 32c68 0 157 -15 189 -86c14 -31 15 -70 15 -103v-116h-268v-77
c0 -17 -2 -53 46 -53s44 40 44 54v26h178v-39zM572 321v62c0 13 1 49 -44 49c-34 0 -46 -18 -46 -48v-63h90zM297 155v101c-18 -7 -43 -16 -43 -16c-23 -8 -41 -24 -45 -36c-3 -9 -4 -27 -4 -51c0 -7 0 -13 1 -20c1 -11 6 -39 41 -39c9 0 36 2 46 29c4 11 4 21 4 32z" />
    <glyph glyph-name="oslash" unicode="&#xf8;" 
d="M504 507l-34 -40c18 -29 23 -43 23 -101v-175c0 -55 0 -114 -46 -153c-45 -38 -126 -49 -183 -49c-16 0 -82 1 -137 22c-13 5 -26 12 -39 19l-35 -40l-46 40l35 42c-13 27 -16 40 -16 92v201c0 57 4 103 56 138c49 34 117 40 175 40c89 0 126 -16 166 -36l34 40zM311 381
c0 2 1 16 -1 26c-3 18 -13 36 -51 36c-52 0 -51 -40 -51 -57v-125zM311 151v135l-103 -121v-27c0 -19 3 -48 50 -48c55 0 53 42 53 61z" />
    <glyph glyph-name="oe" unicode="&#x153;" horiz-adv-x="771" 
d="M749 150c0 -7 2 -52 -14 -83c-20 -41 -79 -78 -180 -78c-65 0 -103 14 -128 28c-11 6 -19 12 -37 28c-1 -1 -16 -15 -26 -23c-22 -16 -64 -37 -132 -37c-6 0 -28 0 -50 3c-19 3 -113 13 -145 92c-12 30 -12 63 -12 95v194c0 10 -2 49 13 82c42 92 181 90 193 90
c45 0 91 -9 129 -32c9 -5 22 -16 31 -22c9 8 16 16 26 23c23 16 64 34 129 34c104 0 163 -38 186 -80c16 -29 17 -64 17 -97v-129h-267v-78c0 -12 -3 -55 42 -55c48 1 46 38 46 54v27h179v-36zM570 321v61c0 18 -1 48 -46 48c-42 0 -42 -36 -42 -48v-61h88zM294 158v218
c0 16 -2 31 -17 41c-4 2 -13 6 -25 6c-42 0 -42 -33 -42 -47v-220c0 -16 2 -32 16 -43c5 -3 12 -7 25 -7c46 0 43 40 43 52z" />
    <glyph glyph-name="germandbls" unicode="&#xdf;" 
d="M503 155c0 -38 1 -76 -24 -109c-39 -54 -113 -50 -128 -50c-32 0 -65 2 -97 5v76c2 0 25 -2 40 2c32 9 28 47 28 53v157c0 3 2 22 -7 36c-11 18 -39 15 -61 15v109c27 0 39 3 46 15c4 6 5 13 5 28v64c0 12 2 51 -43 51c-5 0 -33 0 -41 -24c-2 -5 -3 -10 -3 -21v-562h-188
v540c0 44 3 61 12 83c25 57 88 95 213 95c11 0 52 -1 90 -7c16 -3 99 -15 130 -81c7 -15 11 -27 11 -59v-77c0 -17 4 -66 -44 -91c-11 -6 -21 -9 -26 -11c25 -8 42 -15 61 -34c19 -20 26 -40 26 -90v-113z" />
    <glyph glyph-name="Ydieresis" unicode="&#x178;" horiz-adv-x="562" 
d="M481 756h-165v111h165v-111zM246 756h-166v111h166v-111zM558 706l-176 -479v-227h-197v227l-185 479h197l85 -306l83 306h193z" />
    <glyph glyph-name="trademark" unicode="&#x2122;" horiz-adv-x="686" 
d="M633 706l-1 -332h-97l10 228l-47 -228h-74l-49 225l8 -225h-96v332h125l49 -201l43 201h129zM269 625h-76v-251h-103v251h-77v81h256v-81z" />
    <glyph glyph-name="scaron" unicode="&#x161;" horiz-adv-x="479" 
d="M424 696l-90 -121h-189l-88 121h144l38 -52l39 52h146zM471 150c0 -145 -134 -164 -228 -164c-61 0 -194 0 -227 101c-7 20 -7 45 -7 65v7h189v-27c0 -12 -1 -47 42 -47c17 0 40 5 40 42c0 14 -4 19 -10 26c-10 11 -62 31 -105 51c-96 44 -148 74 -148 177
c0 29 3 67 24 96c35 47 109 66 205 66c102 0 176 -25 203 -81c10 -20 11 -40 11 -60v-31h-180v24c0 13 1 49 -43 49c-34 0 -39 -27 -39 -38c0 -36 23 -42 71 -63c97 -43 162 -73 188 -122c8 -14 14 -37 14 -71z" />
    <glyph glyph-name="Scaron" unicode="&#x160;" 
d="M437 868l-77 -110h-202l-75 110h148l30 -46l28 46h148zM502 186c0 -36 -4 -75 -23 -108c-41 -73 -141 -89 -216 -89c-17 0 -54 0 -98 8c-20 3 -94 15 -129 78c-21 38 -21 81 -21 125v27h193v-47c0 -32 12 -57 50 -57c9 0 18 2 26 7c15 9 20 22 20 52c0 36 -12 46 -59 80
l-124 89c-86 62 -92 107 -92 168c0 50 7 77 17 98c39 84 138 101 219 101c20 0 114 1 177 -53c7 -6 26 -24 37 -49c12 -27 15 -53 15 -99v-34h-185v47c0 14 0 15 -3 23c-6 20 -23 29 -43 29c-40 0 -44 -33 -44 -46c0 -11 2 -18 8 -27c9 -15 34 -29 67 -54l97 -73
c17 -13 34 -27 50 -41c32 -30 61 -65 61 -155z" />
    <glyph glyph-name="ydieresis" unicode="&#xff;" horiz-adv-x="500" 
d="M455 574h-171v122h171v-122zM216 574h-171v122h171v-122zM499 533l-148 -527c-27 -96 -42 -136 -83 -169c-47 -39 -94 -41 -151 -41h-83l5 117h41c11 0 47 -2 69 30c5 7 7 11 12 26l-161 564h187l65 -324l62 324h185z" />
    <glyph glyph-name="thorn" unicode="&#xfe;" 
d="M496 155c0 -40 6 -168 -144 -168c-35 0 -80 6 -115 44c-6 6 -14 20 -19 27v-227h-188v875h190v-237c4 9 10 21 18 31c20 25 57 44 110 44c81 0 124 -36 140 -82c9 -25 8 -61 8 -65v-242zM307 152v225c0 15 1 50 -44 50c-47 0 -45 -37 -45 -51v-226c0 -15 1 -48 45 -48
c46 0 44 37 44 50z" />
    <glyph glyph-name="yacute" unicode="&#xfd;" horiz-adv-x="500" 
d="M451 696l-131 -124h-149l77 124h203zM499 533l-148 -526c-9 -32 -26 -94 -45 -126c-50 -82 -124 -85 -189 -85h-83l5 117h40c38 0 66 7 82 56l-161 564h187l65 -324l62 324h185z" />
    <glyph glyph-name="udieresis" unicode="&#xfc;" 
d="M462 574h-172v122h172v-122zM222 574h-170v122h170v-122zM489 0h-189v54c-11 -13 -16 -20 -28 -30c-30 -26 -68 -36 -106 -36c-88 0 -117 57 -127 90c-6 19 -8 38 -8 79v376h188v-388c0 -27 5 -38 16 -46c5 -3 12 -6 24 -6s20 3 24 6c16 10 17 30 17 47v387h189v-533z
" />
    <glyph glyph-name="ucircumflex" unicode="&#xfb;" 
d="M444 574h-145l-38 53l-39 -53h-146l90 122h189zM489 0h-189v54c-11 -13 -16 -20 -28 -30c-30 -26 -68 -36 -106 -36c-88 0 -117 57 -127 90c-6 19 -8 38 -8 79v376h188v-388c0 -27 5 -38 16 -46c5 -3 12 -6 24 -6s20 3 24 6c16 10 17 30 17 47v387h189v-533z" />
    <glyph glyph-name="uacute" unicode="&#xfa;" 
d="M462 696l-132 -124h-148l76 124h204zM489 0h-189v54c-11 -13 -16 -20 -28 -30c-30 -26 -68 -36 -106 -36c-88 0 -117 57 -127 90c-6 19 -8 38 -8 79v376h188v-388c0 -27 5 -38 16 -46c5 -3 12 -6 24 -6s20 3 24 6c16 10 17 30 17 47v387h189v-533z" />
    <glyph glyph-name="ugrave" unicode="&#xf9;" 
d="M348 572h-151l-130 124h203zM489 0h-189v54c-11 -13 -16 -20 -28 -30c-30 -26 -68 -36 -106 -36c-88 0 -117 57 -127 90c-6 19 -8 38 -8 79v376h188v-388c0 -27 5 -38 16 -46c5 -3 12 -6 24 -6s20 3 24 6c16 10 17 30 17 47v387h189v-533z" />
    <glyph glyph-name="divide" unicode="&#xf7;" horiz-adv-x="559" 
d="M361 426h-162v170h162v-170zM492 227h-426v147h426v-147zM361 6h-162v170h162v-170z" />
    <glyph glyph-name="odieresis" unicode="&#xf6;" 
d="M465 575h-172v122h172v-122zM225 575h-171v122h171v-122zM495 170c0 -5 1 -41 -4 -66c-23 -104 -133 -116 -218 -116c-10 0 -60 1 -101 6c-13 2 -85 10 -122 60c-28 39 -25 97 -25 107v215c0 45 2 84 36 118c8 8 22 20 46 31c54 23 137 22 146 22c17 0 45 0 85 -6
c11 -2 99 -11 136 -67c20 -30 21 -65 21 -100v-204zM308 167v204c0 18 -1 52 -49 52c-7 0 -35 0 -44 -25c-3 -8 -3 -16 -3 -24v-209c0 -16 -2 -56 49 -56s47 43 47 58z" />
    <glyph glyph-name="otilde" unicode="&#xf5;" 
d="M434 693c0 -3 -1 -21 -3 -33c-6 -35 -22 -53 -34 -63c-29 -24 -57 -24 -72 -24c-40 0 -78 14 -89 18c-27 9 -43 14 -59 14c-24 0 -30 -20 -33 -28l-59 1c1 18 2 25 4 35c13 52 56 82 109 82c22 0 47 -4 91 -18c16 -5 39 -12 56 -12c28 1 31 18 33 28h56zM495 170
c0 -5 1 -41 -4 -66c-23 -104 -133 -116 -218 -116c-10 0 -60 1 -101 6c-13 2 -85 10 -122 60c-28 39 -25 97 -25 107v215c0 45 2 84 36 118c8 8 22 20 46 31c54 23 137 22 146 22c17 0 45 0 85 -6c11 -2 99 -11 136 -67c20 -30 21 -65 21 -100v-204zM308 167v204
c0 18 -1 52 -49 52c-7 0 -35 0 -44 -25c-3 -8 -3 -16 -3 -24v-209c0 -16 -2 -56 49 -56s47 43 47 58z" />
    <glyph glyph-name="ocircumflex" unicode="&#xf4;" 
d="M444 574h-145l-38 53l-39 -53h-146l90 122h189zM495 170c0 -5 1 -41 -4 -66c-23 -104 -133 -116 -218 -116c-10 0 -60 1 -101 6c-13 2 -85 10 -122 60c-28 39 -25 97 -25 107v215c0 45 2 84 36 118c8 8 22 20 46 31c54 23 137 22 146 22c17 0 45 0 85 -6
c11 -2 99 -11 136 -67c20 -30 21 -65 21 -100v-204zM308 167v204c0 18 -1 52 -49 52c-7 0 -35 0 -44 -25c-3 -8 -3 -16 -3 -24v-209c0 -16 -2 -56 49 -56s47 43 47 58z" />
    <glyph glyph-name="oacute" unicode="&#xf3;" 
d="M462 696l-132 -124h-148l76 124h204zM495 170c0 -5 1 -41 -4 -66c-23 -104 -133 -116 -218 -116c-10 0 -60 1 -101 6c-13 2 -85 10 -122 60c-28 39 -25 97 -25 107v215c0 45 2 84 36 118c8 8 22 20 46 31c54 23 137 22 146 22c17 0 45 0 85 -6c11 -2 99 -11 136 -67
c20 -30 21 -65 21 -100v-204zM308 167v204c0 18 -1 52 -49 52c-7 0 -35 0 -44 -25c-3 -8 -3 -16 -3 -24v-209c0 -16 -2 -56 49 -56s47 43 47 58z" />
    <glyph glyph-name="ograve" unicode="&#xf2;" 
d="M348 572h-151l-130 124h203zM495 170c0 -5 1 -41 -4 -66c-23 -104 -133 -116 -218 -116c-10 0 -60 1 -101 6c-13 2 -85 10 -122 60c-28 39 -25 97 -25 107v215c0 45 2 84 36 118c8 8 22 20 46 31c54 23 137 22 146 22c17 0 45 0 85 -6c11 -2 99 -11 136 -67
c20 -30 21 -65 21 -100v-204zM308 167v204c0 18 -1 52 -49 52c-7 0 -35 0 -44 -25c-3 -8 -3 -16 -3 -24v-209c0 -16 -2 -56 49 -56s47 43 47 58z" />
    <glyph glyph-name="ntilde" unicode="&#xf1;" 
d="M434 693c0 -3 -1 -21 -3 -33c-6 -35 -22 -53 -34 -63c-29 -24 -57 -24 -72 -24c-40 0 -78 14 -89 18c-27 9 -43 14 -59 14c-24 0 -30 -20 -33 -28l-59 1c1 18 2 25 4 35c13 52 56 82 109 82c22 0 47 -4 91 -18c16 -5 39 -12 56 -12c28 1 31 18 33 28h56zM489 0h-190v381
c0 11 3 50 -40 50c-41 0 -40 -40 -40 -50v-381h-189v533h189v-53c8 10 18 25 44 41c14 9 40 23 82 23c15 0 49 -1 83 -22c60 -37 61 -96 61 -158v-364z" />
    <glyph glyph-name="eth" unicode="&#xf0;" 
d="M496 640l-68 -14c13 -13 19 -24 31 -50c26 -54 36 -97 36 -202v-218c0 -110 -52 -168 -222 -168c-130 0 -219 17 -242 111c-5 18 -6 29 -6 62v215c0 28 1 64 16 91c25 46 84 78 167 78c47 0 74 -11 106 -47c-15 57 -21 62 -44 96l-139 -29l-25 63l113 24
c-9 8 -32 26 -39 32l155 49c8 -7 18 -17 33 -32l14 -14l88 18zM308 167v204c0 15 0 52 -48 52c-47 0 -48 -32 -48 -49v-213c0 -14 1 -52 48 -52c53 0 48 44 48 58z" />
    <glyph glyph-name="idieresis" unicode="&#xef;" horiz-adv-x="250" 
d="M330 574h-171v122h171v-122zM91 574h-171v122h171v-122zM219 0h-189v533h189v-533z" />
    <glyph glyph-name="icircumflex" unicode="&#xee;" horiz-adv-x="250" 
d="M309 574h-146l-37 53l-40 -53h-145l89 122h190zM219 0h-189v533h189v-533z" />
    <glyph glyph-name="iacute" unicode="&#xed;" horiz-adv-x="250" 
d="M326 696l-131 -124h-149l77 124h203zM219 0h-189v533h189v-533z" />
    <glyph glyph-name="igrave" unicode="&#xec;" horiz-adv-x="250" 
d="M213 572h-151l-130 124h203zM219 0h-189v533h189v-533z" />
    <glyph glyph-name="edieresis" unicode="&#xeb;" horiz-adv-x="500" 
d="M466 574h-172v122h172v-122zM227 574h-171v122h171v-122zM480 156c0 -46 -4 -85 -40 -119c-35 -34 -87 -50 -187 -50c-24 0 -48 1 -72 4c-13 2 -103 10 -138 72c-20 34 -20 71 -20 108v184c0 8 -1 44 5 75c15 69 63 97 128 109c14 2 49 7 89 7c19 0 37 -1 56 -3
c58 -5 130 -20 162 -77c16 -29 17 -59 17 -92v-136h-267v-79c0 -14 -3 -52 44 -52c43 0 42 35 42 48v30h181v-29zM302 323v65c0 15 -2 46 -44 46c-43 0 -45 -29 -45 -47v-64h89z" />
    <glyph glyph-name="ecircumflex" unicode="&#xea;" horiz-adv-x="500" 
d="M444 574h-145l-38 53l-39 -53h-146l90 122h189zM480 156c0 -46 -4 -85 -40 -119c-35 -34 -87 -50 -187 -50c-24 0 -48 1 -72 4c-13 2 -103 10 -138 72c-20 34 -20 71 -20 108v184c0 8 -1 44 5 75c15 69 63 97 128 109c14 2 49 7 89 7c19 0 37 -1 56 -3
c58 -5 130 -20 162 -77c16 -29 17 -59 17 -92v-136h-267v-79c0 -14 -3 -52 44 -52c43 0 42 35 42 48v30h181v-29zM302 323v65c0 15 -2 46 -44 46c-43 0 -45 -29 -45 -47v-64h89z" />
    <glyph glyph-name="eacute" unicode="&#xe9;" horiz-adv-x="500" 
d="M462 696l-132 -124h-148l76 124h204zM480 156c0 -46 -4 -85 -40 -119c-35 -34 -87 -50 -187 -50c-24 0 -48 1 -72 4c-13 2 -103 10 -138 72c-20 34 -20 71 -20 108v184c0 8 -1 44 5 75c15 69 63 97 128 109c14 2 49 7 89 7c19 0 37 -1 56 -3c58 -5 130 -20 162 -77
c16 -29 17 -59 17 -92v-136h-267v-79c0 -14 -3 -52 44 -52c43 0 42 35 42 48v30h181v-29zM302 323v65c0 15 -2 46 -44 46c-43 0 -45 -29 -45 -47v-64h89z" />
    <glyph glyph-name="egrave" unicode="&#xe8;" horiz-adv-x="500" 
d="M348 572h-151l-130 124h203zM480 156c0 -46 -4 -85 -40 -119c-35 -34 -87 -50 -187 -50c-24 0 -48 1 -72 4c-13 2 -103 10 -138 72c-20 34 -20 71 -20 108v184c0 8 -1 44 5 75c15 69 63 97 128 109c14 2 49 7 89 7c19 0 37 -1 56 -3c58 -5 130 -20 162 -77
c16 -29 17 -59 17 -92v-136h-267v-79c0 -14 -3 -52 44 -52c43 0 42 35 42 48v30h181v-29zM302 323v65c0 15 -2 46 -44 46c-43 0 -45 -29 -45 -47v-64h89z" />
    <glyph glyph-name="ccedilla" unicode="&#xe7;" horiz-adv-x="500" 
d="M479 155c0 -23 0 -46 -9 -68c-38 -97 -173 -98 -174 -98h-9l-20 -23c6 0 12 1 18 1c61 0 75 -45 75 -70c-1 -59 -59 -107 -157 -107c-20 0 -26 2 -37 3l-17 52c19 -5 22 -6 33 -6c34 0 50 16 49 37c0 19 -15 32 -33 32s-35 -12 -40 -15l-22 44l54 55
c-52 6 -132 28 -159 101c-7 20 -8 45 -8 65v207c0 31 0 67 19 99c45 76 148 81 201 81c55 0 126 -3 180 -46c23 -19 32 -35 37 -45c12 -24 12 -47 12 -70v-56h-180v53c0 13 2 43 -39 43c-40 0 -42 -28 -42 -43v-223c0 -10 -3 -48 40 -48h2c40 0 39 33 39 44v38h187v-37z" />
    <glyph glyph-name="aring" unicode="&#xe5;" 
d="M369 666c0 -57 -46 -102 -102 -102c-13 0 -46 3 -73 30c-26 27 -29 60 -29 73c0 56 46 102 102 102c57 0 102 -48 102 -103zM513 0h-213v47c-24 -20 -68 -60 -150 -60c-75 0 -110 38 -121 68c-8 20 -8 41 -8 83c0 79 17 123 95 152c48 17 98 24 147 39c12 4 25 8 37 14
v35c0 14 0 45 -42 45c-40 0 -40 -35 -40 -47v-28h-175v39c0 37 4 50 12 69c35 80 145 89 219 89c108 -1 168 -30 195 -74c13 -22 20 -43 20 -91v-312c0 -42 7 -51 24 -68zM299 667c0 18 -15 32 -32 32c-19 0 -32 -15 -32 -33c0 -4 0 -14 9 -23c6 -6 15 -9 23 -9
c18 0 32 16 32 33zM300 140v116c-15 -6 -36 -14 -36 -14c-3 -1 -34 -12 -45 -27c-8 -11 -9 -19 -9 -36v-39c0 -13 -2 -50 43 -50c46 0 47 31 47 50z" />
    <glyph glyph-name="adieresis" unicode="&#xe4;" 
d="M473 573h-173v122h173v-122zM233 573h-171v122h171v-122zM513 0h-213v47c-24 -20 -68 -60 -150 -60c-75 0 -110 38 -121 68c-8 20 -8 41 -8 83c0 79 17 123 95 152c48 17 98 24 147 39c12 4 25 8 37 14v35c0 14 0 45 -42 45c-40 0 -40 -35 -40 -47v-28h-175v39
c0 37 4 50 12 69c35 80 145 89 219 89c108 -1 168 -30 195 -74c13 -22 20 -43 20 -91v-312c0 -42 7 -51 24 -68zM300 140v116c-15 -6 -36 -14 -36 -14c-3 -1 -34 -12 -45 -27c-8 -11 -9 -19 -9 -36v-39c0 -13 -2 -50 43 -50c46 0 47 31 47 50z" />
    <glyph glyph-name="atilde" unicode="&#xe3;" 
d="M444 693c0 -3 0 -21 -2 -33c-6 -35 -23 -53 -35 -63c-28 -24 -57 -24 -72 -24c-39 0 -77 14 -88 18c-28 9 -43 14 -59 14c-25 0 -30 -20 -33 -28l-60 1c1 18 2 25 4 35c12 52 57 82 109 82c22 0 47 -4 91 -18c17 -5 39 -12 57 -12c27 1 31 18 33 28h55zM513 0h-213v47
c-24 -20 -68 -60 -150 -60c-75 0 -110 38 -121 68c-8 20 -8 41 -8 83c0 79 17 123 95 152c48 17 98 24 147 39c12 4 25 8 37 14v35c0 14 0 45 -42 45c-40 0 -40 -35 -40 -47v-28h-175v39c0 37 4 50 12 69c35 80 145 89 219 89c108 -1 168 -30 195 -74c13 -22 20 -43 20 -91
v-312c0 -42 7 -51 24 -68zM300 140v116c-15 -6 -36 -14 -36 -14c-3 -1 -34 -12 -45 -27c-8 -11 -9 -19 -9 -36v-39c0 -13 -2 -50 43 -50c46 0 47 31 47 50z" />
    <glyph glyph-name="acircumflex" unicode="&#xe2;" 
d="M455 574h-146l-38 53l-39 -53h-145l89 122h189zM513 0h-213v47c-24 -20 -68 -60 -150 -60c-75 0 -110 38 -121 68c-8 20 -8 41 -8 83c0 79 17 123 95 152c48 17 98 24 147 39c12 4 25 8 37 14v35c0 14 0 45 -42 45c-40 0 -40 -35 -40 -47v-28h-175v39c0 37 4 50 12 69
c35 80 145 89 219 89c108 -1 168 -30 195 -74c13 -22 20 -43 20 -91v-312c0 -42 7 -51 24 -68zM300 140v116c-15 -6 -36 -14 -36 -14c-3 -1 -34 -12 -45 -27c-8 -11 -9 -19 -9 -36v-39c0 -13 -2 -50 43 -50c46 0 47 31 47 50z" />
    <glyph glyph-name="aacute" unicode="&#xe1;" 
d="M472 696l-131 -124h-149l77 124h203zM513 0h-213v47c-24 -20 -68 -60 -150 -60c-75 0 -110 38 -121 68c-8 20 -8 41 -8 83c0 79 17 123 95 152c48 17 98 24 147 39c12 4 25 8 37 14v35c0 14 0 45 -42 45c-40 0 -40 -35 -40 -47v-28h-175v39c0 37 4 50 12 69
c35 80 145 89 219 89c108 -1 168 -30 195 -74c13 -22 20 -43 20 -91v-312c0 -42 7 -51 24 -68zM300 140v116c-15 -6 -36 -14 -36 -14c-3 -1 -34 -12 -45 -27c-8 -11 -9 -19 -9 -36v-39c0 -13 -2 -50 43 -50c46 0 47 31 47 50z" />
    <glyph glyph-name="agrave" unicode="&#xe0;" 
d="M359 572h-151l-131 124h204zM513 0h-213v47c-24 -20 -68 -60 -150 -60c-75 0 -110 38 -121 68c-8 20 -8 41 -8 83c0 79 17 123 95 152c48 17 98 24 147 39c12 4 25 8 37 14v35c0 14 0 45 -42 45c-40 0 -40 -35 -40 -47v-28h-175v39c0 37 4 50 12 69c35 80 145 89 219 89
c108 -1 168 -30 195 -74c13 -22 20 -43 20 -91v-312c0 -42 7 -51 24 -68zM300 140v116c-15 -6 -36 -14 -36 -14c-3 -1 -34 -12 -45 -27c-8 -11 -9 -19 -9 -36v-39c0 -13 -2 -50 43 -50c46 0 47 31 47 50z" />
    <glyph glyph-name="Thorn" unicode="&#xde;" horiz-adv-x="542" 
d="M525 340c0 -50 -5 -84 -12 -104c-34 -100 -137 -99 -203 -99h-77v-137h-198v706h198v-117h104c58 0 140 -4 173 -90c13 -35 13 -91 13 -95c1 -23 2 -40 2 -64zM333 329v73c0 37 -9 51 -50 51h-50v-181h50c44 0 50 18 50 57z" />
    <glyph glyph-name="Yacute" unicode="&#xdd;" horiz-adv-x="562" 
d="M449 876l-103 -112h-149l61 112h191zM558 706l-176 -479v-227h-197v227l-185 479h197l85 -306l83 306h193z" />
    <glyph glyph-name="Udieresis" unicode="&#xdc;" horiz-adv-x="562" 
d="M479 758h-165v110h165v-110zM244 758h-166v110h166v-110zM529 191c0 -73 -5 -126 -78 -168c-35 -20 -83 -33 -171 -33c-80 0 -190 12 -231 91c-13 24 -18 45 -18 98v527h198v-519c0 -16 0 -57 51 -57s50 40 50 57v519h199v-515z" />
    <glyph glyph-name="Ucircumflex" unicode="&#xdb;" horiz-adv-x="562" 
d="M460 758h-149l-29 45l-28 -45h-149l77 109h203zM529 191c0 -73 -5 -126 -78 -168c-35 -20 -83 -33 -171 -33c-80 0 -190 12 -231 91c-13 24 -18 45 -18 98v527h198v-519c0 -16 0 -57 51 -57s50 40 50 57v519h199v-515z" />
    <glyph glyph-name="Uacute" unicode="&#xda;" horiz-adv-x="562" 
d="M449 876l-103 -112h-149l61 112h191zM529 191c0 -73 -5 -126 -78 -168c-35 -20 -83 -33 -171 -33c-80 0 -190 12 -231 91c-13 24 -18 45 -18 98v527h198v-519c0 -16 0 -57 51 -57s50 40 50 57v519h199v-515z" />
    <glyph glyph-name="Ugrave" unicode="&#xd9;" horiz-adv-x="562" 
d="M362 765h-150l-103 111h191zM529 191c0 -73 -5 -126 -78 -168c-35 -20 -83 -33 -171 -33c-80 0 -190 12 -231 91c-13 24 -18 45 -18 98v527h198v-519c0 -16 0 -57 51 -57s50 40 50 57v519h199v-515z" />
    <glyph glyph-name="multiply" unicode="&#xd7;" horiz-adv-x="558" 
d="M485 224l-124 -128l-89 89l-79 -87l-103 99l81 90l-90 93l124 128l87 -89l78 86l104 -97l-81 -90z" />
    <glyph glyph-name="Odieresis" unicode="&#xd6;" horiz-adv-x="562" 
d="M480 754h-165v111h165v-111zM246 754h-167v111h167v-111zM531 217c0 -61 -1 -120 -49 -165c-51 -49 -128 -62 -196 -62c-129 0 -204 39 -234 92c-24 42 -25 89 -25 135v266c0 74 1 141 68 188c34 24 89 45 183 45c9 0 185 6 235 -102c19 -40 18 -84 18 -127v-270z
M331 179v351c0 23 -1 52 -53 52c-50 0 -51 -32 -51 -53v-351c0 -20 0 -53 52 -53c53 0 52 33 52 54z" />
    <glyph glyph-name="Otilde" unicode="&#xd5;" horiz-adv-x="562" 
d="M455 861c-1 -20 -2 -36 -8 -55c-16 -45 -58 -65 -104 -65c-25 0 -41 4 -85 19c-26 9 -47 14 -59 14c-25 0 -30 -19 -33 -28h-60c1 6 1 29 8 49c8 23 38 69 105 69c29 0 48 -5 98 -20c26 -7 37 -10 51 -10c26 0 30 18 32 27h55zM531 217c0 -61 -1 -120 -49 -165
c-51 -49 -128 -62 -196 -62c-129 0 -204 39 -234 92c-24 42 -25 89 -25 135v266c0 74 1 141 68 188c34 24 89 45 183 45c9 0 185 6 235 -102c19 -40 18 -84 18 -127v-270zM331 179v351c0 23 -1 52 -53 52c-50 0 -51 -32 -51 -53v-351c0 -20 0 -53 52 -53c53 0 52 33 52 54z
" />
    <glyph glyph-name="Ocircumflex" unicode="&#xd4;" horiz-adv-x="562" 
d="M460 758h-149l-29 45l-28 -45h-149l77 109h203zM531 217c0 -61 -1 -120 -49 -165c-51 -49 -128 -62 -196 -62c-129 0 -204 39 -234 92c-24 42 -25 89 -25 135v266c0 74 1 141 68 188c34 24 89 45 183 45c9 0 185 6 235 -102c19 -40 18 -84 18 -127v-270zM331 179v351
c0 23 -1 52 -53 52c-50 0 -51 -32 -51 -53v-351c0 -20 0 -53 52 -53c53 0 52 33 52 54z" />
    <glyph glyph-name="Oacute" unicode="&#xd3;" horiz-adv-x="562" 
d="M449 876l-103 -112h-149l61 112h191zM531 217c0 -61 -1 -120 -49 -165c-51 -49 -128 -62 -196 -62c-129 0 -204 39 -234 92c-24 42 -25 89 -25 135v266c0 74 1 141 68 188c34 24 89 45 183 45c9 0 185 6 235 -102c19 -40 18 -84 18 -127v-270zM331 179v351
c0 23 -1 52 -53 52c-50 0 -51 -32 -51 -53v-351c0 -20 0 -53 52 -53c53 0 52 33 52 54z" />
    <glyph glyph-name="Ograve" unicode="&#xd2;" horiz-adv-x="562" 
d="M362 765h-150l-103 111h191zM531 217c0 -61 -1 -120 -49 -165c-51 -49 -128 -62 -196 -62c-129 0 -204 39 -234 92c-24 42 -25 89 -25 135v266c0 74 1 141 68 188c34 24 89 45 183 45c9 0 185 6 235 -102c19 -40 18 -84 18 -127v-270zM331 179v351c0 23 -1 52 -53 52
c-50 0 -51 -32 -51 -53v-351c0 -20 0 -53 52 -53c53 0 52 33 52 54z" />
    <glyph glyph-name="Ntilde" unicode="&#xd1;" horiz-adv-x="562" 
d="M460 861c-1 -20 -1 -36 -8 -55c-16 -45 -58 -65 -104 -65c-25 0 -41 4 -85 19c-26 9 -47 14 -59 14c-25 0 -30 -19 -33 -28h-59c0 6 0 29 7 49c8 23 38 69 106 69c28 0 48 -6 97 -20c26 -8 37 -10 51 -10c26 0 30 18 32 27h55zM525 0h-187l-136 414v-414h-166v706h183
l141 -423l-1 423h166v-706z" />
    <glyph glyph-name="Eth" unicode="&#xd0;" horiz-adv-x="562" 
d="M533 243c0 -101 -8 -155 -61 -201c-50 -42 -115 -42 -164 -42h-274v334h-34v101h34v271h229c71 0 224 1 260 -120c9 -30 10 -70 10 -99v-244zM334 190v317c0 40 -5 63 -54 63h-46v-135h61v-101h-61v-202h44c46 0 56 17 56 58z" />
    <glyph glyph-name="Idieresis" unicode="&#xcf;" horiz-adv-x="271" 
d="M335 756h-165v111h165v-111zM100 756h-166v111h166v-111zM235 0h-200v706h200v-706z" />
    <glyph glyph-name="Icircumflex" unicode="&#xce;" horiz-adv-x="271" 
d="M314 758h-149l-29 45l-28 -45h-149l77 109h203zM235 0h-200v706h200v-706z" />
    <glyph glyph-name="Iacute" unicode="&#xcd;" horiz-adv-x="271" 
d="M303 876l-103 -112h-149l61 112h191zM235 0h-200v706h200v-706z" />
    <glyph glyph-name="Igrave" unicode="&#xcc;" horiz-adv-x="271" 
d="M216 765h-150l-102 111h190zM235 0h-200v706h200v-706z" />
    <glyph glyph-name="Edieresis" unicode="&#xcb;" horiz-adv-x="437" 
d="M424 756h-166v111h166v-111zM189 756h-166v111h166v-111zM420 0h-386v706h386v-137h-187v-143h173v-135h-173v-155h187v-136z" />
    <glyph glyph-name="Ecircumflex" unicode="&#xca;" horiz-adv-x="437" 
d="M402 758h-148l-30 45l-27 -45h-149l77 109h202zM420 0h-386v706h386v-137h-187v-143h173v-135h-173v-155h187v-136z" />
    <glyph glyph-name="Eacute" unicode="&#xc9;" horiz-adv-x="437" 
d="M392 876l-103 -112h-149l61 112h191zM420 0h-386v706h386v-137h-187v-143h173v-135h-173v-155h187v-136z" />
    <glyph glyph-name="Egrave" unicode="&#xc8;" horiz-adv-x="437" 
d="M305 765h-150l-103 111h191zM420 0h-386v706h386v-137h-187v-143h173v-135h-173v-155h187v-136z" />
    <glyph glyph-name="Ccedilla" unicode="&#xc7;" horiz-adv-x="542" 
d="M527 210c0 -80 -5 -168 -120 -206c-42 -14 -88 -16 -100 -16l-19 -22c6 0 12 1 18 1c61 0 75 -45 75 -70c0 -59 -60 -107 -157 -107c-20 0 -27 2 -37 3l-17 52c19 -5 22 -6 33 -6c34 0 50 16 49 37c-1 19 -14 32 -33 32c-18 0 -35 -12 -40 -15l-22 44l53 54
c-186 27 -181 147 -181 213v294c0 34 1 84 18 118c32 67 112 103 228 103c113 0 196 -35 230 -99c18 -33 19 -73 19 -107v-67h-195v84c0 21 -5 49 -50 49c-47 0 -52 -31 -52 -49v-358c0 -22 6 -47 50 -47c50 0 52 31 52 51v85h197c1 -17 1 -34 1 -51z" />
    <glyph glyph-name="Aring" unicode="&#xc5;" horiz-adv-x="562" 
d="M387 825c0 -57 -47 -102 -103 -102c-13 0 -45 4 -72 30c-27 27 -30 60 -30 73c0 56 46 102 103 102s102 -47 102 -103zM560 0h-197l-22 159h-121l-24 -159h-198l164 706h238zM317 826c0 18 -15 32 -32 32c-19 0 -32 -15 -32 -33c0 -3 1 -14 9 -22c6 -6 15 -10 23 -10
c18 0 32 16 32 33zM323 285l-42 283l-43 -283h85z" />
    <glyph glyph-name="Adieresis" unicode="&#xc4;" horiz-adv-x="562" 
d="M481 760h-165v110h165v-110zM246 760h-166v110h166v-110zM560 0h-197l-22 159h-121l-24 -159h-198l164 706h238zM323 285l-42 283l-43 -283h85z" />
    <glyph glyph-name="Atilde" unicode="&#xc3;" horiz-adv-x="562" 
d="M455 861c-1 -20 -2 -36 -8 -55c-16 -45 -58 -65 -104 -65c-25 0 -41 4 -85 19c-26 9 -47 14 -59 14c-25 0 -30 -19 -33 -28h-60c1 6 1 29 8 49c8 23 38 69 105 69c29 0 48 -5 98 -20c26 -7 37 -10 51 -10c26 0 30 18 32 27h55zM560 0h-197l-22 159h-121l-24 -159h-198
l164 706h238zM323 285l-42 283l-43 -283h85z" />
    <glyph glyph-name="Acircumflex" unicode="&#xc2;" horiz-adv-x="562" 
d="M460 758h-149l-29 45l-28 -45h-149l77 109h203zM560 0h-197l-22 159h-121l-24 -159h-198l164 706h238zM323 285l-42 283l-43 -283h85z" />
    <glyph glyph-name="Aacute" unicode="&#xc1;" horiz-adv-x="562" 
d="M449 876l-103 -112h-149l61 112h191zM560 0h-197l-22 159h-121l-24 -159h-198l164 706h238zM323 285l-42 283l-43 -283h85z" />
    <glyph glyph-name="Agrave" unicode="&#xc0;" horiz-adv-x="562" 
d="M362 765h-150l-103 111h191zM560 0h-197l-22 159h-121l-24 -159h-198l164 706h238zM323 285l-42 283l-43 -283h85z" />
    <glyph glyph-name="mu" unicode="&#xb5;" 
d="M513 0h-212l-1 54c-12 -43 -23 -56 -50 -56c-13 0 -23 4 -31 13v-179h-188v701h188v-394c0 -30 14 -46 41 -46c29 0 40 14 40 53v387h189v-465c0 -38 3 -46 24 -68z" />
    <glyph glyph-name="plusminus" unicode="&#xb1;" horiz-adv-x="559" 
d="M479 347h-106l-1 -137h-183v137h-108v147h108v136h184v-136h106v-147zM479 0h-398v147h398v-147z" />
    <glyph glyph-name="degree" unicode="&#xb0;" horiz-adv-x="354" 
d="M349 573c0 -95 -77 -173 -172 -173s-172 78 -172 173c0 96 76 172 172 172s172 -76 172 -172zM233 575c0 31 -25 55 -56 55s-55 -25 -55 -55s25 -56 55 -56c31 0 56 25 56 56z" />
    <glyph glyph-name="registered" unicode="&#xae;" horiz-adv-x="833" 
d="M773 354c0 -201 -156 -357 -357 -357c-197 0 -355 158 -355 356s157 356 356 356s356 -157 356 -355zM717 352c0 173 -132 309 -301 309c-165 0 -299 -138 -299 -309s132 -307 299 -307s301 137 301 307zM598 134h-132l-65 168h-14v-168h-122v443h187
c88 0 124 -28 124 -93v-76c0 -50 -18 -78 -59 -91zM455 436v12c0 25 -13 35 -42 35h-26v-88h22c35 0 46 10 46 41z" />
    <glyph glyph-name="logicalnot" unicode="&#xac;" horiz-adv-x="559" 
d="M474 43h-186v186h-239v145h425v-331z" />
    <glyph glyph-name="copyright" unicode="&#xa9;" horiz-adv-x="833" 
d="M773 354c0 -201 -156 -357 -357 -357c-197 0 -355 158 -355 356s157 356 356 356s356 -157 356 -355zM717 352c0 173 -132 309 -301 309c-165 0 -299 -138 -299 -309s132 -307 299 -307s301 137 301 307zM576 270c0 -106 -43 -144 -160 -144c-29 0 -53 2 -76 9
c-19 5 -37 17 -51 31c-25 26 -32 53 -32 112v154c0 57 9 88 32 112c27 29 71 43 131 43c113 0 156 -39 156 -143v-35h-123v34c0 37 -8 49 -35 49c-16 0 -26 -5 -31 -17c-5 -10 -6 -17 -6 -46v-156c0 -30 0 -32 4 -42c5 -12 16 -18 32 -18c29 0 36 12 36 58v35h123v-36z" />
    <glyph glyph-name="brokenbar" unicode="&#xa6;" horiz-adv-x="247" 
d="M203 378h-159v401h159v-401zM203 -144h-159v401h159v-401z" />
    <glyph glyph-name="threesuperior" unicode="&#xb3;" horiz-adv-x="354" 
d="M330 369c0 -19 0 -39 -12 -58c-30 -49 -105 -54 -142 -54c-41 1 -119 6 -145 67c-5 13 -5 32 -5 45v46h116v-46c0 -20 4 -32 36 -32c29 0 33 15 33 38v46c0 22 -7 28 -29 28h-60v90h60c17 0 29 1 29 25v39c0 25 -14 29 -34 29h-1c-31 0 -34 -12 -34 -30v-32h-111v34
c0 91 81 107 145 108c38 0 110 -4 140 -54c10 -16 14 -37 14 -72c0 -49 -19 -73 -47 -88c45 -16 47 -46 47 -78v-51z" />
    <glyph glyph-name="twosuperior" unicode="&#xb2;" horiz-adv-x="354" 
d="M328 265h-302v39c0 95 42 119 131 198c18 16 41 38 45 44c5 9 5 22 5 23v34c0 12 1 33 -31 33c-23 0 -36 -6 -36 -33v-70h-114v58c0 18 -1 39 8 57c27 57 104 64 144 64c71 0 118 -18 138 -57c9 -18 11 -42 11 -83c0 -64 -17 -70 -102 -144c-42 -36 -59 -49 -63 -73h166
v-90z" />
    <glyph glyph-name="onesuperior" unicode="&#xb9;" horiz-adv-x="354" 
d="M248 265h-119v317c-14 -8 -37 -22 -69 -25v84c25 6 49 15 69 65h119v-441z" />
    <glyph glyph-name="threequarters" unicode="&#xbe;" horiz-adv-x="833" 
d="M812 88h-51v-88h-116v88h-147v91l132 263h131v-263h51v-91zM593 706l-215 -706h-96l215 706h96zM330 369c0 -19 0 -39 -12 -58c-30 -49 -105 -54 -142 -54c-41 1 -119 6 -145 67c-5 13 -5 32 -5 45v46h116v-46c0 -20 4 -32 36 -32c29 0 33 15 33 38v46c0 22 -7 28 -29 28
h-60v90h60c17 0 29 1 29 25v39c0 25 -14 29 -34 29h-1c-31 0 -34 -12 -34 -30v-32h-111v34c0 91 81 107 145 108c38 0 110 -4 140 -54c10 -16 14 -37 14 -72c0 -49 -19 -73 -47 -88c45 -16 47 -46 47 -78v-51zM645 179v133l-68 -133h68z" />
    <glyph glyph-name="onehalf" unicode="&#xbd;" horiz-adv-x="833" 
d="M808 0h-304v39c0 96 42 118 132 198c4 3 41 36 45 43c3 6 5 13 5 24v34c0 12 1 33 -31 33c-30 0 -35 -13 -35 -33v-70h-116v53c0 3 -1 40 10 63c28 56 103 63 143 63c71 0 117 -18 138 -57c10 -19 11 -42 11 -83c0 -62 -13 -67 -101 -143c-41 -36 -60 -50 -64 -74h167
v-90zM537 706l-215 -706h-96l215 706h96zM248 265h-119v317c-14 -8 -37 -22 -69 -25v84c25 6 49 15 69 65h119v-441z" />
    <glyph glyph-name="onequarter" unicode="&#xbc;" horiz-adv-x="833" 
d="M812 88h-51v-88h-116v88h-147v91l132 263h131v-263h51v-91zM564 706l-216 -706h-95l215 706h96zM248 265h-119v317c-14 -8 -37 -22 -69 -25v84c25 6 49 15 69 65h119v-441zM645 179v133l-68 -133h68z" />
    <glyph glyph-name="Euro" unicode="&#x20ac;" horiz-adv-x="592" 
d="M577 665l-63 -143c-32 36 -72 59 -121 59c-72 0 -108 -43 -108 -113c0 -3 1 -6 1 -9h204l-36 -80h-168v-40h156l-36 -81h-121v-8c0 -74 32 -119 109 -119c52 0 101 25 138 61v-173c-65 -27 -105 -33 -175 -33c-196 0 -263 81 -263 272h-78l36 81h43l1 40h-76l34 80h40v13
c0 177 116 249 282 249c79 0 134 -12 201 -56z" />
    </font>
</defs>
</svg>
