<?xml version="1.0" standalone="no"?>
<!DOCTYPE svg PUBLIC "-//W3C//DTD SVG 1.1//EN" "http://www.w3.org/Graphics/SVG/1.1/DTD/svg11.dtd" >
<svg>
<metadata>
Created by FontForge 20110222 at Sat May 24 00:36:42 2014
 By Orthosie Webhosting
Copyright (c) 1997, 2001, Berthold LLC. All rights reserved. Akzidenz-Grotesk is a trademark of Berthold Types Limited.
</metadata>
<defs>
<font id="AkzidenzGroteskBQ-Reg" horiz-adv-x="521" >
  <font-face 
    font-family="Akzidenz-Grotesk BQ"
    font-weight="500"
    font-stretch="normal"
    units-per-em="1000"
    panose-1="0 0 0 0 0 0 0 0 0 0"
    ascent="800"
    descent="-200"
    x-height="471"
    cap-height="706"
    bbox="-37 -233 1227.02 943"
    underline-thickness="75"
    underline-position="-139"
    stemh="64"
    stemv="79"
    unicode-range="U+0020-2122"
  />
<missing-glyph horiz-adv-x="500" 
 />
    <glyph glyph-name=".notdef" horiz-adv-x="500" 
 />
    <glyph glyph-name="space" unicode=" " horiz-adv-x="271" 
 />
    <glyph glyph-name="exclam" unicode="!" horiz-adv-x="271" 
d="M194 418l-24 -271h-31l-24 282v277h79v-288zM194 0h-79v90h79v-90z" />
    <glyph glyph-name="quotedbl" unicode="&#x22;" horiz-adv-x="347" 
d="M302 743l-28 -294h-31l-29 294h88zM133 743l-28 -294h-32l-29 294h89z" />
    <glyph glyph-name="numbersign" unicode="#" horiz-adv-x="667" 
d="M625 414h-148l-16 -108h139v-77h-150l-33 -229h-79l33 229h-111l-33 -229h-81l35 229h-139v77h149l16 108h-142v77h152l31 214h80l-31 -214h110l32 214h78l-30 -214h138v-77zM397 414h-111l-16 -108h112z" />
    <glyph glyph-name="dollar" unicode="$" horiz-adv-x="625" 
d="M600 185c0 -69 -40 -128 -98 -163c-37 -22 -92 -40 -136 -40h-12v-119h-67v119c-21 3 -97 14 -158 55c-80 54 -102 136 -109 167l102 11c17 -82 77 -123 103 -135c12 -6 33 -13 62 -19v253c-11 4 -91 26 -142 61c-21 15 -81 63 -81 146c0 41 16 73 23 85
c55 97 172 106 200 110v110h67l1 -110c13 -4 27 -7 40 -10c24 -6 59 -16 103 -50c9 -7 34 -27 52 -55c10 -14 22 -37 32 -74l-93 -9c-13 42 -44 84 -83 105c-12 6 -25 12 -52 16l1 -236c20 -6 63 -18 112 -41c27 -13 134 -61 133 -177zM287 422v220c-10 -1 -31 -3 -53 -12
c-40 -17 -69 -52 -69 -98c0 -9 1 -28 12 -47c22 -36 74 -52 110 -63zM496 172c0 60 -44 92 -142 123l1 -237c7 0 15 1 22 2c17 2 70 9 101 55c12 17 18 36 18 57z" />
    <glyph glyph-name="percent" unicode="%" horiz-adv-x="896" 
d="M849 213c0 -12 0 -137 -73 -193c-35 -27 -74 -29 -89 -29c-27 0 -85 7 -125 67c-21 32 -39 79 -39 160c0 164 80 232 162 232c80 0 166 -70 164 -237zM620 656l-317 -685l-55 26l318 685zM353 450c0 -17 1 -124 -62 -185c-26 -26 -64 -41 -101 -41c-41 0 -80 18 -106 47
s-58 88 -58 181c0 63 19 150 70 196c12 10 46 35 93 35c14 0 39 -2 69 -19c99 -55 95 -197 95 -214zM784 213c1 66 -13 113 -28 137c-22 35 -56 41 -72 41c-29 -1 -55 -17 -69 -40c-15 -23 -29 -67 -28 -131c0 -63 13 -104 28 -128c22 -37 56 -44 73 -44c26 0 50 14 64 33
c26 35 31 93 32 132zM288 450c0 64 -9 101 -24 127c-22 40 -58 49 -76 49c-25 0 -49 -14 -64 -34c-34 -44 -32 -132 -32 -136c0 -5 -2 -88 29 -136c15 -23 41 -38 69 -38c30 0 55 16 71 39c17 25 27 65 27 129z" />
    <glyph glyph-name="ampersand" unicode="&#x26;" horiz-adv-x="604" 
d="M593 -4c-16 -3 -31 -4 -38 -4c-83 0 -126 49 -146 72c-13 -11 -26 -21 -40 -30c-57 -37 -114 -43 -138 -43c-14 0 -48 2 -84 19c-36 16 -109 66 -109 175c0 54 17 96 51 137c17 20 32 32 39 37c24 18 51 29 75 47c-17 45 -33 80 -33 130c0 92 64 165 158 165
c80 0 145 -58 145 -141c0 -19 -4 -39 -11 -57c-22 -52 -73 -87 -85 -96c-18 -12 -38 -23 -57 -34c17 -38 39 -76 61 -113c13 -22 25 -43 39 -65c15 29 31 63 47 130h77c-14 -97 -57 -166 -76 -197c10 -14 41 -52 97 -52c7 0 15 1 28 3v-83zM394 570c0 6 -1 18 -6 31
c-10 24 -34 39 -61 39c-8 0 -19 -1 -34 -9c-40 -21 -43 -65 -43 -78c1 -23 9 -61 33 -110c81 35 111 86 111 127zM362 121c-26 37 -47 77 -70 115c-33 56 -41 68 -56 101c-24 -11 -35 -18 -46 -26c-55 -40 -67 -88 -67 -116c0 -8 1 -25 9 -45c19 -50 60 -81 115 -81
c61 1 102 40 115 52z" />
    <glyph glyph-name="quoteright" unicode="&#x2019;" horiz-adv-x="229" 
d="M162 654c0 -72 -12 -147 -41 -214h-47c17 49 33 104 33 156h-44v110h99v-52z" />
    <glyph glyph-name="parenleft" unicode="(" horiz-adv-x="315" 
d="M319 -117l-32 -46c-10 8 -17 14 -22 18c-43 34 -80 73 -113 118c-32 43 -57 89 -74 136c-24 63 -38 141 -38 212c0 115 34 233 94 325c18 27 39 53 62 77c28 29 44 43 88 75l33 -40c-46 -42 -61 -58 -85 -91c-64 -87 -99 -208 -99 -339c0 -183 72 -355 186 -445z" />
    <glyph glyph-name="parenright" unicode=")" horiz-adv-x="319" 
d="M283 317c0 -70 -14 -146 -38 -212c-27 -73 -67 -136 -119 -190c-28 -30 -44 -43 -88 -75l-33 39c46 42 61 58 85 92c64 87 100 209 100 340c0 183 -71 354 -186 444l33 46c10 -8 17 -14 22 -18c43 -34 79 -73 112 -118c32 -44 58 -90 75 -136c24 -63 37 -141 37 -212z
" />
    <glyph glyph-name="asterisk" unicode="*" horiz-adv-x="349" 
d="M323 583l-104 -37l63 -83l-48 -37l-66 85l-59 -85l-50 36l59 85l-100 28l17 57l102 -27v103h62v-105l103 34z" />
    <glyph glyph-name="plus" unicode="+" horiz-adv-x="724" 
d="M631 262h-225v-229h-88v229h-224v78h224v228h88v-228h225v-78z" />
    <glyph glyph-name="comma" unicode="," horiz-adv-x="229" 
d="M162 49c0 -71 -12 -140 -41 -205h-47c17 49 33 104 33 156h-44v109h99v-60z" />
    <glyph glyph-name="hyphen" unicode="-" horiz-adv-x="370" 
d="M325 262h-280v76h280v-76z" />
    <glyph glyph-name="period" unicode="." horiz-adv-x="229" 
d="M163 0h-99v113h99v-113z" />
    <glyph glyph-name="slash" unicode="/" horiz-adv-x="333" 
d="M321 702l-231 -702h-77l233 702h75z" />
    <glyph glyph-name="zero" unicode="0" horiz-adv-x="583" 
d="M535 336c0 -161 -55 -251 -110 -296c-38 -31 -83 -46 -134 -46c-39 0 -77 10 -110 30c-66 41 -132 134 -132 308c0 28 -1 202 105 297c52 46 109 51 136 51c20 0 64 -3 110 -31c67 -41 136 -137 135 -313zM445 336c0 16 1 141 -53 214c-35 47 -75 51 -99 51
c-49 0 -77 -23 -90 -36c-10 -9 -24 -26 -37 -55c-22 -51 -28 -120 -28 -174c0 -18 -3 -135 50 -209c13 -19 43 -56 105 -55c11 0 40 1 66 18c71 47 86 173 86 246z" />
    <glyph glyph-name="one" unicode="1" horiz-adv-x="583" 
d="M357 0h-94v493h-145v62c87 0 128 22 151 59c15 23 20 52 21 60h67v-674z" />
    <glyph glyph-name="two" unicode="2" horiz-adv-x="583" 
d="M520 0h-441l1 86c14 7 28 15 42 23c28 18 97 68 166 133c66 61 131 133 131 231c0 79 -47 129 -127 129c-55 0 -87 -23 -101 -41c-10 -14 -16 -31 -18 -36c-7 -24 -8 -48 -8 -56c0 -21 2 -40 12 -80h-88c-5 17 -12 41 -12 80c0 25 2 104 63 159c24 21 75 52 155 52
c24 0 90 -3 145 -50c47 -39 72 -102 72 -163c0 -51 -15 -122 -91 -207c-17 -20 -35 -40 -76 -74c-25 -22 -51 -43 -79 -63c-23 -16 -46 -31 -69 -46h323v-77z" />
    <glyph glyph-name="three" unicode="3" horiz-adv-x="583" 
d="M529 188c0 -25 -4 -81 -52 -129c-64 -66 -158 -65 -184 -65c-40 0 -205 4 -245 161c-4 16 -7 34 -8 68h90c1 -9 2 -41 12 -70c16 -43 53 -79 146 -79c27 0 147 1 147 121c0 37 -13 58 -23 70c-21 27 -59 43 -131 43c-20 0 -40 -1 -60 -3l1 81c76 -6 124 2 154 22
c15 10 43 35 43 84c0 30 -11 50 -18 60c-26 38 -73 54 -118 54c-44 0 -83 -16 -108 -56c-19 -32 -21 -67 -23 -102l-89 4c2 33 3 57 13 89c41 132 167 139 208 139c18 0 56 -1 100 -16c108 -38 125 -131 125 -172c0 -12 -2 -67 -32 -103c-14 -17 -31 -28 -50 -40
c22 -10 33 -18 41 -24c23 -19 61 -62 61 -137z" />
    <glyph glyph-name="four" unicode="4" horiz-adv-x="583" 
d="M532 162h-98v-162h-87v162h-305v81l322 431h70v-436h98v-76zM351 540l-218 -302h214z" />
    <glyph glyph-name="five" unicode="5" horiz-adv-x="583" 
d="M525 236c0 -97 -52 -192 -146 -227c-16 -6 -48 -15 -92 -15c-150 0 -209 98 -228 152c-5 15 -9 32 -12 64l89 6c1 -12 4 -28 14 -53c15 -39 38 -67 77 -82c10 -4 29 -10 57 -10c20 0 43 4 61 12c38 16 87 60 87 156c0 18 -2 40 -7 56c-11 39 -41 74 -79 89
c-12 4 -31 10 -60 10c-12 0 -47 -1 -77 -21c-4 -2 -11 -7 -19 -15c-24 -23 -30 -35 -37 -51h-81l22 367h383v-79h-315l-9 -177c24 20 70 55 149 54c45 0 76 -11 92 -18c86 -38 131 -128 131 -218z" />
    <glyph glyph-name="six" unicode="6" horiz-adv-x="583" 
d="M527 228c0 -16 -1 -51 -16 -91c-33 -90 -111 -143 -208 -143c-40 0 -127 10 -187 100c-33 49 -54 113 -54 235c0 25 1 118 32 199c10 28 23 50 41 73c26 31 56 55 95 67c12 4 39 12 74 12c15 0 44 -1 80 -14c78 -28 106 -85 125 -160l-87 -12c-8 44 -26 84 -71 102
c-8 3 -24 8 -46 8c-11 0 -55 -3 -87 -29c-14 -12 -35 -38 -50 -81c-17 -49 -17 -80 -20 -131c2 2 12 16 21 25c20 20 69 57 146 57c15 0 49 -1 86 -17c43 -19 126 -74 126 -200zM439 222c0 25 -5 40 -8 50c-12 38 -42 72 -80 85c-22 7 -40 7 -49 7c-7 0 -32 0 -55 -10
c-55 -22 -85 -77 -85 -134c0 -11 1 -32 10 -57c11 -28 47 -89 133 -89c19 0 38 4 55 11c55 24 80 82 79 137z" />
    <glyph glyph-name="seven" unicode="7" horiz-adv-x="583" 
d="M509 577c0 -37 -9 -46 -39 -99l-35 -61c-20 -36 -39 -72 -57 -109c-13 -27 -25 -54 -37 -81c-13 -30 -26 -60 -36 -91c-8 -24 -14 -48 -19 -72c-5 -21 -9 -42 -12 -64h-106c19 150 125 338 204 461l30 47c29 45 33 53 33 86h-267v-128h-72v208h413v-97z" />
    <glyph glyph-name="eight" unicode="8" horiz-adv-x="583" 
d="M533 203c0 -17 -1 -59 -25 -101c-27 -49 -88 -108 -216 -108c-29 0 -145 2 -207 96c-30 46 -33 90 -33 111c0 46 18 97 51 130c9 9 20 17 41 31c-52 35 -75 77 -75 139c0 52 18 84 30 102c31 43 85 77 194 77c70 0 145 -12 189 -74c31 -42 32 -87 32 -105
c0 -20 -2 -77 -50 -120c-9 -8 -16 -13 -26 -19c34 -21 95 -58 95 -159zM424 502c0 13 -4 53 -38 77s-91 24 -98 24c-40 0 -87 -9 -113 -44c-12 -16 -17 -35 -17 -56c0 -9 1 -31 14 -53c17 -31 49 -53 120 -53c72 0 104 23 120 55c5 9 12 26 12 50zM440 204
c0 14 -2 55 -36 84c-38 34 -105 34 -115 34c-115 0 -146 -69 -146 -120c0 -12 1 -41 20 -69c39 -56 115 -57 131 -57c14 0 76 1 114 41c31 32 33 72 32 87z" />
    <glyph glyph-name="nine" unicode="9" horiz-adv-x="583" 
d="M525 343c0 -29 2 -175 -76 -272c-9 -11 -28 -35 -59 -52c-22 -12 -57 -25 -115 -25c-32 0 -50 4 -63 8c-26 8 -79 32 -114 95c-8 14 -16 32 -25 65l87 16c1 -7 9 -38 25 -62c23 -33 57 -46 96 -46c16 0 57 3 92 36c47 46 66 136 66 198c-21 -27 -70 -86 -167 -86
c-131 0 -220 95 -220 226c0 26 4 107 62 168c26 27 76 65 166 65c28 0 99 -2 158 -58c49 -47 87 -130 87 -276zM430 432c0 12 0 34 -8 61c-21 67 -72 109 -143 109c-41 0 -67 -15 -80 -25c-57 -41 -58 -122 -58 -138c0 -30 5 -48 11 -61c12 -29 48 -80 130 -80
c20 0 40 3 58 10c29 10 87 41 90 124z" />
    <glyph glyph-name="colon" unicode=":" horiz-adv-x="271" 
d="M205 377h-99v112h99v-112zM205 0h-99v113h99v-113z" />
    <glyph glyph-name="semicolon" unicode=";" horiz-adv-x="271" 
d="M206 380h-99v110h99v-110zM206 50c0 -58 -5 -116 -25 -171c-4 -11 -10 -23 -14 -34h-45c16 50 25 103 25 155h-40v111h99v-61z" />
    <glyph glyph-name="less" unicode="&#x3c;" horiz-adv-x="724" 
d="M579 23l-465 234v89l465 235v-88l-384 -190l384 -189v-91z" />
    <glyph glyph-name="equal" unicode="=" horiz-adv-x="724" 
d="M625 350h-526v78h526v-78zM625 163h-526v77h526v-77z" />
    <glyph glyph-name="greater" unicode="&#x3e;" horiz-adv-x="724" 
d="M609 256l-465 -235v89l384 189l-384 189v91l465 -233v-90z" />
    <glyph glyph-name="question" unicode="?" horiz-adv-x="562" 
d="M526 496c0 -104 -67 -155 -102 -172c-27 -13 -60 -19 -88 -22v-152h-79l1 236h27c6 0 64 1 98 19c20 10 32 24 37 31c22 29 23 58 23 71c0 34 -12 57 -19 68c-15 23 -59 62 -131 62c-59 0 -87 -24 -102 -43c-16 -19 -33 -52 -33 -107v-16h-87c0 87 23 131 49 162
c23 28 80 79 176 79c28 0 94 -5 155 -55c68 -56 75 -129 75 -161zM340 0h-89v97h89v-97z" />
    <glyph glyph-name="at" unicode="@" horiz-adv-x="896" 
d="M827 424c0 -49 -8 -99 -23 -146c-28 -85 -105 -208 -208 -208c-52 0 -84 35 -83 86c-36 -47 -81 -85 -144 -85c-91 0 -130 81 -130 162c0 90 40 198 116 251c28 20 60 33 95 33c55 0 96 -34 115 -84l15 62h68l-33 -150c-12 -54 -28 -116 -28 -172c0 -20 7 -43 31 -43
s50 23 65 41c56 66 86 164 86 250c0 150 -97 237 -244 237c-226 0 -400 -204 -400 -423c0 -193 142 -304 327 -304c130 0 243 57 335 146l33 -41c-98 -98 -227 -160 -367 -160c-57 0 -121 13 -174 35c-139 59 -210 174 -210 323c0 255 199 478 460 478
c175 0 298 -109 298 -288zM540 357c0 50 -30 97 -84 97c-23 0 -46 -12 -63 -26c-50 -43 -75 -126 -75 -190c0 -51 22 -103 80 -103c75 0 119 89 134 151c5 23 8 47 8 71z" />
    <glyph glyph-name="A" unicode="A" horiz-adv-x="646" 
d="M634 0h-99l-77 216h-269l-79 -216h-100l269 706h98zM430 295l-103 295l-108 -295h211z" />
    <glyph glyph-name="B" unicode="B" horiz-adv-x="688" 
d="M640 195c-1 -127 -90 -170 -135 -183c-42 -13 -72 -12 -152 -12h-276v706h332c57 0 107 -12 152 -51c39 -33 58 -78 58 -130c0 -46 -15 -86 -48 -118c-15 -14 -32 -24 -38 -27c-4 -2 -11 -5 -22 -8c20 -6 38 -13 56 -25c30 -20 73 -64 73 -152zM520 520
c0 19 -1 59 -44 85c-28 17 -50 18 -109 18h-201v-214h148c59 0 107 1 129 7c26 6 77 31 77 104zM543 202c0 9 0 30 -9 51c-8 19 -31 58 -85 70c-31 7 -52 6 -110 6h-173v-246h209c39 0 71 2 85 6c6 1 21 5 36 14c21 13 47 39 47 99z" />
    <glyph glyph-name="C" unicode="C" horiz-adv-x="764" 
d="M742 256c-2 -10 -7 -31 -17 -56c-18 -46 -79 -161 -218 -202c-50 -15 -94 -16 -113 -16c-125 0 -196 50 -234 85c-47 44 -111 132 -111 286c0 220 133 371 357 371c40 0 173 -3 260 -105c29 -34 47 -70 62 -111l-95 -19c-12 34 -23 53 -32 66c-25 35 -85 94 -196 94
c-17 0 -60 -2 -103 -20c-148 -63 -149 -232 -149 -271c0 -170 81 -250 150 -279c18 -7 52 -18 103 -18c12 0 40 0 72 9c28 8 94 35 133 108c11 21 20 44 29 90z" />
    <glyph glyph-name="D" unicode="D" horiz-adv-x="708" 
d="M658 352c0 -39 -3 -83 -12 -121c-12 -50 -53 -177 -203 -218c-31 -9 -56 -12 -118 -12c-23 0 -46 -1 -68 -1h-179v706h280c36 0 114 -2 190 -66c54 -46 110 -129 110 -288zM562 353c0 65 -12 144 -55 197c-11 13 -22 24 -35 33c-26 19 -48 26 -60 29
c-33 10 -60 11 -126 11h-111v-541h167c26 0 105 3 159 66c32 36 61 98 61 205z" />
    <glyph glyph-name="E" unicode="E" horiz-adv-x="604" 
d="M577 0h-498v706h486v-83h-396v-218h344v-82h-344v-241h408v-82z" />
    <glyph glyph-name="F" unicode="F" horiz-adv-x="542" 
d="M531 622h-359v-208h334v-82h-334v-332h-94v706h453v-84z" />
    <glyph glyph-name="G" unicode="G" horiz-adv-x="812" 
d="M741 0h-82v99c-6 -8 -12 -20 -28 -35c-35 -35 -109 -82 -230 -82c-57 0 -110 10 -161 34c-71 34 -190 127 -190 328c0 46 6 167 96 268c41 45 119 112 268 112c21 0 74 -1 130 -21c36 -12 111 -45 168 -131c11 -17 20 -34 29 -53l-98 -25c-10 29 -23 55 -45 79
c-61 70 -155 73 -181 73c-107 0 -163 -49 -191 -81c-30 -34 -72 -101 -72 -210c0 -31 2 -116 55 -191c29 -40 85 -100 206 -100c26 0 93 3 156 46c87 60 89 147 88 184h-246v79h328v-373z" />
    <glyph glyph-name="H" unicode="H" horiz-adv-x="729" 
d="M651 0h-95v323h-384v-323h-93v706h93v-300h384v300h95v-706z" />
    <glyph glyph-name="I" unicode="I" horiz-adv-x="229" 
d="M162 0h-95v706h95v-706z" />
    <glyph glyph-name="J" unicode="J" horiz-adv-x="375" 
d="M297 187c0 -56 0 -99 -38 -143c-53 -62 -128 -62 -154 -62c-23 0 -49 1 -96 10v103l12 -6c22 -11 48 -14 71 -14c7 0 16 -1 31 2c25 4 47 13 62 35c16 24 16 56 16 116v478h96v-519z" />
    <glyph glyph-name="K" unicode="K" horiz-adv-x="625" 
d="M624 0h-115l-248 348l-100 -102v-246h-94v706h94v-345l335 345h116l-286 -292z" />
    <glyph glyph-name="L" unicode="L" 
d="M504 0h-436v706h94v-622h342v-84z" />
    <glyph glyph-name="M" unicode="M" horiz-adv-x="812" 
d="M746 0h-94l13 592l-223 -592h-73l-219 583l10 -583h-92v706h122l216 -579l218 579h122v-706z" />
    <glyph glyph-name="N" unicode="N" horiz-adv-x="708" 
d="M630 0h-85l-387 574l9 -574h-89v706h89l382 -566l-4 566h85v-706z" />
    <glyph glyph-name="O" unicode="O" horiz-adv-x="812" 
d="M762 359c0 -37 -3 -150 -74 -246c-39 -52 -124 -131 -284 -131c-43 0 -152 5 -243 90c-47 44 -110 129 -110 282c0 40 2 162 88 259c67 75 170 111 268 111c48 0 96 -8 140 -25c147 -57 215 -190 215 -340zM660 359c0 25 0 121 -55 196c-65 89 -160 93 -198 93
c-115 -1 -173 -58 -200 -97c-39 -56 -54 -133 -54 -198c0 -93 28 -156 47 -187c17 -26 37 -46 45 -53c29 -25 55 -36 68 -41c19 -7 48 -16 96 -16c18 0 62 1 107 21c68 31 145 113 144 282z" />
    <glyph glyph-name="P" unicode="P" horiz-adv-x="625" 
d="M614 507c0 -90 -45 -174 -137 -199c-25 -7 -52 -9 -106 -9h-204v-299h-91v706h305c55 0 102 0 149 -30c79 -50 84 -142 84 -169zM521 509c0 7 0 27 -7 47c-12 33 -39 55 -72 64c-21 5 -36 5 -57 5h-218v-242h197c26 0 51 -1 76 5c57 15 81 66 81 121z" />
    <glyph glyph-name="Q" unicode="Q" horiz-adv-x="812" 
d="M806 34l-60 -70l-112 95c-73 -54 -139 -77 -231 -77c-85 0 -163 22 -230 77c-51 42 -126 132 -126 294c0 50 7 209 143 306c39 28 105 65 218 65c86 0 162 -20 230 -75c53 -44 124 -134 124 -299c0 -87 -18 -148 -65 -222zM661 353c0 30 0 118 -54 196
c-65 94 -160 102 -202 102c-34 0 -113 -6 -178 -74c-77 -82 -77 -187 -77 -221c0 -36 1 -164 98 -244c25 -21 76 -54 160 -54c35 0 122 6 187 83c67 81 66 180 66 212z" />
    <glyph glyph-name="R" unicode="R" horiz-adv-x="667" 
d="M657 0h-112l-193 300h-182v-300h-92v706h263c22 0 45 1 67 0c98 -4 144 -35 174 -71c19 -23 43 -65 43 -135c0 -29 -4 -125 -94 -171c-17 -9 -34 -16 -72 -23zM532 500c0 20 -2 75 -56 108c-37 22 -81 20 -123 20h-183v-249h188c53 0 116 -1 152 48c16 22 22 46 22 73z
" />
    <glyph glyph-name="S" unicode="S" horiz-adv-x="667" 
d="M618 203c0 -28 -4 -91 -59 -145c-39 -38 -103 -76 -223 -76c-23 0 -119 1 -193 49c-22 14 -42 33 -57 53c-42 56 -47 120 -49 142l101 13c1 -21 3 -80 48 -127c25 -26 72 -56 155 -56c10 0 37 0 65 8c30 8 111 36 111 133c0 47 -20 67 -36 80c-28 22 -65 30 -98 37
l-61 13c-51 11 -108 23 -155 49c-85 46 -96 110 -96 152c0 56 25 103 67 138c72 60 160 58 189 58c68 0 134 -11 189 -53c33 -25 49 -49 57 -63c19 -32 27 -65 33 -101l-95 -6c-1 14 -3 28 -7 42c-14 50 -59 108 -175 108c-45 0 -106 -10 -137 -47c-15 -17 -24 -41 -24 -64
c0 -10 2 -32 17 -52c27 -37 82 -48 123 -58l78 -19c18 -4 37 -9 55 -14c22 -5 108 -24 151 -96c10 -17 26 -48 26 -98z" />
    <glyph glyph-name="T" unicode="T" horiz-adv-x="542" 
d="M528 624h-211v-624h-94v624h-212v82h517v-82z" />
    <glyph glyph-name="U" unicode="U" horiz-adv-x="688" 
d="M611 255c0 -7 1 -49 -6 -82c-6 -32 -28 -100 -103 -148c-29 -18 -81 -43 -164 -43c-37 0 -79 5 -115 19c-64 24 -116 77 -137 143c-10 34 -10 59 -10 125v437h94v-424c0 -27 -1 -55 3 -82c2 -16 10 -63 46 -97c17 -16 37 -27 59 -34c25 -7 53 -7 61 -7c17 0 62 0 105 28
c70 45 72 121 72 194v422h95v-451z" />
    <glyph glyph-name="V" unicode="V" horiz-adv-x="604" 
d="M592 706l-249 -706h-93l-239 706h100l187 -590l194 590h100z" />
    <glyph glyph-name="W" unicode="W" horiz-adv-x="1021" 
d="M1003 706l-216 -706h-92l-186 585l-180 -585h-94l-217 706h99l167 -585l179 585h92l186 -585l165 585h97z" />
    <glyph glyph-name="X" unicode="X" horiz-adv-x="625" 
d="M605 0h-111l-183 287l-181 -287h-109l235 370l-222 336h112l165 -254l158 254h111l-216 -336z" />
    <glyph glyph-name="Y" unicode="Y" horiz-adv-x="625" 
d="M611 706l-254 -383v-323h-95v323l-248 383h111l186 -299l188 299h112z" />
    <glyph glyph-name="Z" unicode="Z" horiz-adv-x="604" 
d="M571 0h-553v92l436 528h-401v86h508v-88l-434 -533h444v-85z" />
    <glyph glyph-name="bracketleft" unicode="[" horiz-adv-x="277" 
d="M252 -144h-184v923h184v-59h-104v-805h104v-59z" />
    <glyph glyph-name="backslash" unicode="\" horiz-adv-x="333" 
d="M321 0h-75l-233 702h77z" />
    <glyph glyph-name="bracketright" unicode="]" horiz-adv-x="276" 
d="M207 -143h-184v59h104v805h-104v58h184v-922z" />
    <glyph glyph-name="asciicircum" unicode="^" horiz-adv-x="724" 
d="M611 287h-91l-156 339l-157 -339h-94l204 419h91z" />
    <glyph glyph-name="underscore" unicode="_" horiz-adv-x="500" 
d="M510 -214h-520v75h520v-75z" />
    <glyph glyph-name="quoteleft" unicode="&#x2018;" horiz-adv-x="229" 
d="M162 440h-99v51c0 90 11 131 42 215h47c-18 -53 -28 -101 -33 -157h43v-109z" />
    <glyph glyph-name="a" unicode="a" horiz-adv-x="500" 
d="M486 3c-24 -8 -38 -9 -51 -9c-4 0 -32 0 -50 12c-8 6 -14 15 -16 18c-13 18 -14 30 -16 40c-22 -24 -70 -77 -161 -77c-32 0 -53 6 -65 10c-56 19 -95 64 -95 125c0 22 6 67 51 102c48 36 131 49 191 53l72 5c0 13 0 26 -1 39c-2 34 -8 104 -104 104c-15 0 -78 0 -97 -57
c-5 -15 -5 -26 -5 -42l-83 5c0 9 2 26 8 46c15 45 59 109 173 109c14 0 40 -1 74 -10c19 -5 82 -24 105 -88c9 -25 10 -49 10 -101v-154c0 -10 0 -21 1 -31c1 -11 2 -36 35 -36c10 0 15 2 24 4v-67zM347 193c0 9 -1 19 -1 28v9c-37 -6 -131 -18 -168 -34
c-15 -6 -58 -26 -58 -72c0 -35 26 -70 89 -70c43 0 138 18 138 139z" />
    <glyph glyph-name="b" unicode="b" horiz-adv-x="562" 
d="M524 236c0 -26 0 -106 -51 -173c-28 -37 -58 -53 -74 -60s-47 -18 -93 -18c-56 0 -87 16 -108 28c-22 13 -38 27 -53 48v-61h-80v706h80v-300c4 6 10 16 22 27c37 37 89 53 140 53c32 0 102 -5 159 -71c27 -32 58 -84 58 -179zM439 239c0 15 1 60 -22 101
c-14 24 -50 73 -124 73c-57 0 -89 -27 -104 -43c-24 -25 -45 -62 -46 -136c0 -52 11 -84 22 -104c13 -26 49 -77 128 -77c27 0 54 6 76 21c33 22 70 73 70 165z" />
    <glyph glyph-name="c" unicode="c" 
d="M494 170c-13 -79 -54 -123 -79 -143c-54 -42 -121 -42 -142 -42c-14 0 -51 0 -89 14c-57 20 -145 83 -145 233c1 151 83 218 143 240c38 14 70 14 86 14c125 0 182 -68 204 -116c7 -15 10 -26 13 -42l-88 -8c-2 8 -6 33 -20 55c-33 51 -89 53 -108 53
c-72 0 -142 -48 -142 -191c0 -83 27 -130 54 -156c27 -25 58 -34 94 -34c21 0 41 3 60 12c52 23 65 69 73 119z" />
    <glyph glyph-name="d" unicode="d" horiz-adv-x="562" 
d="M497 0h-80v60c-24 -28 -68 -75 -161 -75c-90 0 -136 43 -159 71c-27 32 -58 86 -58 181c0 60 11 116 48 165c21 29 73 84 168 84c67 0 114 -31 134 -47c12 -10 19 -18 28 -30v297h80v-706zM419 236c0 9 0 36 -6 61c-16 68 -68 115 -139 116c-21 0 -71 -3 -109 -49
c-32 -38 -40 -82 -40 -130c0 -18 -1 -78 36 -127c38 -49 88 -51 111 -51c28 0 54 6 76 20c35 22 72 70 71 160z" />
    <glyph glyph-name="e" unicode="e" 
d="M483 144c-4 -10 -13 -38 -31 -66c-24 -36 -76 -93 -182 -93c-49 0 -81 11 -99 19c-58 25 -132 89 -132 236c0 87 29 136 53 165c43 52 108 81 175 81c24 0 52 -5 74 -13c29 -10 87 -38 119 -112c13 -31 23 -69 23 -140h-358c-1 -84 39 -132 68 -152c24 -16 55 -24 85 -24
c43 0 65 16 79 29c5 4 17 16 26 31c12 21 17 44 19 50zM396 279c-2 24 -4 35 -7 46c-16 58 -66 99 -128 99c-85 0 -127 -70 -134 -145h269z" />
    <glyph glyph-name="f" unicode="f" horiz-adv-x="271" 
d="M271 695l-1 -63c-3 1 -26 5 -43 5c-9 0 -37 0 -51 -27c-8 -14 -9 -26 -9 -57v-82h89v-66h-89v-405h-78v405h-78v66h78v41c0 64 0 94 12 124c25 64 94 65 112 65c10 0 31 -1 58 -6z" />
    <glyph glyph-name="g" unicode="g" horiz-adv-x="562" 
d="M497 25c0 -64 -1 -88 -11 -122c-26 -88 -94 -112 -126 -121c-16 -4 -43 -11 -82 -11c-14 0 -43 1 -79 11c-114 31 -130 121 -136 164h90c0 -11 0 -39 20 -65c34 -46 94 -45 110 -45c11 0 80 -1 111 48c18 29 21 63 20 130l-1 54c-54 -74 -116 -83 -154 -83
c-48 0 -84 15 -99 23c-51 27 -119 91 -119 225c0 22 1 107 49 171c40 52 89 82 170 82c12 0 36 -2 64 -12c21 -8 55 -26 90 -67v64h83v-446zM417 242c0 9 -1 43 -10 72c-21 64 -76 101 -141 100c-21 0 -43 -5 -61 -14c-38 -19 -82 -68 -82 -165c0 -54 13 -114 59 -150
c26 -20 57 -28 90 -28c48 0 75 18 90 31c29 26 55 70 55 154z" />
    <glyph glyph-name="h" unicode="h" 
d="M458 0h-81v249c0 32 2 74 -9 105c-15 42 -52 62 -95 62c-20 0 -74 -6 -105 -59c-23 -41 -22 -85 -22 -128v-229h-80v706h80l1 -282c54 58 109 62 142 62c63 0 100 -22 120 -40c4 -4 11 -11 20 -24c31 -45 29 -96 29 -149v-273z" />
    <glyph glyph-name="i" unicode="i" horiz-adv-x="208" 
d="M146 614h-77v92h77v-92zM146 0h-77v471h77v-471z" />
    <glyph glyph-name="j" unicode="j" horiz-adv-x="208" 
d="M143 613h-78v93h78v-93zM143 -104c0 -35 0 -68 -25 -95c-31 -33 -75 -30 -89 -30c-17 0 -35 2 -52 4v71c19 -2 25 -3 36 -3c5 0 22 0 36 10c16 11 16 29 16 65v553h78v-575z" />
    <glyph glyph-name="k" unicode="k" horiz-adv-x="458" 
d="M472 0h-100l-169 226l-57 -60v-166h-81v706h81v-435l188 200h98l-175 -186z" />
    <glyph glyph-name="l" unicode="l" horiz-adv-x="208" 
d="M143 0h-76v706h76v-706z" />
    <glyph glyph-name="m" unicode="m" horiz-adv-x="771" 
d="M707 0h-79v276c0 46 7 99 -43 125c-6 3 -23 10 -43 10c-46 -1 -99 -33 -113 -78c-5 -15 -6 -34 -6 -68v-265h-78v265c0 44 8 101 -36 130c-8 6 -25 15 -51 15c-5 0 -16 0 -29 -4c-32 -8 -71 -33 -83 -66c-6 -15 -7 -29 -7 -60v-280h-75v471h75l1 -63c10 12 18 20 30 31
c33 29 65 47 111 47c16 0 64 -4 98 -44c12 -13 20 -28 29 -43c6 5 11 11 16 16c14 14 68 72 142 71c59 0 96 -37 109 -52c34 -40 32 -89 32 -139v-295z" />
    <glyph glyph-name="n" unicode="n" 
d="M455 0h-79v300c0 14 4 60 -36 90c-12 9 -34 21 -71 21c-35 0 -63 -11 -88 -35c-6 -6 -20 -21 -28 -43c-9 -22 -9 -42 -9 -65v-268h-80v471h80v-69c10 17 20 28 25 33c17 18 58 51 123 51c21 0 92 -6 134 -65c31 -43 29 -89 29 -140v-281z" />
    <glyph glyph-name="o" unicode="o" horiz-adv-x="542" 
d="M502 235c0 -26 -3 -106 -55 -171c-26 -31 -77 -79 -175 -79c-28 0 -106 3 -163 62c-30 30 -69 87 -69 186c0 61 16 122 54 171c46 59 107 82 181 82c32 0 66 -6 94 -18c55 -23 135 -90 133 -233zM416 236c1 13 1 74 -24 120c-7 13 -18 27 -29 36c-34 29 -71 30 -86 30
c-151 0 -150 -165 -150 -192c0 -23 3 -41 4 -48c5 -34 29 -134 141 -133c22 0 76 5 112 59c30 45 32 118 32 128z" />
    <glyph glyph-name="p" unicode="p" horiz-adv-x="562" 
d="M523 234c0 -26 0 -104 -51 -170c-25 -32 -73 -79 -170 -79c-23 0 -84 2 -136 46c-6 5 -13 12 -23 24v-279h-78v695h78l1 -67c6 7 20 24 40 39c49 38 108 43 127 43c48 0 83 -18 99 -27c49 -27 113 -92 113 -225zM441 237c0 10 0 46 -12 79c-11 30 -47 99 -141 95
c-26 -1 -53 -9 -74 -23c-33 -22 -71 -70 -71 -161c0 -65 19 -99 37 -123c13 -16 30 -29 49 -37c11 -5 31 -12 62 -12c69 0 98 30 115 54c35 49 35 110 35 128z" />
    <glyph glyph-name="q" unicode="q" horiz-adv-x="562" 
d="M497 -225h-81v281c-12 -15 -20 -22 -27 -27c-39 -32 -87 -44 -135 -44c-75 0 -114 26 -139 48c-76 66 -75 168 -75 196c0 63 14 134 56 184c7 9 23 26 47 41c19 12 57 32 112 32c25 0 85 -5 135 -53c8 -8 15 -15 26 -32v70h81v-696zM422 219c0 18 0 87 -38 138
c-5 7 -22 28 -48 41c-10 5 -31 12 -62 13c-14 0 -52 0 -86 -24c-50 -36 -61 -96 -61 -153c0 -17 -3 -104 54 -152c36 -30 77 -32 93 -32c14 0 43 1 74 18c37 19 74 61 74 151z" />
    <glyph glyph-name="r" unicode="r" horiz-adv-x="313" 
d="M306 391c-29 4 -45 3 -59 0c-47 -8 -83 -40 -95 -86c-7 -24 -7 -41 -7 -87v-218h-80v471h80v-86c11 21 25 39 44 54s56 38 117 38v-86z" />
    <glyph glyph-name="s" unicode="s" horiz-adv-x="479" 
d="M447 134c0 -12 -2 -42 -21 -71c-24 -37 -78 -78 -178 -78c-14 0 -88 1 -140 34c-8 5 -20 13 -34 30c-34 41 -40 85 -43 103l91 13c0 -31 3 -58 26 -83c28 -31 66 -36 105 -36c10 0 57 -1 88 27c21 19 22 41 22 52c0 5 -1 22 -9 35c-17 27 -63 35 -89 40l-46 9
c-59 12 -86 22 -111 37c-38 23 -57 55 -57 100c0 14 2 46 25 77c48 63 141 63 158 63c99 0 153 -49 176 -83c19 -29 23 -59 25 -72l-86 -10c-1 23 -2 33 -7 44c-12 26 -51 60 -119 60c-65 0 -93 -39 -93 -69c0 -6 1 -14 7 -25c15 -25 51 -36 107 -49l46 -11
c14 -3 29 -8 43 -12c62 -19 114 -53 114 -125z" />
    <glyph glyph-name="t" unicode="t" horiz-adv-x="292" 
d="M259 0c-6 -1 -45 -8 -76 -8c-45 0 -68 11 -80 29s-11 37 -11 78v306h-76v66h76v149h82v-149h85v-66h-85v-270c0 -33 -2 -52 6 -66c6 -11 16 -14 29 -14c9 0 28 3 50 11v-66z" />
    <glyph glyph-name="u" unicode="u" 
d="M454 0h-78l-1 72c-4 -6 -9 -13 -20 -24c-38 -38 -86 -60 -140 -60c-17 0 -90 3 -126 62c-27 45 -24 96 -24 145v276h79v-268c0 -50 0 -72 11 -95c10 -20 35 -45 86 -45c18 0 78 4 112 54c24 35 23 78 23 118v236h78v-471z" />
    <glyph glyph-name="v" unicode="v" horiz-adv-x="437" 
d="M426 471l-170 -471h-72l-172 471h83l125 -361l124 361h82z" />
    <glyph glyph-name="w" unicode="w" horiz-adv-x="729" 
d="M719 471l-173 -471h-70l-113 351l-115 -351h-73l-164 471h86l118 -350l116 350h70l111 -350l123 350h84z" />
    <glyph glyph-name="x" unicode="x" horiz-adv-x="396" 
d="M387 0h-90l-100 168l-98 -168h-90l146 239l-139 232h92l94 -162l95 162h90l-142 -232z" />
    <glyph glyph-name="y" unicode="y" horiz-adv-x="437" 
d="M425 471l-198 -557c-8 -22 -19 -54 -30 -74c-27 -53 -57 -73 -117 -73c-16 0 -39 1 -71 10v72c11 -3 26 -8 51 -8c7 0 27 -1 44 10c28 18 41 61 50 88l20 58l-160 474h85l118 -374l125 374h83z" />
    <glyph glyph-name="z" unicode="z" horiz-adv-x="417" 
d="M389 0h-376v66l271 336h-245v69h344v-64l-274 -341h280v-66z" />
    <glyph glyph-name="braceleft" unicode="{" horiz-adv-x="281" 
d="M268 -148h-38c-51 0 -78 10 -99 35c-11 13 -19 28 -23 44c-5 22 -6 37 -6 83v6v161c0 41 -2 59 -10 73c-11 20 -32 30 -75 34v60c30 2 41 5 56 14c23 14 29 34 29 92v161v6c0 45 1 61 6 83c13 53 52 76 122 78l38 1v-58h-17c-27 0 -41 -5 -52 -16c-6 -7 -10 -14 -12 -22
c-4 -15 -4 -22 -4 -71v-164c0 -82 -17 -110 -82 -135c23 -7 32 -11 47 -24c26 -24 35 -50 35 -110v-165c0 -46 0 -55 4 -70c7 -26 27 -38 65 -38h16v-58z" />
    <glyph glyph-name="bar" unicode="|" horiz-adv-x="236" 
d="M157 -143h-80v922h80v-922z" />
    <glyph glyph-name="braceright" unicode="}" horiz-adv-x="281" 
d="M263 287c-30 -3 -41 -6 -56 -15c-23 -13 -29 -33 -29 -91l1 -162v-5c0 -46 -2 -61 -7 -84c-13 -53 -52 -78 -121 -78h-39v58h17c28 0 41 4 52 16c6 6 10 14 12 22c4 14 5 23 5 70l-1 164c-1 83 17 110 82 136c-23 6 -32 11 -47 24c-26 23 -35 50 -35 110l1 164
c0 46 -1 56 -5 71c-7 26 -27 37 -65 37h-16v58h38c51 0 78 -9 99 -35c11 -13 19 -27 23 -43c5 -23 7 -38 7 -84v-5l-1 -162c0 -40 3 -58 10 -72c12 -21 32 -30 75 -34v-60z" />
    <glyph glyph-name="asciitilde" unicode="~" horiz-adv-x="724" 
d="M651 315c-31 -38 -45 -52 -72 -70c-31 -20 -60 -30 -93 -30c-22 0 -38 4 -66 15c-17 6 -33 13 -54 23l-35 17c-46 22 -75 31 -104 31c-12 0 -23 -2 -33 -6c-23 -9 -36 -24 -69 -62l-6 -7l-45 61c24 34 34 44 53 61c29 26 66 40 105 40c35 0 61 -9 133 -41l45 -20
c46 -21 59 -25 79 -25c22 0 47 9 66 23c17 12 26 21 51 50z" />
    <glyph glyph-name="exclamdown" unicode="&#xa1;" horiz-adv-x="271" 
d="M156 616h-79v90h79v-90zM156 0h-79v288l24 271h31l24 -282v-277z" />
    <glyph glyph-name="cent" unicode="&#xa2;" horiz-adv-x="500" 
d="M484 172c-21 -99 -71 -146 -124 -168c-29 -12 -61 -15 -69 -16v-103h-60v103c-10 2 -72 9 -121 51c-63 56 -82 141 -82 198c0 71 26 172 125 221c34 17 68 21 79 23v96h59v-95c50 -7 140 -25 183 -158l-90 -8c-8 75 -63 93 -93 101v-364c47 8 100 37 105 127zM231 54v365
c-6 -2 -18 -4 -33 -12c-50 -26 -85 -80 -85 -170c0 -50 10 -127 74 -166c17 -10 41 -17 44 -17z" />
    <glyph glyph-name="sterling" unicode="&#xa3;" horiz-adv-x="667" 
d="M653 172c-5 -65 -37 -139 -99 -170c-14 -7 -34 -14 -69 -14c-22 0 -55 2 -104 19c-28 10 -55 25 -82 36c-12 -9 -23 -19 -36 -27c-29 -19 -70 -31 -105 -31c-11 0 -25 2 -36 5c-63 16 -76 62 -76 87c0 7 1 26 13 44c13 20 42 43 96 43c17 0 56 -3 100 -18c1 5 3 12 2 22
c-2 27 -15 60 -17 65c-11 24 -21 39 -27 48h-177v65l131 1c-48 78 -61 121 -61 167c0 24 5 75 46 122c72 83 186 88 216 88c23 0 90 -2 150 -42c33 -22 94 -77 97 -183l-105 -10c1 7 3 25 -1 46c-7 40 -39 117 -148 117c-10 0 -32 0 -58 -9c-28 -9 -89 -38 -89 -120
c0 -73 41 -117 77 -177h209v-65h-173c12 -36 21 -54 21 -93c0 -13 -2 -41 -11 -76c4 -2 9 -5 13 -8c8 -5 65 -33 111 -33c64 0 98 48 99 107zM227 77c-12 5 -24 8 -36 11c-2 1 -20 6 -34 6c-10 0 -21 -2 -28 -12c-1 -1 -4 -7 -4 -12c0 -10 10 -24 32 -24c15 0 42 6 70 31z
" />
    <glyph glyph-name="yen" unicode="&#xa5;" horiz-adv-x="625" 
d="M611 677l-171 -247h112v-72h-159l-38 -52h197v-72h-195v-234h-94v234h-194v72h194l-32 51h-162v71h113l-168 249h112l185 -287l189 287h111z" />
    <glyph glyph-name="florin" unicode="&#x192;" horiz-adv-x="437" 
d="M437 704l-14 -60c-15 5 -32 5 -36 5c-43 0 -47 -48 -53 -74l-25 -104h85l-15 -62h-84l-130 -541c-21 -86 -66 -97 -109 -97c-31 0 -45 7 -60 12l15 59c10 -4 20 -7 31 -7c42 0 48 35 55 65l120 509h-72l15 62h72l34 132c5 18 8 32 16 49c15 35 39 62 99 62
c25 0 48 -7 56 -10z" />
    <glyph glyph-name="section" unicode="&#xa7;" horiz-adv-x="625" 
d="M589 297c0 -65 -38 -125 -94 -157c29 -26 50 -60 50 -100c0 -23 -7 -45 -18 -65c-37 -68 -112 -97 -187 -97c-87 0 -184 42 -261 81l40 74c62 -44 148 -76 224 -76c44 0 103 17 103 71v3c0 53 -51 63 -92 81c-79 35 -228 92 -282 159c-23 28 -35 64 -35 100
c0 63 41 122 95 153c-26 26 -42 51 -42 89c0 69 52 121 114 143c28 10 57 15 87 15h6c66 0 129 -21 189 -48c18 -8 36 -18 54 -25l-40 -71c-65 37 -127 71 -205 71c-41 0 -114 -17 -114 -70c0 -47 48 -62 84 -76c58 -22 116 -42 172 -69c79 -38 152 -87 152 -186zM502 288
c0 18 -7 36 -17 51c-40 58 -147 91 -210 117l-64 26c-40 -14 -83 -57 -83 -101c0 -31 15 -54 38 -73c47 -40 192 -99 249 -125c43 16 87 56 87 105z" />
    <glyph glyph-name="currency" unicode="&#xa4;" horiz-adv-x="663" 
d="M618 569l-75 -75c37 -55 51 -98 51 -155c0 -58 -15 -103 -52 -156l75 -76l-56 -55l-75 76c-60 -40 -95 -52 -155 -52c-61 0 -99 13 -155 52l-76 -74l-55 55l76 74c-38 53 -52 97 -52 157s14 101 52 155l-74 74l55 55l74 -74c51 37 97 52 156 52s111 -17 155 -52l75 75z
M508 338c0 103 -75 180 -176 180c-100 0 -177 -77 -177 -178c0 -102 77 -179 180 -179c97 0 173 77 173 177z" />
    <glyph glyph-name="quotesingle" unicode="'" horiz-adv-x="177" 
d="M133 743l-28 -294h-32l-29 294h89z" />
    <glyph glyph-name="quotedblleft" unicode="&#x201c;" horiz-adv-x="375" 
d="M311 440h-99v57c0 71 13 143 42 209h46c-18 -42 -31 -110 -32 -157h43v-109zM162 440h-99v57c0 72 13 143 42 209h47c-17 -47 -33 -107 -33 -157h43v-109z" />
    <glyph glyph-name="guillemotleft" unicode="&#xab;" horiz-adv-x="396" 
d="M334 141l-134 113v83l134 116v-89l-80 -71l80 -66v-86zM177 137l-135 113v85l135 117v-91l-78 -68l78 -67v-89z" />
    <glyph glyph-name="guilsinglleft" unicode="&#x2039;" horiz-adv-x="250" 
d="M182 141l-134 113v83l134 116v-89l-80 -71l80 -66v-86z" />
    <glyph glyph-name="guilsinglright" unicode="&#x203a;" horiz-adv-x="250" 
d="M202 250l-134 -116v90l80 70l-80 67v85l134 -113v-83z" />
    <glyph glyph-name="endash" unicode="&#x2013;" horiz-adv-x="600" 
d="M555 262h-510v76h510v-76z" />
    <glyph glyph-name="dagger" unicode="&#x2020;" horiz-adv-x="458" 
d="M441 421h-170v-421h-80v421h-171v79h171v206h80v-206h170v-79z" />
    <glyph glyph-name="daggerdbl" unicode="&#x2021;" horiz-adv-x="458" 
d="M441 181h-170v-181h-80v181h-172v79h172v161h-171v79h171v206h80v-206h170v-79h-170v-161h170v-79z" />
    <glyph glyph-name="periodcentered" unicode="&#xb7;" horiz-adv-x="200" 
d="M151 228h-102v124h102v-124z" />
    <glyph glyph-name="paragraph" unicode="&#xb6;" horiz-adv-x="642" 
d="M525 652h-33v-819h-57v819h-146v-819h-57v490c-25 4 -32 6 -46 11c-68 25 -110 92 -110 175c0 56 19 106 55 141c41 40 87 56 169 56h225v-54z" />
    <glyph glyph-name="bullet" unicode="&#x2022;" horiz-adv-x="333" 
d="M281 241h-228v227h228v-227z" />
    <glyph glyph-name="quotesinglbase" unicode="&#x201a;" horiz-adv-x="229" 
d="M162 49c0 -71 -12 -140 -41 -205h-47c17 49 33 104 33 156h-44v109h99v-60z" />
    <glyph glyph-name="quotedblbase" unicode="&#x201e;" horiz-adv-x="375" 
d="M311 42c0 -58 -11 -115 -30 -169c-4 -10 -8 -19 -12 -29h-46c19 57 27 95 32 156h-43v109h99v-67zM162 49c0 -71 -12 -140 -41 -205h-47c17 49 33 104 33 156h-44v109h99v-60z" />
    <glyph glyph-name="quotedblright" unicode="&#x201d;" horiz-adv-x="375" 
d="M311 639c0 -58 -10 -115 -30 -170c-4 -10 -8 -19 -12 -29h-46c20 59 26 93 32 156h-43v110h99v-67zM162 645c0 -71 -12 -140 -41 -205h-47c17 49 33 104 33 156h-44v110h99v-61z" />
    <glyph glyph-name="guillemotright" unicode="&#xbb;" horiz-adv-x="396" 
d="M353 253l-135 -117v90l79 69l-79 66v89l135 -113v-84zM196 250l-134 -116v90l80 70l-80 67v85l134 -113v-83z" />
    <glyph glyph-name="ellipsis" unicode="&#x2026;" horiz-adv-x="1000" 
d="M881 0h-95v93h95v-93zM547 0h-95v93h95v-93zM213 0h-94v93h94v-93z" />
    <glyph glyph-name="perthousand" unicode="&#x2030;" horiz-adv-x="1250" 
d="M1227 220c-1 -154 -74 -228 -164 -229c-32 0 -55 8 -68 15c-56 29 -97 100 -97 207c0 58 11 153 75 205c38 31 79 32 90 32c25 0 50 -6 72 -19c57 -34 93 -105 92 -211zM849 213c-1 -36 -5 -72 -17 -107c-26 -77 -76 -114 -143 -115c-96 -1 -165 71 -166 222
c-1 60 8 168 92 218c12 7 36 19 68 19c95 1 168 -86 166 -237zM620 656l-317 -685l-55 26l318 685zM353 450c0 -36 -4 -73 -16 -109c-37 -106 -113 -117 -147 -117c-29 0 -54 10 -64 15c-83 42 -100 155 -100 210c-1 58 16 175 101 219c26 13 52 15 61 15
c93 1 166 -84 165 -233zM1160 219c0 99 -26 171 -96 173c-35 1 -54 -17 -67 -35c-30 -39 -33 -97 -33 -136c0 -16 1 -33 3 -49c8 -81 47 -123 96 -123c90 -1 97 126 97 170zM784 213c0 29 -2 58 -9 88c-16 70 -56 90 -91 90c-71 -1 -99 -77 -97 -178c1 -96 34 -165 101 -165
c65 0 95 69 96 165zM288 450c0 27 -1 54 -7 82c-15 70 -55 93 -91 94c-20 0 -37 -9 -45 -14c-38 -25 -54 -83 -53 -161c1 -99 30 -170 99 -169c21 0 39 9 47 15c36 27 50 80 50 153z" />
    <glyph glyph-name="questiondown" unicode="&#xbf;" horiz-adv-x="562" 
d="M311 609h-89v97h89v-97zM492 232c0 -61 -11 -116 -53 -165c-25 -28 -77 -73 -171 -73c-123 0 -231 87 -231 216c0 71 37 140 102 172c28 14 58 20 88 22v152h78v-236c-11 1 -32 0 -32 0c-3 0 -62 -3 -94 -19c-19 -9 -32 -24 -36 -30c-9 -11 -24 -35 -24 -71
c0 -22 5 -44 16 -63c15 -26 57 -68 135 -68c10 0 45 1 74 17c28 16 61 55 61 129c0 6 -1 12 -1 18z" />
    <glyph glyph-name="grave" unicode="`" horiz-adv-x="271" 
d="M201 521h-48l-83 144h89z" />
    <glyph glyph-name="acute" unicode="&#xb4;" horiz-adv-x="271" 
d="M199 666l-86 -144h-41l41 144h86z" />
    <glyph glyph-name="circumflex" unicode="&#x2c6;" horiz-adv-x="271" 
d="M268 523h-75l-61 95l-59 -95h-70l94 151h67z" />
    <glyph glyph-name="tilde" unicode="&#x2dc;" horiz-adv-x="271" 
d="M282 635h-1c0 -4 -11 -101 -82 -100c-23 0 -45 9 -86 25c-20 7 -31 10 -41 10c-26 0 -33 -25 -33 -31h-49c0 10 11 100 86 99c32 0 59 -15 89 -25c0 -1 21 -9 36 -9c27 0 32 24 32 31h49z" />
    <glyph glyph-name="macron" unicode="&#xaf;" horiz-adv-x="271" 
d="M278 541h-285v68h285v-68z" />
    <glyph glyph-name="dieresis" unicode="&#xa8;" horiz-adv-x="271" 
d="M278 541h-89v103h89v-103zM80 541h-87v103h87v-103z" />
    <glyph glyph-name="cedilla" unicode="&#xb8;" horiz-adv-x="271" 
d="M203 -117c0 -7 -2 -24 -13 -41c-25 -36 -74 -43 -114 -45l1 23c3 -1 13 -2 23 1c16 4 28 18 28 35c0 8 -4 17 -6 19c-12 18 -34 20 -54 29l73 112l29 -7l-29 -52c10 -6 21 -11 31 -17c26 -19 31 -46 31 -57z" />
    <glyph glyph-name="emdash" unicode="&#x2014;" horiz-adv-x="895" 
d="M850 262h-805v76h805v-76z" />
    <glyph glyph-name="AE" unicode="&#xc6;" horiz-adv-x="1042" 
d="M1014 0h-500v232h-252l-154 -232h-110l483 706h521v-83h-395v-231h319v-79h-319v-231h407v-82zM514 313v302l-197 -302h197z" />
    <glyph glyph-name="ordfeminine" unicode="&#xaa;" horiz-adv-x="313" 
d="M298 429c-5 -2 -15 -5 -27 -6c-35 -1 -49 19 -57 37c-22 -24 -48 -42 -96 -41c-44 0 -88 26 -88 79c0 78 75 92 181 98v11c0 37 -6 70 -56 70c-15 0 -57 -1 -57 -53v-6l-55 4c1 1 3 25 10 40c21 47 66 56 101 56c56 0 89 -26 101 -59c5 -12 6 -29 6 -40v-109
c0 -13 1 -40 22 -40c8 0 11 2 15 5v-46zM211 543v17l-21 -3c-40 -6 -80 -16 -91 -28s-11 -22 -11 -26c-2 -31 26 -41 49 -41c30 1 74 15 74 81z" />
    <glyph glyph-name="Oslash" unicode="&#xd8;" horiz-adv-x="812" 
d="M763 355c0 -52 -11 -106 -30 -154c-58 -142 -181 -219 -334 -219c-98 0 -163 28 -238 89l-65 -62l-49 50l69 66c-22 38 -66 114 -66 228c0 43 8 172 102 270c39 42 115 101 252 101c28 0 55 -3 82 -8c42 -9 90 -25 160 -82l69 65l48 -51l-70 -68c24 -35 70 -112 70 -225z
M580 571c-26 29 -79 78 -179 78c-34 0 -119 -6 -181 -82c-48 -58 -66 -145 -66 -217c0 -31 2 -87 32 -157zM659 341c0 28 -3 99 -38 171l-397 -381c54 -53 106 -75 182 -75c89 0 140 38 167 63c82 77 86 190 86 222z" />
    <glyph glyph-name="OE" unicode="&#x152;" horiz-adv-x="1146" 
d="M1119 0h-501v82c-34 -37 -105 -100 -232 -100c-42 0 -142 6 -225 88c-44 43 -111 133 -111 286c0 133 50 211 86 254c67 80 157 114 260 114c41 0 143 -3 222 -92v74h490v-84h-400v-219h323v-82h-323v-239h411v-82zM618 356c0 71 -6 139 -47 201c-57 86 -143 94 -180 94
c-34 0 -110 -7 -170 -76c-33 -39 -71 -106 -71 -223c0 -69 13 -135 54 -194c60 -87 143 -98 184 -98c36 0 122 10 179 92c43 63 50 131 51 204z" />
    <glyph glyph-name="ordmasculine" unicode="&#xba;" horiz-adv-x="333" 
d="M307 565c0 -83 -51 -148 -139 -148c-88 -1 -140 62 -142 144c0 17 2 35 7 52c26 98 115 103 135 103c92 0 139 -74 139 -151zM250 567c0 48 -21 103 -84 104c-44 0 -83 -30 -83 -106c0 -14 2 -27 5 -40c6 -22 24 -62 77 -64c45 -1 85 26 85 106z" />
    <glyph glyph-name="ae" unicode="&#xe6;" horiz-adv-x="812" 
d="M779 214h-342c0 -17 -1 -72 34 -117c13 -17 44 -47 101 -47c52 0 91 30 109 78c2 6 4 11 6 22l84 -13c-6 -23 -16 -56 -55 -93c-60 -57 -122 -59 -154 -59c-39 0 -124 6 -177 99c-24 -31 -81 -99 -191 -99c-11 0 -35 1 -62 9c-58 17 -99 60 -99 124c0 60 39 108 91 131
c55 25 114 22 233 23c0 30 -1 44 -5 59c-13 54 -53 94 -110 94c-9 0 -28 -1 -48 -10c-18 -9 -50 -33 -53 -85l-84 6c3 25 7 45 20 68c19 34 68 82 163 82c20 0 80 -1 127 -44c8 -7 19 -18 32 -40c2 3 18 25 32 37c19 18 63 47 130 47c34 0 103 -6 159 -77
c28 -34 60 -93 59 -195zM694 272c-1 15 -3 62 -36 101c-10 12 -45 47 -96 47c-22 0 -67 -8 -99 -56c-25 -37 -27 -78 -27 -92h258zM357 214h-47c-13 0 -57 0 -100 -9c-10 -2 -50 -10 -75 -38c-5 -5 -19 -23 -19 -46c0 -29 25 -73 94 -73c19 0 65 3 102 42
c21 22 43 57 45 124z" />
    <glyph glyph-name="oslash" unicode="&#xf8;" horiz-adv-x="542" 
d="M506 432l-46 -46c11 -15 15 -23 18 -31c10 -21 25 -61 25 -121c0 -15 -1 -54 -15 -95c-17 -48 -73 -154 -218 -154c-60 0 -115 20 -157 64l-40 -40l-35 36l43 42c-16 26 -40 71 -40 146c0 18 1 62 20 109c36 88 117 144 212 144c57 0 111 -23 154 -61l44 43zM373 372
c-14 15 -46 50 -104 50c-26 0 -50 -7 -71 -21c-33 -21 -73 -69 -73 -159c0 -21 0 -51 17 -94zM421 230c0 17 0 59 -20 98l-232 -225c5 -7 8 -12 14 -18c14 -13 44 -37 93 -36c25 0 50 7 70 20c33 21 75 70 75 161z" />
    <glyph glyph-name="oe" unicode="&#x153;" horiz-adv-x="875" 
d="M838 214h-355c0 -20 2 -66 34 -109c15 -20 48 -57 112 -56c35 0 61 11 84 35c10 11 20 25 26 37c7 13 10 26 12 31l81 -11c-18 -54 -48 -85 -64 -100c-22 -21 -67 -56 -145 -56c-29 0 -108 6 -164 72c-5 5 -13 17 -17 22c-21 -32 -72 -94 -174 -94c-19 0 -66 3 -112 28
c-49 27 -115 90 -114 222c0 23 0 92 40 152c23 35 80 99 189 99c99 0 148 -57 171 -87c23 32 72 87 172 87c34 0 112 -5 169 -81c53 -71 55 -169 55 -191zM750 275c-1 9 -3 30 -13 56c-30 77 -87 91 -121 91c-24 0 -44 -8 -52 -12c-52 -25 -76 -82 -81 -136zM403 233
c0 84 -29 134 -58 158c-11 10 -38 28 -80 28c-27 0 -48 -9 -57 -13c-40 -21 -81 -74 -81 -173c0 -15 -1 -113 66 -159c10 -7 36 -22 72 -22c12 0 35 1 62 16c76 41 76 151 76 165z" />
    <glyph glyph-name="germandbls" unicode="&#xdf;" horiz-adv-x="542" 
d="M503 232c0 -127 -45 -183 -97 -213c-21 -12 -61 -30 -120 -30c-32 0 -63 6 -94 15v84c14 -5 53 -21 99 -21c17 0 68 1 101 46c29 40 30 101 30 111c0 18 0 64 -34 104c-36 42 -84 55 -188 55l1 79c76 -8 116 6 142 32c18 18 27 41 27 66c0 62 -53 91 -109 90
c-37 0 -60 -10 -73 -19c-49 -32 -45 -89 -45 -139v-492h-79v497c0 55 -1 110 33 158c24 34 72 69 162 69c18 0 79 0 128 -35c24 -17 63 -53 63 -126c0 -20 -2 -69 -43 -108c-20 -20 -35 -25 -47 -30c97 -13 128 -93 136 -124c7 -29 7 -59 7 -69z" />
    <glyph glyph-name="Ydieresis" unicode="&#x178;" horiz-adv-x="625" 
d="M454 781h-87v102h87v-102zM258 781h-87v102h87v-102zM611 706l-254 -383v-323h-95v323l-248 383h111l186 -299l188 299h112z" />
    <glyph glyph-name="trademark" unicode="&#x2122;" horiz-adv-x="694" 
d="M621 374h-54l2 261l-78 -261h-54l-75 257l1 -257h-56v332h78l82 -265l79 265h75v-332zM273 657h-95v-283h-59v283h-96v49h250v-49z" />
    <glyph glyph-name="scaron" unicode="&#x161;" horiz-adv-x="479" 
d="M366 673l-96 -151h-67l-102 151h74l61 -96l59 96h71zM447 134c0 -75 -66 -149 -199 -149c-98 0 -157 34 -189 86c-10 16 -23 43 -28 81l91 14v-9c0 -113 111 -111 130 -111c76 0 111 33 111 79c0 49 -30 61 -98 75l-45 9c-66 13 -171 36 -169 139c1 72 58 138 183 138
c90 0 151 -42 179 -87c17 -29 21 -60 22 -68l-86 -11c0 10 -2 33 -6 43c-15 32 -57 62 -119 62c-61 0 -95 -36 -94 -71c2 -43 52 -57 114 -72l45 -11c68 -17 158 -42 158 -137z" />
    <glyph glyph-name="Scaron" unicode="&#x160;" horiz-adv-x="667" 
d="M468 895l-101 -124h-65l-106 124h76l62 -77l59 77h75zM618 197c-3 -111 -90 -215 -280 -215c-155 0 -245 60 -283 158c-14 37 -18 74 -18 86l101 13c0 -68 37 -181 200 -183c78 -1 178 33 179 140c1 86 -71 104 -134 118l-60 13c-97 21 -247 51 -252 194
c-3 94 66 168 164 193c21 6 51 10 97 10c130 -1 205 -51 245 -123c22 -41 26 -81 29 -94l-95 -7c-1 9 -1 32 -12 58c-23 55 -76 93 -169 93c-104 0 -163 -46 -162 -111c1 -83 88 -97 140 -110l77 -19c20 -5 34 -8 54 -13c49 -13 183 -50 179 -201z" />
    <glyph glyph-name="ydieresis" unicode="&#xff;" horiz-adv-x="437" 
d="M363 541h-89v103h89v-103zM165 541h-87v103h87v-103zM425 471l-198 -557c-8 -22 -19 -54 -30 -74c-27 -53 -57 -73 -117 -73c-16 0 -39 1 -71 10v72c11 -3 26 -8 51 -8c7 0 27 -1 44 10c28 18 41 61 50 88l20 58l-160 474h85l118 -374l125 374h83z" />
    <glyph glyph-name="thorn" unicode="&#xfe;" horiz-adv-x="562" 
d="M523 233c-1 -131 -72 -250 -224 -248c-76 1 -126 33 -156 70v-279h-78v930h78v-303c64 79 145 82 162 83c57 2 102 -22 124 -39c53 -39 95 -107 94 -214zM441 233c1 89 -42 182 -152 178c-28 -1 -54 -9 -76 -24c-41 -27 -70 -81 -70 -162c1 -89 46 -172 153 -170
c36 1 61 11 76 20c39 25 69 80 69 158z" />
    <glyph glyph-name="yacute" unicode="&#xfd;" horiz-adv-x="437" 
d="M323 666l-86 -144h-41l41 144h86zM425 471l-198 -557c-41 -116 -71 -147 -145 -147c-23 0 -44 2 -66 8l-7 2v72c6 -2 28 -8 49 -8c55 -1 73 31 90 81c0 0 2 6 26 75l-160 474h85l118 -374l125 374h83z" />
    <glyph glyph-name="udieresis" unicode="&#xfc;" 
d="M401 541h-89v103h89v-103zM203 541h-87v103h87v-103zM454 0h-78l-1 72c-4 -6 -9 -13 -20 -24c-38 -38 -86 -60 -140 -60c-17 0 -90 3 -126 62c-27 45 -24 96 -24 145v276h79v-268c0 -50 0 -72 11 -95c10 -20 35 -45 86 -45c18 0 78 4 112 54c24 35 23 78 23 118v236h78
v-471z" />
    <glyph glyph-name="ucircumflex" unicode="&#xfb;" 
d="M397 523h-76l-61 95l-59 -95h-70l94 151h68zM454 0h-78l-1 72c-4 -6 -9 -13 -20 -24c-38 -38 -86 -60 -140 -60c-17 0 -90 3 -126 62c-27 45 -24 96 -24 145v276h79v-268c0 -50 0 -72 11 -95c10 -20 35 -45 86 -45c18 0 78 4 112 54c24 35 23 78 23 118v236h78v-471z" />
    <glyph glyph-name="uacute" unicode="&#xfa;" 
d="M360 666l-86 -144h-42l42 144h86zM454 0h-78l-1 72c-4 -6 -9 -13 -20 -24c-38 -38 -86 -60 -140 -60c-17 0 -90 3 -126 62c-27 45 -24 96 -24 145v276h79v-268c0 -50 0 -72 11 -95c10 -20 35 -45 86 -45c18 0 78 4 112 54c24 35 23 78 23 118v236h78v-471z" />
    <glyph glyph-name="ugrave" unicode="&#xf9;" 
d="M295 521h-48l-82 144h89zM454 0h-78l-1 72c-4 -6 -9 -13 -20 -24c-38 -38 -86 -60 -140 -60c-17 0 -90 3 -126 62c-27 45 -24 96 -24 145v276h79v-268c0 -50 0 -72 11 -95c10 -20 35 -45 86 -45c18 0 78 4 112 54c24 35 23 78 23 118v236h78v-471z" />
    <glyph glyph-name="divide" unicode="&#xf7;" horiz-adv-x="724" 
d="M407 409h-89v110h89v-110zM645 260h-566v81h566v-81zM407 82h-89v110h89v-110z" />
    <glyph glyph-name="odieresis" unicode="&#xf6;" horiz-adv-x="542" 
d="M418 541h-88v103h88v-103zM220 541h-87v103h87v-103zM502 235c0 -32 -5 -144 -98 -210c-23 -17 -63 -40 -132 -40c-26 0 -102 3 -158 57c-31 30 -74 90 -74 191c0 28 3 103 53 170c46 60 107 83 182 83c32 0 66 -6 94 -18c55 -23 135 -90 133 -233zM416 236
c1 12 1 72 -22 117c-11 20 -25 34 -31 39c-34 29 -70 30 -87 30c-149 0 -149 -165 -149 -192c1 -40 6 -80 28 -117c13 -23 45 -65 115 -64c66 0 100 38 114 59c30 45 32 119 32 128z" />
    <glyph glyph-name="otilde" unicode="&#xf5;" horiz-adv-x="542" 
d="M417 635c-1 -4 -12 -101 -83 -100c-23 0 -45 9 -87 25c-20 7 -30 10 -41 10c-26 0 -31 -25 -33 -31h-48c1 10 12 100 87 99c31 0 59 -15 87 -25c2 -1 23 -9 38 -9c27 0 31 24 32 31h48zM502 235c0 -26 -3 -106 -55 -171c-26 -31 -77 -79 -175 -79c-28 0 -106 3 -163 62
c-30 30 -69 87 -69 186c0 61 16 122 54 171c46 59 107 82 181 82c32 0 66 -6 94 -18c55 -23 135 -90 133 -233zM416 236c1 13 1 74 -24 120c-7 13 -18 27 -29 36c-34 29 -71 30 -86 30c-151 0 -150 -165 -150 -192c0 -23 3 -41 4 -48c5 -34 29 -134 141 -133
c22 0 76 5 112 59c30 45 32 118 32 128z" />
    <glyph glyph-name="ocircumflex" unicode="&#xf4;" horiz-adv-x="542" 
d="M407 523h-75l-61 95l-59 -95h-70l94 151h67zM502 235c0 -26 -3 -106 -55 -171c-26 -31 -77 -79 -175 -79c-28 0 -106 3 -163 62c-30 30 -69 87 -69 186c0 61 16 122 54 171c46 59 107 82 181 82c32 0 66 -6 94 -18c55 -23 135 -90 133 -233zM416 236c1 13 1 74 -24 120
c-7 13 -18 27 -29 36c-34 29 -71 30 -86 30c-151 0 -150 -165 -150 -192c0 -23 3 -41 4 -48c5 -34 29 -134 141 -133c22 0 76 5 112 59c30 45 32 118 32 128z" />
    <glyph glyph-name="oacute" unicode="&#xf3;" horiz-adv-x="542" 
d="M370 666l-86 -144h-41l41 144h86zM502 235c0 -26 -3 -106 -55 -171c-26 -31 -77 -79 -175 -79c-28 0 -106 3 -163 62c-30 30 -69 87 -69 186c0 61 16 122 54 171c46 59 107 82 181 82c32 0 66 -6 94 -18c55 -23 135 -90 133 -233zM416 236c1 13 1 74 -24 120
c-7 13 -18 27 -29 36c-34 29 -71 30 -86 30c-151 0 -150 -165 -150 -192c0 -23 3 -41 4 -48c5 -34 29 -134 141 -133c22 0 76 5 112 59c30 45 32 118 32 128z" />
    <glyph glyph-name="ograve" unicode="&#xf2;" horiz-adv-x="542" 
d="M305 521h-47l-83 144h89zM502 235c0 -26 -3 -106 -55 -171c-26 -31 -77 -79 -175 -79c-28 0 -106 3 -163 62c-30 30 -69 87 -69 186c0 61 16 122 54 171c46 59 107 82 181 82c32 0 66 -6 94 -18c55 -23 135 -90 133 -233zM416 236c1 13 1 74 -24 120c-7 13 -18 27 -29 36
c-34 29 -71 30 -86 30c-151 0 -150 -165 -150 -192c0 -23 3 -41 4 -48c5 -34 29 -134 141 -133c22 0 76 5 112 59c30 45 32 118 32 128z" />
    <glyph glyph-name="ntilde" unicode="&#xf1;" 
d="M406 635c0 -4 -11 -101 -83 -100c-22 0 -44 9 -86 25c-20 7 -31 10 -41 10c-26 0 -31 -25 -33 -31h-49c2 10 13 100 88 99c31 0 59 -15 87 -25c2 -1 22 -9 38 -9c26 0 30 24 32 31h47zM455 0h-79v300c0 14 4 60 -36 90c-12 9 -34 21 -71 21c-35 0 -63 -11 -88 -35
c-6 -6 -20 -21 -28 -43c-9 -22 -9 -42 -9 -65v-268h-80v471h80v-69c10 17 20 28 25 33c17 18 58 51 123 51c21 0 92 -6 134 -65c31 -43 29 -89 29 -140v-281z" />
    <glyph glyph-name="eth" unicode="&#xf0;" horiz-adv-x="542" 
d="M502 257c0 -49 -6 -83 -12 -103c-19 -71 -76 -169 -218 -169c-215 -1 -232 195 -232 250c0 58 12 96 23 121c44 98 132 132 209 130c65 -1 101 -29 129 -57c-2 7 -21 90 -60 143l-178 -58l-18 45l165 55c-26 34 -59 63 -71 75l62 29c31 -28 32 -32 75 -83l85 29l19 -47
l-74 -24c71 -115 96 -221 96 -336zM416 236v7c0 134 -68 182 -145 179c-115 -4 -143 -106 -144 -187c0 -12 -5 -186 145 -186c79 0 144 52 144 187z" />
    <glyph glyph-name="idieresis" unicode="&#xef;" horiz-adv-x="208" 
d="M248 541h-88v103h88v-103zM50 541h-87v103h87v-103zM144 0h-77v471h77v-471z" />
    <glyph glyph-name="icircumflex" unicode="&#xee;" horiz-adv-x="208" 
d="M240 523h-75l-61 95l-59 -95h-70l94 151h68zM144 0h-77v471h77v-471z" />
    <glyph glyph-name="iacute" unicode="&#xed;" horiz-adv-x="208" 
d="M203 666l-86 -144h-41l41 144h86zM144 0h-77v471h77v-471z" />
    <glyph glyph-name="igrave" unicode="&#xec;" horiz-adv-x="208" 
d="M139 521h-48l-82 144h88zM144 0h-77v471h77v-471z" />
    <glyph glyph-name="edieresis" unicode="&#xeb;" 
d="M415 541h-89v103h89v-103zM217 541h-87v103h87v-103zM483 144c-4 -10 -13 -38 -31 -66c-24 -36 -76 -93 -182 -93c-49 0 -81 11 -99 19c-58 25 -132 89 -132 236c0 87 29 136 53 165c43 52 108 81 175 81c24 0 52 -5 74 -13c29 -10 87 -38 119 -112
c13 -31 23 -69 23 -140h-358c-1 -84 39 -132 68 -152c24 -16 55 -24 85 -24c43 0 65 16 79 29c5 4 17 16 26 31c12 21 17 44 19 50zM396 279c-2 24 -4 35 -7 46c-16 58 -66 99 -128 99c-85 0 -127 -70 -134 -145h269z" />
    <glyph glyph-name="ecircumflex" unicode="&#xea;" 
d="M397 523h-76l-61 95l-59 -95h-70l94 151h68zM483 144c-4 -10 -13 -38 -31 -66c-24 -36 -76 -93 -182 -93c-49 0 -81 11 -99 19c-58 25 -132 89 -132 236c0 87 29 136 53 165c43 52 108 81 175 81c24 0 52 -5 74 -13c29 -10 87 -38 119 -112c13 -31 23 -69 23 -140h-358
c-1 -84 39 -132 68 -152c24 -16 55 -24 85 -24c43 0 65 16 79 29c5 4 17 16 26 31c12 21 17 44 19 50zM396 279c-2 24 -4 35 -7 46c-16 58 -66 99 -128 99c-85 0 -127 -70 -134 -145h269z" />
    <glyph glyph-name="eacute" unicode="&#xe9;" 
d="M365 666l-86 -144h-42l42 144h86zM483 144c-4 -10 -13 -38 -31 -66c-24 -36 -76 -93 -182 -93c-49 0 -81 11 -99 19c-58 25 -132 89 -132 236c0 87 29 136 53 165c43 52 108 81 175 81c24 0 52 -5 74 -13c29 -10 87 -38 119 -112c13 -31 23 -69 23 -140h-358
c-1 -84 39 -132 68 -152c24 -16 55 -24 85 -24c43 0 65 16 79 29c5 4 17 16 26 31c12 21 17 44 19 50zM396 279c-2 24 -4 35 -7 46c-16 58 -66 99 -128 99c-85 0 -127 -70 -134 -145h269z" />
    <glyph glyph-name="egrave" unicode="&#xe8;" 
d="M295 521h-48l-82 144h89zM483 144c-4 -10 -13 -38 -31 -66c-24 -36 -76 -93 -182 -93c-49 0 -81 11 -99 19c-58 25 -132 89 -132 236c0 87 29 136 53 165c43 52 108 81 175 81c24 0 52 -5 74 -13c29 -10 87 -38 119 -112c13 -31 23 -69 23 -140h-358
c-1 -84 39 -132 68 -152c24 -16 55 -24 85 -24c43 0 65 16 79 29c5 4 17 16 26 31c12 21 17 44 19 50zM396 279c-2 24 -4 35 -7 46c-16 58 -66 99 -128 99c-85 0 -127 -70 -134 -145h269z" />
    <glyph glyph-name="ccedilla" unicode="&#xe7;" 
d="M494 170c-19 -114 -92 -158 -139 -173c-18 -5 -30 -7 -62 -10l-18 -30c14 -9 63 -24 63 -74c0 -49 -46 -86 -127 -86v23c2 -1 4 -1 7 -1c32 0 46 21 45 38c-3 33 -41 39 -60 47l53 82c-29 3 -61 6 -90 20c-71 34 -130 114 -127 236c3 131 72 205 147 232
c27 9 59 12 86 12c54 -1 115 -12 167 -68c25 -26 35 -52 39 -62c6 -16 6 -19 7 -28l-88 -9c-1 5 -5 32 -18 52c-36 58 -95 57 -106 57c-81 3 -145 -53 -146 -188c-1 -139 68 -193 148 -193c115 0 128 98 133 131z" />
    <glyph glyph-name="aring" unicode="&#xe5;" horiz-adv-x="500" 
d="M341 608c0 -52 -43 -95 -95 -95c-53 0 -94 43 -94 95s42 95 94 95c53 -1 95 -43 95 -95zM486 3c-24 -8 -38 -9 -51 -9c-4 0 -32 0 -50 12c-8 6 -14 15 -16 18c-13 18 -14 30 -16 40c-22 -24 -70 -77 -161 -77c-32 0 -53 6 -65 10c-56 19 -95 64 -95 125c0 22 6 67 51 102
c48 36 131 49 191 53l72 5c0 13 0 26 -1 39c-2 34 -8 104 -104 104c-15 0 -78 0 -97 -57c-5 -15 -5 -26 -5 -42l-83 5c0 9 2 26 8 46c15 45 59 109 173 109c14 0 40 -1 74 -10c19 -5 82 -24 105 -88c9 -25 10 -49 10 -101v-154c0 -10 0 -21 1 -31c1 -11 2 -36 35 -36
c10 0 15 2 24 4v-67zM297 609c0 27 -23 51 -51 51c-29 0 -51 -24 -51 -52s22 -51 51 -51s51 24 51 52zM347 193c0 9 -1 19 -1 28v9c-37 -6 -131 -18 -168 -34c-15 -6 -58 -26 -58 -72c0 -35 26 -70 89 -70c43 0 138 18 138 139z" />
    <glyph glyph-name="adieresis" unicode="&#xe4;" horiz-adv-x="500" 
d="M390 541h-89v103h89v-103zM192 541h-87v103h87v-103zM486 3c-24 -8 -38 -9 -51 -9c-4 0 -32 0 -50 12c-8 6 -14 15 -16 18c-13 18 -14 30 -16 40c-22 -24 -70 -77 -161 -77c-32 0 -53 6 -65 10c-56 19 -95 64 -95 125c0 22 6 67 51 102c48 36 131 49 191 53l72 5
c0 13 0 26 -1 39c-2 34 -8 104 -104 104c-15 0 -78 0 -97 -57c-5 -15 -5 -26 -5 -42l-83 5c0 9 2 26 8 46c15 45 59 109 173 109c14 0 40 -1 74 -10c19 -5 82 -24 105 -88c9 -25 10 -49 10 -101v-154c0 -10 0 -21 1 -31c1 -11 2 -36 35 -36c10 0 15 2 24 4v-67zM347 193
c0 9 -1 19 -1 28v9c-37 -6 -131 -18 -168 -34c-15 -6 -58 -26 -58 -72c0 -35 26 -70 89 -70c43 0 138 18 138 139z" />
    <glyph glyph-name="atilde" unicode="&#xe3;" horiz-adv-x="500" 
d="M396 635c-1 -4 -12 -101 -83 -100c-22 0 -45 9 -87 25c-19 7 -30 10 -40 10c-26 0 -32 -25 -33 -31h-49c1 10 12 100 87 99c31 0 59 -14 88 -25c1 0 22 -9 37 -9c27 0 31 24 32 31h48zM486 3c-24 -8 -38 -9 -51 -9c-4 0 -32 0 -50 12c-8 6 -14 15 -16 18
c-13 18 -14 30 -16 40c-22 -24 -70 -77 -161 -77c-32 0 -53 6 -65 10c-56 19 -95 64 -95 125c0 22 6 67 51 102c48 36 131 49 191 53l72 5c0 13 0 26 -1 39c-2 34 -8 104 -104 104c-15 0 -78 0 -97 -57c-5 -15 -5 -26 -5 -42l-83 5c0 9 2 26 8 46c15 45 59 109 173 109
c14 0 40 -1 74 -10c19 -5 82 -24 105 -88c9 -25 10 -49 10 -101v-154c0 -10 0 -21 1 -31c1 -11 2 -36 35 -36c10 0 15 2 24 4v-67zM347 193c0 9 -1 19 -1 28v9c-37 -6 -131 -18 -168 -34c-15 -6 -58 -26 -58 -72c0 -35 26 -70 89 -70c43 0 138 18 138 139z" />
    <glyph glyph-name="acircumflex" unicode="&#xe2;" horiz-adv-x="500" 
d="M386 523h-75l-61 95l-59 -95h-70l94 151h67zM486 3c-24 -8 -38 -9 -51 -9c-4 0 -32 0 -50 12c-8 6 -14 15 -16 18c-13 18 -14 30 -16 40c-22 -24 -70 -77 -161 -77c-32 0 -53 6 -65 10c-56 19 -95 64 -95 125c0 22 6 67 51 102c48 36 131 49 191 53l72 5c0 13 0 26 -1 39
c-2 34 -8 104 -104 104c-15 0 -78 0 -97 -57c-5 -15 -5 -26 -5 -42l-83 5c0 9 2 26 8 46c15 45 59 109 173 109c14 0 40 -1 74 -10c19 -5 82 -24 105 -88c9 -25 10 -49 10 -101v-154c0 -10 0 -21 1 -31c1 -11 2 -36 35 -36c10 0 15 2 24 4v-67zM347 193c0 9 -1 19 -1 28v9
c-37 -6 -131 -18 -168 -34c-15 -6 -58 -26 -58 -72c0 -35 26 -70 89 -70c43 0 138 18 138 139z" />
    <glyph glyph-name="aacute" unicode="&#xe1;" horiz-adv-x="500" 
d="M354 666l-86 -144h-41l41 144h86zM486 3c-24 -8 -38 -9 -51 -9c-4 0 -32 0 -50 12c-8 6 -14 15 -16 18c-13 18 -14 30 -16 40c-22 -24 -70 -77 -161 -77c-32 0 -53 6 -65 10c-56 19 -95 64 -95 125c0 22 6 67 51 102c48 36 131 49 191 53l72 5c0 13 0 26 -1 39
c-2 34 -8 104 -104 104c-15 0 -78 0 -97 -57c-5 -15 -5 -26 -5 -42l-83 5c0 9 2 26 8 46c15 45 59 109 173 109c14 0 40 -1 74 -10c19 -5 82 -24 105 -88c9 -25 10 -49 10 -101v-154c0 -10 0 -21 1 -31c1 -11 2 -36 35 -36c10 0 15 2 24 4v-67zM347 193c0 9 -1 19 -1 28v9
c-37 -6 -131 -18 -168 -34c-15 -6 -58 -26 -58 -72c0 -35 26 -70 89 -70c43 0 138 18 138 139z" />
    <glyph glyph-name="agrave" unicode="&#xe0;" horiz-adv-x="500" 
d="M279 521h-47l-83 144h89zM486 3c-24 -8 -38 -9 -51 -9c-4 0 -32 0 -50 12c-8 6 -14 15 -16 18c-13 18 -14 30 -16 40c-22 -24 -70 -77 -161 -77c-32 0 -53 6 -65 10c-56 19 -95 64 -95 125c0 22 6 67 51 102c48 36 131 49 191 53l72 5c0 13 0 26 -1 39
c-2 34 -8 104 -104 104c-15 0 -78 0 -97 -57c-5 -15 -5 -26 -5 -42l-83 5c0 9 2 26 8 46c15 45 59 109 173 109c14 0 40 -1 74 -10c19 -5 82 -24 105 -88c9 -25 10 -49 10 -101v-154c0 -10 0 -21 1 -31c1 -11 2 -36 35 -36c10 0 15 2 24 4v-67zM347 193c0 9 -1 19 -1 28v9
c-37 -6 -131 -18 -168 -34c-15 -6 -58 -26 -58 -72c0 -35 26 -70 89 -70c43 0 138 18 138 139z" />
    <glyph glyph-name="Thorn" unicode="&#xde;" horiz-adv-x="625" 
d="M614 379c1 -74 -33 -169 -132 -199c-38 -12 -93 -10 -99 -10h-216v-170h-91v706h91v-129h230c9 0 55 1 93 -11c93 -31 123 -116 124 -187zM521 379c2 120 -114 116 -136 116h-218v-242h197c44 0 101 -6 138 52c20 30 19 67 19 74z" />
    <glyph glyph-name="Yacute" unicode="&#xdd;" horiz-adv-x="625" 
d="M417 895l-87 -124h-60l48 124h99zM611 706l-254 -383v-323h-95v323l-248 383h111l186 -299l188 299h112z" />
    <glyph glyph-name="Udieresis" unicode="&#xdc;" horiz-adv-x="688" 
d="M485 781h-87v102h87v-102zM288 781h-87v102h87v-102zM611 255c0 -7 1 -49 -6 -82c-6 -32 -28 -100 -103 -148c-29 -18 -81 -43 -164 -43c-37 0 -79 5 -115 19c-64 24 -116 77 -137 143c-10 34 -10 59 -10 125v437h94v-424c0 -27 -1 -55 3 -82c2 -16 10 -63 46 -97
c17 -16 37 -27 59 -34c25 -7 53 -7 61 -7c17 0 62 0 105 28c70 45 72 121 72 194v422h95v-451z" />
    <glyph glyph-name="Ucircumflex" unicode="&#xdb;" horiz-adv-x="688" 
d="M482 771h-77l-62 74l-59 -74h-75l101 124h65zM611 255c0 -7 1 -49 -6 -82c-6 -32 -28 -100 -103 -148c-29 -18 -81 -43 -164 -43c-37 0 -79 5 -115 19c-64 24 -116 77 -137 143c-10 34 -10 59 -10 125v437h94v-424c0 -27 -1 -55 3 -82c2 -16 10 -63 46 -97
c17 -16 37 -27 59 -34c25 -7 53 -7 61 -7c17 0 62 0 105 28c70 45 72 121 72 194v422h95v-451z" />
    <glyph glyph-name="Uacute" unicode="&#xda;" horiz-adv-x="688" 
d="M449 895l-87 -124h-60l48 124h99zM611 255c0 -7 1 -49 -6 -82c-6 -32 -28 -100 -103 -148c-29 -18 -81 -43 -164 -43c-37 0 -79 5 -115 19c-64 24 -116 77 -137 143c-10 34 -10 59 -10 125v437h94v-424c0 -27 -1 -55 3 -82c2 -16 10 -63 46 -97c17 -16 37 -27 59 -34
c25 -7 53 -7 61 -7c17 0 62 0 105 28c70 45 72 121 72 194v422h95v-451z" />
    <glyph glyph-name="Ugrave" unicode="&#xd9;" horiz-adv-x="688" 
d="M386 771h-60l-87 124h99zM611 255c0 -7 1 -49 -6 -82c-6 -32 -28 -100 -103 -148c-29 -18 -81 -43 -164 -43c-37 0 -79 5 -115 19c-64 24 -116 77 -137 143c-10 34 -10 59 -10 125v437h94v-424c0 -27 -1 -55 3 -82c2 -16 10 -63 46 -97c17 -16 37 -27 59 -34
c25 -7 53 -7 61 -7c17 0 62 0 105 28c70 45 72 121 72 194v422h95v-451z" />
    <glyph glyph-name="multiply" unicode="&#xd7;" horiz-adv-x="724" 
d="M576 146l-61 -62l-163 159l-158 -160l-56 55l158 160l-164 161l62 62l163 -160l157 160l56 -55l-157 -160z" />
    <glyph glyph-name="Odieresis" unicode="&#xd6;" horiz-adv-x="812" 
d="M552 781h-87v102h87v-102zM356 781h-87v102h87v-102zM762 359c0 -37 -3 -150 -74 -246c-39 -52 -124 -131 -284 -131c-43 0 -152 5 -243 90c-47 44 -110 129 -110 282c0 40 2 162 88 259c67 75 170 111 268 111c48 0 96 -8 140 -25c147 -57 215 -190 215 -340zM660 359
c0 25 0 121 -55 196c-65 89 -160 93 -198 93c-115 -1 -173 -58 -200 -97c-39 -56 -54 -133 -54 -198c0 -93 28 -156 47 -187c17 -26 37 -46 45 -53c29 -25 55 -36 68 -41c19 -7 48 -16 96 -16c18 0 62 1 107 21c68 31 145 113 144 282z" />
    <glyph glyph-name="Otilde" unicode="&#xd5;" horiz-adv-x="812" 
d="M552 882c-1 -7 -3 -23 -10 -41c-5 -12 -22 -61 -73 -60c-21 0 -42 8 -82 24c-23 9 -34 12 -46 12c-2 0 -6 0 -10 -1c-7 -3 -19 -12 -22 -30h-48c7 48 21 71 40 85s37 14 47 14c34 0 61 -18 92 -28c3 -1 20 -6 33 -6c5 0 11 1 15 4c9 5 12 11 17 27h47zM762 359
c0 -37 -3 -150 -74 -246c-39 -52 -124 -131 -284 -131c-43 0 -152 5 -243 90c-47 44 -110 129 -110 282c0 40 2 162 88 259c67 75 170 111 268 111c48 0 96 -8 140 -25c147 -57 215 -190 215 -340zM660 359c0 25 0 121 -55 196c-65 89 -160 93 -198 93
c-115 -1 -173 -58 -200 -97c-39 -56 -54 -133 -54 -198c0 -93 28 -156 47 -187c17 -26 37 -46 45 -53c29 -25 55 -36 68 -41c19 -7 48 -16 96 -16c18 0 62 1 107 21c68 31 145 113 144 282z" />
    <glyph glyph-name="Ocircumflex" unicode="&#xd4;" horiz-adv-x="812" 
d="M545 771h-77l-62 74l-60 -74h-74l100 124h65zM762 359c0 -37 -3 -150 -74 -246c-39 -52 -124 -131 -284 -131c-43 0 -152 5 -243 90c-47 44 -110 129 -110 282c0 40 2 162 88 259c67 75 170 111 268 111c48 0 96 -8 140 -25c147 -57 215 -190 215 -340zM660 359
c0 25 0 121 -55 196c-65 89 -160 93 -198 93c-115 -1 -173 -58 -200 -97c-39 -56 -54 -133 -54 -198c0 -93 28 -156 47 -187c17 -26 37 -46 45 -53c29 -25 55 -36 68 -41c19 -7 48 -16 96 -16c18 0 62 1 107 21c68 31 145 113 144 282z" />
    <glyph glyph-name="Oacute" unicode="&#xd3;" horiz-adv-x="812" 
d="M511 895l-87 -124h-60l48 124h99zM762 359c0 -37 -3 -150 -74 -246c-39 -52 -124 -131 -284 -131c-43 0 -152 5 -243 90c-47 44 -110 129 -110 282c0 40 2 162 88 259c67 75 170 111 268 111c48 0 96 -8 140 -25c147 -57 215 -190 215 -340zM660 359c0 25 0 121 -55 196
c-65 89 -160 93 -198 93c-115 -1 -173 -58 -200 -97c-39 -56 -54 -133 -54 -198c0 -93 28 -156 47 -187c17 -26 37 -46 45 -53c29 -25 55 -36 68 -41c19 -7 48 -16 96 -16c18 0 62 1 107 21c68 31 145 113 144 282z" />
    <glyph glyph-name="Ograve" unicode="&#xd2;" horiz-adv-x="812" 
d="M448 771h-59l-87 124h99zM762 359c0 -37 -3 -150 -74 -246c-39 -52 -124 -131 -284 -131c-43 0 -152 5 -243 90c-47 44 -110 129 -110 282c0 40 2 162 88 259c67 75 170 111 268 111c48 0 96 -8 140 -25c147 -57 215 -190 215 -340zM660 359c0 25 0 121 -55 196
c-65 89 -160 93 -198 93c-115 -1 -173 -58 -200 -97c-39 -56 -54 -133 -54 -198c0 -93 28 -156 47 -187c17 -26 37 -46 45 -53c29 -25 55 -36 68 -41c19 -7 48 -16 96 -16c18 0 62 1 107 21c68 31 145 113 144 282z" />
    <glyph glyph-name="Ntilde" unicode="&#xd1;" horiz-adv-x="708" 
d="M500 882c-1 -7 -3 -23 -10 -41c-5 -12 -22 -61 -73 -60c-21 0 -42 8 -83 24c-22 9 -33 12 -45 12c-2 0 -6 0 -10 -1c-7 -3 -19 -12 -22 -30h-48c7 48 21 71 40 85s37 14 47 14c34 0 61 -18 92 -28c3 -1 20 -6 33 -6c5 0 11 1 15 4c9 5 12 11 17 27h47zM630 0h-85
l-387 574l9 -574h-89v706h89l382 -566l-4 566h85v-706z" />
    <glyph glyph-name="Eth" unicode="&#xd0;" horiz-adv-x="708" 
d="M658 347c0 -29 7 -283 -229 -338c-28 -6 -51 -8 -107 -8c-24 0 -41 -1 -65 -1h-179v341h-65v60h65v305h248c45 0 88 0 133 -15c113 -38 201 -146 199 -344zM562 349c0 87 -16 226 -153 264c-27 7 -54 10 -108 10h-126v-222h168v-60h-168v-259h125c63 0 105 6 132 17
c80 31 129 116 130 250z" />
    <glyph glyph-name="Idieresis" unicode="&#xcf;" horiz-adv-x="229" 
d="M256 781h-87v102h87v-102zM60 781h-87v102h87v-102zM162 0h-95v706h95v-706z" />
    <glyph glyph-name="Icircumflex" unicode="&#xce;" horiz-adv-x="229" 
d="M253 771h-77l-62 74l-59 -74h-75l101 124h65zM162 0h-95v706h95v-706z" />
    <glyph glyph-name="Iacute" unicode="&#xcd;" horiz-adv-x="229" 
d="M219 895l-86 -124h-60l48 124h98zM162 0h-95v706h95v-706z" />
    <glyph glyph-name="Igrave" unicode="&#xcc;" horiz-adv-x="229" 
d="M156 771h-59l-87 124h99zM162 0h-95v706h95v-706z" />
    <glyph glyph-name="Edieresis" unicode="&#xcb;" horiz-adv-x="604" 
d="M460 781h-88v102h88v-102zM263 781h-87v102h87v-102zM577 0h-498v706h486v-83h-396v-218h344v-82h-344v-241h408v-82z" />
    <glyph glyph-name="Ecircumflex" unicode="&#xca;" horiz-adv-x="604" 
d="M456 771h-77l-62 74l-59 -74h-75l101 124h65zM577 0h-498v706h486v-83h-396v-218h344v-82h-344v-241h408v-82z" />
    <glyph glyph-name="Eacute" unicode="&#xc9;" horiz-adv-x="604" 
d="M417 895l-87 -124h-60l48 124h99zM577 0h-498v706h486v-83h-396v-218h344v-82h-344v-241h408v-82z" />
    <glyph glyph-name="Egrave" unicode="&#xc8;" horiz-adv-x="604" 
d="M354 771h-59l-87 124h99zM577 0h-498v706h486v-83h-396v-218h344v-82h-344v-241h408v-82z" />
    <glyph glyph-name="Ccedilla" unicode="&#xc7;" horiz-adv-x="764" 
d="M742 256c-20 -101 -98 -209 -212 -251c-37 -14 -73 -17 -109 -20l-16 -28c13 -10 62 -22 62 -74c0 -49 -46 -86 -127 -86v23c2 -1 5 -1 7 -1c32 0 46 21 45 38c-2 26 -23 35 -60 47l52 79c-46 5 -98 9 -143 30c-96 43 -192 154 -192 342c1 218 133 369 358 369
c196 0 289 -112 321 -216l-95 -20c-4 11 -13 44 -39 76c-36 45 -98 85 -188 85c-113 0 -254 -68 -253 -294c1 -140 67 -295 252 -295c123 0 214 76 235 208z" />
    <glyph glyph-name="Aring" unicode="&#xc5;" horiz-adv-x="646" 
d="M423 848c0 -53 -44 -95 -96 -95c-53 0 -95 43 -95 96c0 52 43 94 96 94c52 0 95 -42 95 -95zM634 0h-99l-77 216h-269l-79 -216h-100l269 706h98zM378 849c0 28 -23 50 -51 50s-50 -23 -50 -51s23 -50 51 -50c27 0 50 23 50 51zM430 295l-103 295l-108 -295h211z" />
    <glyph glyph-name="Adieresis" unicode="&#xc4;" horiz-adv-x="646" 
d="M467 781h-87v102h87v-102zM271 781h-87v102h87v-102zM634 0h-99l-77 216h-269l-79 -216h-100l269 706h98zM430 295l-103 295l-108 -295h211z" />
    <glyph glyph-name="Atilde" unicode="&#xc3;" horiz-adv-x="646" 
d="M469 882c-1 -7 -4 -23 -11 -41c-4 -12 -21 -61 -72 -60c-22 0 -42 8 -83 24c-22 9 -33 12 -45 12c-2 0 -6 1 -11 -1c-6 -2 -18 -12 -21 -30h-49c8 48 22 71 41 85s37 14 47 14c34 0 60 -18 92 -28c2 -1 19 -6 32 -6c5 0 12 1 16 4c8 5 11 11 17 27h47zM634 0h-99l-77 216
h-269l-79 -216h-100l269 706h98zM430 295l-103 295l-108 -295h211z" />
    <glyph glyph-name="Acircumflex" unicode="&#xc2;" horiz-adv-x="646" 
d="M461 771h-77l-62 74l-59 -74h-75l101 124h65zM634 0h-99l-77 216h-269l-79 -216h-100l269 706h98zM430 295l-103 295l-108 -295h211z" />
    <glyph glyph-name="Aacute" unicode="&#xc1;" horiz-adv-x="646" 
d="M428 895l-87 -124h-60l48 124h99zM634 0h-99l-77 216h-269l-79 -216h-100l269 706h98zM430 295l-103 295l-108 -295h211z" />
    <glyph glyph-name="Agrave" unicode="&#xc0;" horiz-adv-x="646" 
d="M365 771h-60l-87 124h100zM634 0h-99l-77 216h-269l-79 -216h-100l269 706h98zM430 295l-103 295l-108 -295h211z" />
    <glyph glyph-name="mu" unicode="&#xb5;" horiz-adv-x="564" 
d="M530 -2c-20 -5 -30 -7 -43 -7c-54 0 -80 23 -88 80c-30 -59 -65 -82 -126 -82c-48 0 -80 17 -109 59l4 -264h-82v686h80v-236c0 -75 5 -109 22 -134c17 -27 51 -44 86 -44c43 0 79 25 98 68c14 31 17 57 17 130l1 216h79v-347c0 -53 7 -68 33 -68c9 0 14 1 28 7v-64z" />
    <glyph glyph-name="plusminus" unicode="&#xb1;" horiz-adv-x="724" 
d="M631 355h-225v-219h-88v219h-224v78h224v217h88v-217h225v-78zM630 0h-536l-1 79h537v-79z" />
    <glyph glyph-name="degree" unicode="&#xb0;" horiz-adv-x="354" 
d="M338 594c0 -89 -71 -162 -161 -162s-161 73 -161 162s72 161 161 161c91 0 161 -71 161 -161zM256 596c0 44 -35 79 -79 79s-79 -35 -79 -79c0 -43 36 -79 79 -79c44 0 79 35 79 79z" />
    <glyph glyph-name="registered" unicode="&#xae;" horiz-adv-x="840" 
d="M776 360c0 -207 -153 -363 -357 -363c-197 0 -355 158 -355 356s158 356 357 356c194 0 355 -158 355 -349zM740 346c0 187 -138 329 -320 329c-177 0 -319 -144 -319 -323s141 -321 319 -321c174 0 320 144 320 315zM576 128h-77l-95 189h-54v-189h-69v450h130
c110 0 159 -39 159 -129c0 -69 -30 -108 -96 -126zM500 448c0 49 -29 69 -99 69h-50v-139h57c64 0 92 21 92 70z" />
    <glyph glyph-name="logicalnot" unicode="&#xac;" horiz-adv-x="724" 
d="M636 6h-89v255h-477v80h566v-335z" />
    <glyph glyph-name="copyright" unicode="&#xa9;" horiz-adv-x="840" 
d="M776 360c0 -207 -153 -363 -357 -363c-197 0 -355 158 -355 356s158 356 357 356c194 0 355 -158 355 -349zM740 346c0 187 -138 329 -320 329c-177 0 -320 -144 -320 -323s141 -321 320 -321c174 0 320 144 320 315zM620 276c-31 -107 -95 -157 -197 -157
c-125 0 -209 91 -209 226c0 141 90 241 219 241c95 0 151 -42 183 -138l-67 -19c-28 69 -57 92 -117 92c-88 0 -144 -67 -144 -172c0 -100 53 -163 136 -163c67 0 106 32 128 104z" />
    <glyph glyph-name="brokenbar" unicode="&#xa6;" horiz-adv-x="252" 
d="M167 383h-82v402h82v-402zM167 -137h-82v401h82v-401z" />
    <glyph glyph-name="threesuperior" unicode="&#xb3;" horiz-adv-x="375" 
d="M351 357c0 -60 -41 -135 -163 -133c-86 2 -133 37 -154 86c-11 26 -13 60 -13 66h67c0 -68 42 -95 103 -94c14 0 90 1 90 76c0 59 -40 71 -85 71h-43v59h33c4 0 84 -2 84 66c0 51 -46 72 -84 72c-69 0 -80 -50 -84 -75c-2 -14 -2 -24 -2 -29l-65 1c0 6 0 42 10 69
c17 46 55 91 140 91c72 0 152 -39 152 -130c0 -61 -43 -82 -72 -91c21 -5 32 -9 41 -15c26 -16 45 -43 45 -90z" />
    <glyph glyph-name="twosuperior" unicode="&#xb2;" horiz-adv-x="375" 
d="M341 233h-297v61l10 6c58 35 148 103 187 164c25 38 29 67 29 82c0 49 -35 79 -81 80c-57 2 -82 -38 -82 -87c0 -24 6 -43 8 -52h-65c-3 13 -6 26 -6 53c0 86 56 141 142 143c82 2 150 -49 150 -138c0 -76 -52 -157 -204 -256h209v-56z" />
    <glyph glyph-name="onesuperior" unicode="&#xb9;" horiz-adv-x="375" 
d="M233 233h-67v327h-86v45c51 3 92 13 103 79h50v-451z" />
    <glyph glyph-name="threequarters" unicode="&#xbe;" horiz-adv-x="875" 
d="M853 109h-65v-109h-63v109h-203v58l214 283h53v-285h64v-56zM663 656l-317 -685l-55 26l318 685zM351 357c0 -60 -41 -135 -163 -133c-86 2 -133 37 -154 86c-11 26 -13 60 -13 66h67c0 -68 42 -95 103 -94c14 0 90 1 90 76c0 59 -40 71 -85 71h-43v59h33
c4 0 84 -2 84 66c0 51 -46 72 -84 72c-69 0 -80 -50 -84 -75c-2 -14 -2 -24 -2 -29l-65 1c0 6 0 42 10 69c17 46 55 91 140 91c72 0 152 -39 152 -130c0 -61 -43 -82 -72 -91c21 -5 32 -9 41 -15c26 -16 45 -43 45 -90zM728 356l-139 -191h137z" />
    <glyph glyph-name="onehalf" unicode="&#xbd;" horiz-adv-x="875" 
d="M841 0h-297v61l11 6c92 50 160 126 182 157c29 42 33 74 33 90c0 24 -13 78 -81 80c-57 1 -82 -38 -82 -88c0 -26 5 -38 8 -51h-65c-3 13 -6 26 -6 52c0 87 56 141 142 143c81 2 149 -48 149 -138c0 -76 -50 -156 -203 -255h209v-57zM596 656l-317 -685l-55 26l318 685z
M233 233h-67v327h-86v45c51 3 92 13 103 79h50v-451z" />
    <glyph glyph-name="onequarter" unicode="&#xbc;" horiz-adv-x="875" 
d="M853 109h-65v-109h-63v109h-203v58l214 283h53v-285h64v-56zM620 656l-317 -685l-55 26l318 685zM233 233h-67v327h-86v45c51 3 92 13 103 79h50v-451zM728 356l-139 -191h137z" />
    <glyph glyph-name="Euro" unicode="&#x20ac;" horiz-adv-x="700" 
d="M678 649l-32 -91c-51 65 -112 91 -194 91c-138 0 -218 -77 -245 -209h399l-22 -62h-384v-20c0 -10 1 -19 1 -29h366l-22 -62h-337c24 -131 111 -206 245 -206c85 0 170 33 224 101v-106c-68 -54 -151 -74 -236 -74c-184 0 -309 102 -339 285h-79l23 62h50c0 16 0 33 2 49
h-75l23 62h59c34 181 151 284 337 284c91 0 166 -13 236 -75z" />
    </font>
</defs>
</svg>
